<?xml version="1.0" encoding="utf-8"?>
<!-- Generator: Adobe Illustrator 15.1.0, SVG Export Plug-In . SVG Version: 6.00 Build 0)  -->
<!DOCTYPE svg PUBLIC "-//W3C//DTD SVG 1.1//EN" "http://www.w3.org/Graphics/SVG/1.1/DTD/svg11.dtd">
<svg version="1.1" id="Calque_1" xmlns="http://www.w3.org/2000/svg" xmlns:xlink="http://www.w3.org/1999/xlink" x="0px" y="0px"
	 width="112.121px" height="45px" viewBox="0 0 112.121 45" enable-background="new 0 0 112.121 45" xml:space="preserve">
<g id="Calque_7_1_">
	<path fill="#FFFFFF" d="M81.292,9.63c-0.39-0.18-0.8-0.35-1.229-0.52l-0.17,0.42c0.42,0.17,0.819,0.34,1.21,0.52L81.292,9.63z
		 M36.462,35.181l0.97,0.909l0.31-0.33c-0.32-0.289-0.64-0.6-0.96-0.909L36.462,35.181z M32.792,4.17l0.05,0.45
		c0.43-0.04,0.87-0.08,1.31-0.11l-0.04-0.45C33.672,4.09,33.222,4.13,32.792,4.17z M34.552,33.34l0.95,0.92l0.31-0.319l-0.95-0.92
		L34.552,33.34z M29.082,27.561c0.29,0.33,0.58,0.67,0.88,1l0.34-0.301l-0.87-0.989L29.082,27.561z M32.672,31.461
		c0.31,0.319,0.62,0.629,0.94,0.949l0.32-0.32c-0.31-0.31-0.62-0.619-0.93-0.939L32.672,31.461z M39.422,3.94l-1.23-0.01h-0.09v0.45
		h0.09c0.4,0,0.81,0,1.23,0.01V3.94z M30.852,29.541c0.3,0.33,0.6,0.649,0.91,0.969l0.33-0.31l-0.9-0.96L30.852,29.541z
		 M38.402,36.98c0.33,0.3,0.67,0.59,1,0.88l0.29-0.34c-0.33-0.28-0.66-0.57-0.99-0.87L38.402,36.98z M44.712,41.851
		c0.38,0.229,0.77,0.46,1.16,0.67l0.22-0.399c-0.38-0.211-0.76-0.421-1.14-0.66L44.712,41.851z M50.012,4.561
		c-0.44-0.04-0.88-0.08-1.32-0.11l-0.04,0.45l1.32,0.11L50.012,4.561z M47.062,43.131c0.41,0.189,0.82,0.369,1.23,0.529l0.16-0.43
		c-0.4-0.16-0.8-0.33-1.2-0.52L47.062,43.131L47.062,43.131z M40.412,38.73l1.03,0.83l0.28-0.35c-0.34-0.271-0.68-0.541-1.02-0.83
		L40.412,38.73z M43.402,4.081l-0.02,0.45c0.44,0.02,0.88,0.05,1.32,0.08l0.03-0.45L43.402,4.081z M40.742,4.42
		c0.44,0.01,0.88,0.03,1.32,0.05l0.02-0.45c-0.44-0.02-0.89-0.04-1.32-0.05L40.742,4.42z M36.782,4.4l-0.01-0.45
		c-0.45,0.01-0.89,0.021-1.33,0.04l0.02,0.45C35.892,4.42,36.332,4.4,36.782,4.4z M47.372,4.351c-0.44-0.04-0.88-0.07-1.32-0.1
		l-0.03,0.45c0.44,0.03,0.88,0.06,1.32,0.1L47.372,4.351z M22.102,9.01l0.1-0.13l-0.35-0.29l-0.11,0.14
		c-0.29,0.37-0.52,0.77-0.69,1.2l0.42,0.17C21.632,9.71,21.842,9.34,22.102,9.01z M26.442,6.01l-0.16-0.42
		c-0.43,0.17-0.84,0.35-1.23,0.54l0.2,0.4C25.632,6.34,26.032,6.17,26.442,6.01z M87.631,14.25c-0.229-0.32-0.5-0.63-0.789-0.94
		l-0.33,0.31c0.289,0.31,0.55,0.61,0.779,0.92C87.392,14.44,87.512,14.34,87.631,14.25z M85.852,12.4
		c-0.33-0.28-0.689-0.55-1.07-0.81l-0.26,0.37c0.37,0.26,0.72,0.52,1.04,0.79L85.852,12.4z M49.542,44.101
		c0.43,0.13,0.85,0.25,1.29,0.36l0.1-0.44c-0.42-0.101-0.84-0.22-1.26-0.351L49.542,44.101z M21.132,12.05
		c0-0.25,0.01-0.5,0.04-0.73l-0.45-0.05c-0.03,0.26-0.05,0.52-0.05,0.79l0.02,0.58l0.45-0.03L21.132,12.05z M23.882,6.8
		c-0.38,0.25-0.74,0.52-1.08,0.82l0.3,0.34c0.32-0.28,0.66-0.54,1.03-0.78L23.882,6.8z M27.382,25.521
		c0.27,0.34,0.56,0.69,0.84,1.03l0.35-0.291c-0.28-0.34-0.56-0.68-0.83-1.02L27.382,25.521z M20.902,13.971
		c0.09,0.42,0.21,0.86,0.35,1.3l0.43-0.14c-0.14-0.43-0.26-0.85-0.34-1.25L20.902,13.971z M21.722,16.521
		c0.17,0.4,0.35,0.81,0.55,1.22l0.41-0.2c-0.2-0.4-0.38-0.8-0.54-1.19L21.722,16.521z M42.502,40.36
		c0.36,0.271,0.73,0.521,1.09,0.771l0.25-0.381c-0.36-0.24-0.72-0.49-1.07-0.76L42.502,40.36z M78.362,33.98l0.29,0.34
		c0.34-0.29,0.67-0.58,1-0.88l-0.3-0.33C79.032,33.4,78.702,33.69,78.362,33.98z M77.352,34.83c-0.34,0.271-0.68,0.551-1.03,0.82
		l0.28,0.359c0.35-0.27,0.699-0.549,1.04-0.829L77.352,34.83z M74.202,37.211l0.26,0.369c0.371-0.26,0.73-0.52,1.08-0.779
		l-0.27-0.36C74.922,36.7,74.562,36.961,74.202,37.211L74.202,37.211z M72.322,7.34l1.29,0.27l0.1-0.44l-1.299-0.28L72.322,7.34z
		 M72.002,38.67l0.239,0.381l1.12-0.721l-0.25-0.38C72.742,38.2,72.372,38.44,72.002,38.67z M74.892,7.92
		c0.44,0.11,0.86,0.22,1.271,0.34l0.119-0.43l-1.279-0.35L74.892,7.92z M82.282,10.61c0.4,0.21,0.78,0.42,1.15,0.64l0.23-0.39
		c-0.371-0.22-0.761-0.44-1.171-0.65L82.282,10.61z M55.292,5.05l-1.32-0.12l-0.04,0.45l1.32,0.12L55.292,5.05z M57.442,44.41
		l0.05,0.45c0.44-0.05,0.88-0.11,1.33-0.19l-0.09-0.439C58.292,44.311,57.862,44.371,57.442,44.41z M57.922,5.291l-1.32-0.12
		l-0.04,0.45l1.319,0.12L57.922,5.291z M60.562,5.51l-1.32-0.11l-0.04,0.45c0.44,0.04,0.881,0.08,1.32,0.11L60.562,5.51z
		 M69.742,40.021l0.22,0.39c0.381-0.22,0.771-0.439,1.15-0.67l-0.23-0.39C70.502,39.59,70.122,39.811,69.742,40.021z M52.152,44.721
		c0.44,0.07,0.88,0.13,1.33,0.17l0.04-0.45c-0.44-0.04-0.87-0.09-1.29-0.16L52.152,44.721z M52.652,4.8l-1.32-0.12l-0.04,0.45
		l1.32,0.12L52.652,4.8z M60.022,43.971l0.1,0.439c0.43-0.1,0.86-0.21,1.291-0.33l-0.121-0.43
		C60.862,43.771,60.442,43.881,60.022,43.971z M55.302,44.521l-0.48-0.011l-0.01,0.451h0.49c0.28,0,0.56,0,0.85-0.021l-0.02-0.45
		C55.852,44.521,55.572,44.521,55.302,44.521z M68.482,6.24l-1.319-0.17l-0.051,0.45c0.439,0.05,0.88,0.11,1.311,0.17L68.482,6.24z
		 M67.413,41.25l0.199,0.4c0.4-0.189,0.79-0.4,1.189-0.6l-0.209-0.4C68.192,40.86,67.801,41.061,67.413,41.25z M63.163,6.15
		l0.029-0.45l-0.32-0.02l-1-0.07l-0.029,0.45l1,0.07L63.163,6.15z M71.102,6.65c-0.43-0.08-0.87-0.15-1.311-0.22l-0.07,0.45
		c0.441,0.07,0.881,0.14,1.301,0.22L71.102,6.65L71.102,6.65z M65.012,42.34l0.17,0.42c0.41-0.17,0.81-0.35,1.22-0.529l-0.19-0.41
		C65.812,42,65.413,42.17,65.012,42.34z M62.542,43.26l0.141,0.431c0.42-0.14,0.84-0.29,1.26-0.44l-0.16-0.42
		C63.372,42.98,62.961,43.131,62.542,43.26z M65.842,5.931l-1.32-0.12l-0.04,0.45l1.31,0.12L65.842,5.931z"/>
	<g opacity="0.8">
		<path fill="none" d="M52.612,9.59"/>
		<path fill="#FEDC91" d="M52.612,9.59c1.06-0.09,1.85-0.11,2.4-0.07l1.821-0.27c-1.291,0.23-2.581,0.47-3.861,0.72
			c-3.47,0.7-7.37,1.59-11.08,2.55c-3.71,0.95-7.24,1.97-10,2.8c1.62-0.52,3.56-1.12,5.42-1.67l1.81-0.52
			c1.17-0.33,2.23-0.62,3.08-0.84l-0.5,0.15c1.26-0.37,2.52-0.72,3.79-1.07c1.27-0.31,2.55-0.62,3.83-0.91
			c-1.28,0.29-2.56,0.6-3.83,0.91C47.852,10.74,50.232,10.15,52.612,9.59"/>
		<path fill="none" d="M31.892,15.32l24.94-6.07"/>
		<path fill="#FEDC91" d="M65.881,30.641l-0.16,0.029l0.9-0.229c3.57-0.83,7.131-1.74,10.4-2.69c3.98-1.14,8.12-2.42,12.359-3.92
			c0.851-0.3,1.701-0.609,2.561-0.93c-1.7,0.67-3.41,1.311-5.141,1.92l-0.51,0.17c-3.689,1.21-7.07,2.221-10.379,3.15
			C72.583,29.061,69.333,29.881,65.881,30.641"/>
		<path fill="none" d="M91.352,22.83"/>
		<path fill="#FAC019" d="M91.352,22.83c3.88-1.5,7.97-3.229,11.77-5.37l0.03,0.05c-2.11,1.18-4.44,2.32-6.87,3.35
			c-0.67,0.28-1.34,0.56-2.02,0.83l0.49-0.18C93.622,21.96,92.492,22.4,91.352,22.83 M99.982,19.24c1.16-0.57,2.3-1.18,3.42-1.82
			l0.45-0.24C102.602,17.92,101.301,18.601,99.982,19.24 M65.062,31.94l-1.03,0.2l1.29-0.26L65.062,31.94"/>
		<path fill="none" d="M103.732,19.65"/>
		<path fill="#FAC019" d="M103.732,19.65c-0.55,0.29-1.11,0.57-1.67,0.84L103.732,19.65 M102.062,20.48l-0.24,0.12L102.062,20.48"/>
		<path fill="none" d="M102.502,6.05"/>
		<path fill="#FAC019" d="M102.502,6.05c0.42,0.08,0.84,0.16,1.26,0.25C103.352,6.21,102.932,6.13,102.502,6.05"/>
		<path fill="none" d="M110.301,14.92"/>
		<path fill="#FAC019" d="M110.301,14.92l-0.409,0.37C110.032,15.181,110.163,15.05,110.301,14.92 M16.122,34.601
			c-0.95-0.16-1.89-0.34-2.81-0.57C14.232,34.261,15.172,34.45,16.122,34.601"/>
		<path fill="none" d="M64.032,32.141"/>
		<path fill="#FAC019" d="M64.032,32.141l-2.08,0.37L64.032,32.141"/>
		<path fill="none" d="M105.732,6.851"/>
		<path fill="#FAC019" d="M105.732,6.851c0.569,0.16,1.12,0.33,1.66,0.53c-0.46-0.17-0.94-0.32-1.421-0.46L105.732,6.851
			 M100.202,5.721c0.77,0.09,1.54,0.2,2.301,0.33c-0.511-0.08-1.021-0.16-1.531-0.23L100.202,5.721"/>
		<path fill="none" d="M102.502,6.05"/>
		<path fill="#FAC019" d="M109.971,12.561c0.511-0.67,0.851-1.41,0.861-2.02l-0.011-0.33l0.011,0.33l-0.011-0.33h0.011
			c0.06,0.35,0,0.73-0.15,1.13C110.522,11.75,110.272,12.17,109.971,12.561"/>
		<path fill="none" d="M102.492,6.13"/>
		<path fill="#FAC019" d="M102.492,6.13c1.101,0.19,2.181,0.42,3.24,0.72c0.569,0.16,1.12,0.33,1.66,0.53
			c-0.46-0.17-0.94-0.32-1.421-0.46c0.781,0.23,1.561,0.5,2.301,0.85c0.73,0.34,1.43,0.77,1.91,1.28c0.24,0.25,0.42,0.52,0.52,0.79
			l0.03,0.1l0.021,0.07l0.02,0.08l0.01,0.04v0.03v-0.03l0.01,0.1c0.01,0.14,0.01,0.29-0.01,0.44c-0.07,0.61-0.48,1.33-1.029,1.99
			l-0.281,0.38c0.531-0.58,0.971-1.21,1.191-1.82c0.109-0.3,0.159-0.59,0.139-0.86l-0.02-0.2v-0.03l0.01,0.03v-0.01l-0.02-0.08
			l-0.029-0.1c-0.031-0.11-0.091-0.25-0.16-0.37l0.109,0.23l0.04,0.11l0.03,0.1l0.02,0.1l0.01,0.02v0.01l-0.01-0.03v0.04l0.02,0.12
			l0.011,0.25l-0.011-0.33l0.011-0.09l-0.021-0.1l-0.039-0.14l-0.131-0.31l0.141,0.31l0.039,0.14l0.011,0.06l0.01,0.03v0.03
			l-0.01-0.03l0.01,0.08l-0.01-0.07l-0.021-0.08l-0.01-0.04l-0.01-0.021l-0.061-0.17c-0.049-0.13-0.109-0.26-0.199-0.39
			c-0.16-0.26-0.391-0.5-0.67-0.73c-0.551-0.46-1.26-0.84-2.01-1.15c0.6,0.26,1.16,0.56,1.649,0.9c-0.61-0.43-1.34-0.78-2.11-1.08
			l0.461,0.18c-0.67-0.29-1.381-0.53-2.111-0.74C104.682,6.521,103.592,6.3,102.492,6.13 M107.392,7.371l-0.47-0.16L107.392,7.371"
			/>
		<path fill="none" d="M105.971,6.92"/>
		<path fill="#FAC017" d="M105.971,6.92c0.48,0.14,0.961,0.29,1.421,0.46C106.932,7.21,106.452,7.05,105.971,6.92"/>
		<path fill="none" d="M110.833,10.21"/>
		<path fill="#FAC017" d="M110.822,10.21l0.011,0.33L110.822,10.21"/>
		<path fill="none" d="M96.322,5.42"/>
		<path fill="#FAC019" d="M96.322,5.42c0.431,0.02,0.87,0.05,1.3,0.08c0.6,0.04,1.211,0.1,1.811,0.16c1.8,0.19,3.6,0.46,5.33,0.87
			c0.33,0.08,0.66,0.17,0.979,0.26c-1.06-0.29-2.149-0.5-3.25-0.68C100.471,5.78,98.402,5.561,96.322,5.42"/>
		<path fill="none" d="M110.612,9.59"/>
		<path fill="#FAC019" d="M110.612,9.59l0.141,0.31l0.039,0.14l0.01,0.06l0.011,0.03v0.03l-0.011-0.03l0.011,0.08h-0.011l0.011-0.08
			l-0.021-0.1l-0.039-0.14L110.612,9.59"/>
		<path fill="none" d="M110.833,10.21"/>
		<path fill="#FAC017" d="M110.612,9.59l0.141,0.31l0.039,0.14l0.01,0.06l0.011,0.03v0.03l-0.011-0.03l0.011,0.08v-0.08l0.01,0.03
			v-0.03l-0.01-0.03l-0.011-0.06l-0.039-0.14L110.612,9.59"/>
		<path fill="none" d="M95.801,5.4"/>
		<path fill="#FAC019" d="M95.801,5.4l1.021,0.05l0.8,0.061c-0.43-0.03-0.869-0.061-1.3-0.08L95.801,5.4"/>
		<path fill="none" d="M96.583,5.431"/>
		<path fill="#FAC019" d="M96.583,5.431l0.239,0.02L96.583,5.431 M97.272,5.48c0.98,0.06,1.96,0.14,2.93,0.25
			c-0.51-0.05-1.029-0.1-1.55-0.14C98.192,5.541,97.732,5.511,97.272,5.48"/>
		<path fill="none" d="M110.822,10.21"/>
		<path fill="#FAC017" d="M110.822,10.21l0.011,0.33L110.822,10.21"/>
		<path fill="none" d="M96.583,5.431"/>
		<path fill="#FAC019" d="M96.583,5.431l0.689,0.05L96.583,5.431 M96.822,5.45l0.45,0.03c0.46,0.03,0.92,0.07,1.38,0.11l0.771,0.08
			c-0.601-0.06-1.211-0.11-1.811-0.16c0.6,0.04,1.21,0.1,1.811,0.16c-0.601-0.06-1.211-0.11-1.811-0.16L96.822,5.45"/>
		<path fill="#FAC017" d="M96.583,5.431l0.689,0.05l-0.45-0.03L96.583,5.431 M97.272,5.48c0.46,0.03,0.92,0.07,1.38,0.11
			C98.192,5.541,97.732,5.511,97.272,5.48"/>
		<path fill="none" d="M99.432,5.67l-1.811-0.16"/>
		<path fill="#FAC017" d="M97.622,5.511c0.6,0.04,1.211,0.1,1.811,0.16C98.822,5.601,98.221,5.55,97.622,5.511"/>
		<path fill="none" d="M98.652,5.581"/>
		<path fill="#FAC019" d="M98.652,5.581c0.521,0.04,1.04,0.09,1.55,0.14l0.77,0.1C100.202,5.73,99.432,5.65,98.652,5.581"/>
		<path fill="none" d="M100.202,5.721"/>
		<path fill="#FAC017" d="M100.202,5.721l0.77,0.11L100.202,5.721 M98.652,5.581c0.521,0.04,1.04,0.09,1.55,0.14
			C99.692,5.67,99.172,5.621,98.652,5.581"/>
		<path fill="none" d="M98.652,5.581"/>
		<path fill="#FAC019" d="M98.652,5.581c0.78,0.07,1.55,0.15,2.319,0.25c0.431,0.06,0.851,0.13,1.271,0.21
			c-0.85-0.14-1.7-0.25-2.56-0.34l-0.26-0.02L98.652,5.581"/>
		<path fill="none" d="M102.242,6.03l-3.59-0.45"/>
		<path fill="#FAC017" d="M98.652,5.581c0.78,0.07,1.55,0.15,2.319,0.25C100.202,5.73,99.432,5.65,98.652,5.581"/>
		<path fill="none" d="M100.971,5.831"/>
		<path fill="#FAC017" d="M106.922,7.2l0.47,0.16L106.922,7.2"/>
		<path fill="none" d="M107.392,7.371"/>
		<path fill="#FAC019" d="M107.392,7.371l0.46,0.17c0.6,0.26,1.16,0.56,1.65,0.9C108.892,8.011,108.163,7.661,107.392,7.371"/>
		<path fill="#FAC017" d="M107.392,7.371l0.46,0.17L107.392,7.371"/>
		<path fill="none" d="M107.852,7.541"/>
		<path fill="#FAC017" d="M107.852,7.541c0.6,0.26,1.16,0.56,1.65,0.9C109.012,8.101,108.442,7.8,107.852,7.541"/>
		<path fill="none" d="M109.502,8.45l-4.74-1.91"/>
		<path fill="#FAC019" d="M104.762,6.541c0.5,0.12,0.99,0.25,1.47,0.39l-0.479-0.13C105.422,6.71,105.092,6.621,104.762,6.541"/>
		<path fill="none" d="M99.432,5.67"/>
		<path fill="#FAC019" d="M99.432,5.67l0.26,0.02c1.71,0.19,3.42,0.46,5.07,0.85C103.022,6.13,101.232,5.86,99.432,5.67"/>
		<path fill="#FAC017" d="M99.432,5.67l0.26,0.02L99.432,5.67l0.26,0.02L99.432,5.67 M99.432,5.67l0.26,0.02L99.432,5.67"/>
		<path fill="none" d="M104.762,6.541"/>
		<path fill="#FAC019" d="M108.192,16.21c-1.08,0.79-2.21,1.49-3.359,2.14c1.299-0.74,2.58-1.55,3.779-2.47L108.192,16.21"/>
		<path fill="none" d="M104.833,18.34"/>
		<path fill="#FAC019" d="M106.672,17.3c-1.051,0.66-2.141,1.25-3.24,1.81c1.4-0.73,2.789-1.52,4.109-2.42
			C107.262,16.9,106.971,17.101,106.672,17.3"/>
		<path fill="none" d="M104.282,18.98"/>
		<path fill="#FAC019" d="M104.282,18.98c-3.25,1.81-6.42,3.18-9.13,4.22c1.55-0.62,3.101-1.27,4.62-1.97l-0.24,0.11
			C101.142,20.61,102.721,19.84,104.282,18.98"/>
		<path fill="none" d="M99.772,21.23l-4.62,1.97l9.13-4.22"/>
		<path fill="#FAC019" d="M104.282,18.98c-1.55,0.86-3.14,1.63-4.75,2.36l0.24-0.11C101.292,20.541,102.801,19.791,104.282,18.98"/>
		<path fill="none" d="M104.282,18.98"/>
		<path fill="#FAC017" d="M104.282,18.98c-1.55,0.86-3.14,1.63-4.75,2.36C101.142,20.61,102.721,19.84,104.282,18.98"/>
		<path fill="none" d="M99.532,21.34"/>
		<path fill="#FAC019" d="M105.782,17.88c-0.38,0.23-0.77,0.44-1.15,0.65c0.69-0.39,1.381-0.8,2.041-1.23
			C106.381,17.5,106.083,17.69,105.782,17.88"/>
		<path fill="none" d="M112.122,9.42"/>
		<path fill="#FAC019" d="M112.122,9.42c0.2,0.56,0.221,1.19,0.09,1.75C112.333,10.61,112.312,9.98,112.122,9.42"/>
		<path fill="#FEE4AC" d="M59.742,7.661l-1.29,0.26l-1.8,0.4c2.851-0.52,5.7-1,9.08-1.52l-1.04,0.14c3.641-0.58,6.25-0.88,9.38-1.23
			c-2.22,0.22-4.771,0.54-7.271,0.89C64.282,6.94,61.812,7.331,59.742,7.661"/>
		<path fill="none" d="M74.062,5.71l5.489-0.63"/>
		<path fill="#FAC019" d="M79.551,5.081L80.602,5L79.551,5.081"/>
		<path fill="none" d="M65.721,6.8"/>
		<path fill="#FAC019" d="M65.721,6.8l1.561-0.24L65.721,6.8"/>
		<path fill="none" d="M77.982,5.21"/>
		<path fill="#FAC019" d="M77.982,5.21l1.569-0.13L77.982,5.21 M112.102,10.021c0.08,0.56-0.01,1.13-0.2,1.65
			c-0.2,0.52-0.479,0.98-0.8,1.41c0.32-0.43,0.59-0.9,0.779-1.42c0.19-0.51,0.281-1.08,0.201-1.64H112.102 M112.112,10.021
			c0.08,0.56-0.01,1.13-0.21,1.65c0.19-0.52,0.28-1.09,0.19-1.65H112.112"/>
		<path fill="none" d="M112.051,9.45"/>
		<path fill="#FAC019" d="M112.051,9.45c0.15,0.46,0.19,0.96,0.121,1.43c-0.08,0.57-0.301,1.09-0.57,1.57
			c-0.27,0.48-0.6,0.91-0.96,1.311c0.44-0.5,0.84-1.061,1.13-1.68c0.29-0.62,0.46-1.33,0.359-2.05l-0.029-0.28L112.051,9.45"/>
		<path fill="none" d="M110.642,13.75"/>
		<path fill="#FAC019" d="M112.062,9.44c0.149,0.46,0.19,0.96,0.12,1.43C112.242,10.4,112.202,9.9,112.062,9.44"/>
		<path fill="none" d="M111.961,9.17"/>
		<path fill="#FAC019" d="M111.961,9.17c0.07,0.16,0.121,0.31,0.17,0.49c0.041,0.15,0.07,0.33,0.08,0.5c0.03,0.34,0,0.68-0.069,1.01
			c-0.14,0.65-0.45,1.24-0.81,1.76c0.399-0.6,0.739-1.28,0.84-2.04c0.069-0.47,0.029-0.97-0.121-1.43
			C112.032,9.351,112.002,9.261,111.961,9.17"/>
		<path fill="none" d="M112.083,10.021"/>
		<path fill="#FEE4AC" d="M112.083,10.021c0.08,0.56-0.011,1.13-0.201,1.64c-0.189,0.52-0.469,0.99-0.779,1.42
			c0.32-0.43,0.6-0.9,0.8-1.41c-0.26,0.71-0.69,1.37-1.2,1.97c-0.51,0.6-1.09,1.15-1.699,1.66c-1.221,1.02-2.551,1.89-3.811,2.63
			c1.32-0.81,2.62-1.68,3.811-2.69c0.51-0.43,1-0.89,1.449-1.39c0.45-0.5,0.86-1.05,1.16-1.66c0.301-0.6,0.5-1.3,0.439-2
			c-0.02-0.17-0.049-0.35-0.09-0.51c-0.049-0.17-0.109-0.33-0.18-0.49c-0.15-0.31-0.35-0.6-0.58-0.86
			C111.631,8.791,111.971,9.371,112.083,10.021"/>
		<path fill="#FAC017" d="M112.083,10.021c0.08,0.56-0.011,1.13-0.201,1.64c-0.189,0.52-0.469,0.99-0.779,1.42
			c0.32-0.43,0.59-0.9,0.779-1.42C112.072,11.15,112.163,10.581,112.083,10.021"/>
		<path fill="none" d="M111.902,11.67"/>
		<path fill="#FAC019" d="M110.172,7.471c0.41,0.29,0.799,0.62,1.129,1.03c0.33,0.4,0.57,0.89,0.67,1.41
			c0.101,0.52,0.041,1.06-0.109,1.55c-0.15,0.5-0.4,0.95-0.68,1.36c-0.561,0.83-1.25,1.5-1.92,2.09c-0.67,0.58-1.34,1.06-1.94,1.47
			c0.24-0.17,0.46-0.33,0.69-0.51c1.08-0.82,2.02-1.66,2.779-2.61c0.371-0.47,0.69-0.98,0.91-1.521c0.221-0.54,0.32-1.14,0.23-1.729
			c-0.08-0.58-0.37-1.13-0.76-1.58c-0.391-0.45-0.871-0.83-1.391-1.15c-1.05-0.64-2.26-1.09-3.6-1.45l-0.43-0.11
			c0.64,0.17,1.359,0.4,2.119,0.69c0.75,0.3,1.53,0.66,2.24,1.16c0.7,0.49,1.32,1.13,1.6,1.89c0.141,0.38,0.19,0.77,0.17,1.13
			c-0.02,0.37-0.1,0.71-0.219,1.01c0.18-0.48,0.26-1.01,0.189-1.52c-0.07-0.51-0.28-0.99-0.58-1.4c-0.62-0.82-1.5-1.38-2.4-1.82
			s-1.85-0.77-2.81-1.04s-1.92-0.48-2.899-0.66c1.209,0.2,2.42,0.45,3.6,0.81C107.961,6.32,109.131,6.771,110.172,7.471"/>
		<path fill="none" d="M110.932,12.96"/>
		<path fill="#FAC019" d="M110.932,12.96c-0.551,0.73-1.211,1.37-1.92,1.96c-0.7,0.58-1.45,1.12-2.211,1.62
			c0.65-0.44,1.291-0.9,1.9-1.39C109.512,14.5,110.301,13.791,110.932,12.96 M100.381,20.07l-0.709,0.33l-0.24,0.1L100.381,20.07
			 M104.583,17.92l-1.15,0.63c-1,0.54-2.02,1.04-3.051,1.52l-0.709,0.33C101.342,19.641,102.982,18.82,104.583,17.92 M103.432,18.55
			c-1,0.54-2.02,1.04-3.051,1.52C101.413,19.581,102.432,19.081,103.432,18.55"/>
		<path fill="none" d="M108.692,15.15"/>
		<path fill="#FAC019" d="M108.692,15.15c-0.609,0.5-1.24,0.96-1.9,1.39c-1.09,0.73-2.22,1.39-3.369,2.01
			c-1,0.54-2.021,1.04-3.051,1.52l-0.949,0.44l0.24-0.1c-1.521,0.67-3.061,1.3-4.611,1.89c1.781-0.72,3.551-1.48,5.281-2.311
			C102.961,18.8,106.242,17.101,108.692,15.15"/>
		<path fill="#FAC017" d="M108.692,15.15c-0.609,0.5-1.24,0.96-1.9,1.39C107.452,16.101,108.092,15.641,108.692,15.15"/>
		<path fill="none" d="M100.381,20.07"/>
		<path fill="#FAC017" d="M100.381,20.07l-0.949,0.43L100.381,20.07"/>
		<path fill="none" d="M99.432,20.5"/>
		<path fill="#FAC017" d="M103.432,18.55c-1,0.54-2.02,1.04-3.051,1.52C101.413,19.581,102.432,19.081,103.432,18.55"/>
		<path fill="none" d="M103.432,18.55"/>
		<path fill="#FAC017" d="M103.432,18.55c-1,0.54-2.02,1.04-3.051,1.52C101.413,19.581,102.432,19.081,103.432,18.55"/>
		<path fill="none" d="M98.902,20.61"/>
		<path fill="#FAC019" d="M98.902,20.61c-2.62,1.18-5.069,2.12-7.05,2.81c1.96-0.739,3.9-1.529,5.811-2.37l-0.701,0.35
			C97.612,21.141,98.262,20.88,98.902,20.61"/>
		<path fill="none" d="M41.702,35.99"/>
		<path fill="#FAC019" d="M41.702,35.99c-0.79,0.07-1.58,0.131-2.37,0.19l0.79-0.091L41.702,35.99"/>
		<path fill="#FAC017" d="M34.772,13.081c5.11-1.35,9.25-2.19,12.62-2.78c-2.56,0.61-5.11,1.26-7.65,1.96
			c-4.11,1.12-8.19,2.36-11.21,3.36c-3.02,0.99-5.01,1.71-4.99,1.58c0-0.03,0.17-0.14,0.53-0.31
			C27.762,15.431,31.502,14.13,34.772,13.081"/>
		<path fill="none" d="M47.392,10.311"/>
		<path fill="#FAC019" d="M6.692,27.09c0.24-0.299,0.49-0.569,0.75-0.829c-0.33,0.36-0.57,0.659-0.77,0.95
			c-0.21,0.289-0.38,0.569-0.55,0.92c-0.17,0.34-0.35,0.74-0.47,1.31c-0.11,0.56-0.16,1.33,0.23,2.2l-0.13-0.27
			c-0.05-0.101-0.11-0.301-0.14-0.41c-0.09-0.34-0.12-0.75-0.07-1.2c0.05-0.45,0.19-0.931,0.4-1.38
			C6.122,27.92,6.392,27.49,6.692,27.09"/>
		<path fill="none" d="M14.852,20.94"/>
		<path fill="#FDD36F" d="M14.852,20.94c1.92-0.94,4.48-2.11,7.2-3.23c0.67-0.27,1.34-0.55,2.02-0.81
			c-0.36,0.17-0.53,0.28-0.53,0.31c-0.01,0.12,1.97-0.59,4.99-1.58c3.02-1,7.1-2.24,11.21-3.36c-6.28,1.74-12.5,3.76-18.51,6.3
			c-2,0.85-3.98,1.76-5.91,2.78c-1.4,0.74-2.77,1.53-4.08,2.41c-1.31,0.89-2.58,1.86-3.65,3.04c-0.53,0.6-1.02,1.25-1.33,2.01
			c-0.16,0.38-0.27,0.779-0.3,1.189c-0.03,0.42,0.02,0.84,0.16,1.23c0.28,0.79,0.87,1.42,1.52,1.891
			c0.65,0.479,1.37,0.829,2.11,1.129c-0.24-0.119-0.48-0.239-0.71-0.369c-0.68-0.33-1.35-0.73-1.91-1.271
			c-0.56-0.53-1-1.229-1.09-2.021c-0.1-0.76,0.13-1.52,0.48-2.18s0.82-1.24,1.32-1.779c0.32-0.34,0.65-0.65,0.99-0.95
			c1.03-0.9,2.14-1.681,3.26-2.39c1.12-0.711,2.27-1.351,3.4-1.94c2.27-1.17,4.5-2.16,6.6-3c-3.24,1.38-6.56,2.93-9.67,4.85
			c-1.03,0.64-2.03,1.33-2.97,2.08c-0.94,0.761-1.83,1.601-2.51,2.591c-0.5,0.739-0.89,1.6-0.84,2.51
			c0.02,0.449,0.15,0.89,0.37,1.279c0.22,0.391,0.51,0.73,0.84,1.03c0.66,0.59,1.44,1.01,2.23,1.36c0.79,0.35,1.61,0.619,2.43,0.85
			c1.63,0.45,3.26,0.74,4.84,0.96s3.12,0.351,4.59,0.46c2.1,0.15,5.27,0.21,8.43,0.12c-1.49,0.04-2.98,0.06-4.48,0.05l-0.53,0.051
			c2.02,0.069,4.04,0.069,6.07,0.039l-1.58,0.041c-1.93,0.039-3.87,0.039-5.81-0.021c-1.76-0.06-3.52-0.16-5.27-0.33
			c-1.08-0.11-2.17-0.25-3.26-0.42c-1.69-0.28-3.41-0.64-5.11-1.28c-0.85-0.33-1.69-0.72-2.48-1.311
			c-0.39-0.299-0.76-0.639-1.06-1.06c-0.15-0.21-0.28-0.44-0.39-0.69l-0.14-0.389l-0.05-0.19l-0.01-0.04l-0.01-0.061l-0.02-0.1
			l0.03,0.17l0.03,0.141l0.1,0.319c0.07,0.2,0.16,0.399,0.27,0.58c0.21,0.36,0.48,0.69,0.78,0.96c0.59,0.561,1.27,0.971,1.97,1.311
			c0.69,0.35,1.03,0.479,1.09,0.529c0.06,0.04-0.2-0.029-0.69-0.22c-0.49-0.2-1.2-0.5-1.97-1.05c-0.38-0.28-0.77-0.62-1.11-1.07
			c-0.17-0.22-0.32-0.47-0.45-0.75l-0.16-0.43l-0.04-0.12l-0.02-0.091l-0.01-0.039l-0.01-0.04V30.9l-0.02-0.109
			c-0.1-0.61-0.02-1.23,0.15-1.781c0.17-0.549,0.43-1.02,0.7-1.439c0.11-0.16,0.22-0.311,0.34-0.46c-0.29,0.399-0.56,0.83-0.77,1.28
			c-0.21,0.449-0.35,0.93-0.4,1.38c-0.05,0.45-0.01,0.86,0.08,1.2l0.13,0.41l0.13,0.279c-0.39-0.88-0.34-1.65-0.23-2.21
			c0.12-0.569,0.3-0.96,0.47-1.3s0.35-0.62,0.55-0.92c0.21-0.29,0.44-0.6,0.77-0.95c0.27-0.25,0.55-0.489,0.83-0.72
			c0.95-0.84,1.98-1.561,3.03-2.23c-0.75,0.561,0.19-0.07,1.31-0.729c1.11-0.66,2.41-1.33,2.19-1.16c1.88-0.98,3.8-1.87,5.74-2.69
			c1.04-0.48,2.08-0.95,3.13-1.4c-2.23,0.82-4.49,1.76-6.15,2.49C15.862,20.55,14.772,21.07,14.852,20.94"/>
		<path fill="#FAC017" d="M23.542,17.2c-0.01,0.12,1.97-0.59,4.99-1.58c3.02-1,7.1-2.24,11.21-3.36c-4.11,1.12-8.18,2.36-11.21,3.36
			C25.512,16.61,23.532,17.331,23.542,17.2 M7.432,26.25c-0.33,0.36-0.57,0.66-0.77,0.95c-0.21,0.29-0.38,0.57-0.55,0.921
			c-0.17,0.34-0.35,0.739-0.47,1.31c-0.11,0.56-0.16,1.33,0.23,2.2c-0.39-0.87-0.34-1.641-0.23-2.2c0.12-0.57,0.3-0.97,0.47-1.31
			c0.17-0.341,0.35-0.621,0.55-0.921C6.862,26.92,7.102,26.61,7.432,26.25"/>
		<path fill="none" d="M7.432,26.25l16.64-9.35l6.83,19.66l3.69-0.12"/>
		<path fill="#FAC019" d="M34.592,36.44c-1.23,0.06-2.46,0.09-3.69,0.12l-1.58,0.04c-1.93,0.04-3.87,0.04-5.81-0.021h-0.26
			c1.67,0.061,3.34,0.08,5.01,0.07c-1.85,0.03-3.69,0.03-5.54-0.04c2.11,0.12,4.75,0.12,7.39,0.05
			C31.612,36.61,33.102,36.541,34.592,36.44 M29.322,36.61c-1.93,0.04-3.87,0.04-5.81-0.021C25.452,36.65,27.382,36.65,29.322,36.61
			"/>
		<path fill="none" d="M29.322,36.61"/>
		<path fill="#FAC017" d="M29.322,36.61c-1.93,0.04-3.87,0.04-5.81-0.021C25.452,36.65,27.382,36.65,29.322,36.61"/>
		<path fill="#FAC019" d="M7.222,26.431l0.21-0.181c-0.26,0.261-0.51,0.541-0.75,0.84C6.862,26.86,7.032,26.641,7.222,26.431"/>
		<path fill="none" d="M29.622,15.98"/>
		<path fill="#FAC019" d="M29.622,15.98l0.26-0.04L29.622,15.98"/>
		<path opacity="0.8" fill="#FEDC91" enable-background="new    " d="M4.982,29c0.17-0.55,0.39-0.979,0.6-1.33
			c0.22-0.359,0.43-0.64,0.63-0.879c0.38-0.471,0.69-0.75,0.9-0.951c0.44-0.379,0.54-0.39,0.48-0.27
			c-0.05,0.12-0.24,0.391-0.37,0.61c-0.12,0.21-0.19,0.37-0.01,0.239c-0.18,0.211-0.36,0.431-0.53,0.66
			c-0.12,0.15-0.23,0.301-0.34,0.461c-0.27,0.42-0.53,0.89-0.7,1.439c-0.17,0.54-0.25,1.17-0.15,1.78l0.02,0.11V30.9l0.01,0.04
			l0.01,0.05l0.02,0.09l0.03,0.121l0.16,0.43c0.12,0.27,0.28,0.52,0.45,0.75c0.34,0.449,0.73,0.789,1.11,1.069
			c0.77,0.55,1.48,0.86,1.97,1.05c0.49,0.19,0.76,0.261,0.69,0.221c-0.06-0.051-0.4-0.18-1.09-0.53c-0.69-0.34-1.38-0.75-1.97-1.31
			c-0.29-0.28-0.56-0.601-0.77-0.961c-0.1-0.18-0.2-0.379-0.27-0.58l-0.1-0.319l-0.03-0.14l-0.03-0.17l0.02,0.1l0.01,0.061
			l0.01,0.039l0.05,0.19c0.04,0.149,0.08,0.26,0.14,0.39c0.1,0.25,0.24,0.48,0.39,0.69c0.3,0.42,0.67,0.771,1.06,1.06
			c0.78,0.59,1.63,0.98,2.47,1.311c1.7,0.64,3.42,1,5.11,1.279c1.09,0.181,2.17,0.311,3.26,0.42c1.75,0.181,3.52,0.28,5.27,0.33
			h-0.26c-1.58-0.05-3.17-0.149-4.75-0.3c2.63,0.31,6.34,0.431,9.77,0.36c-1.85,0.029-3.7,0.029-5.54-0.04
			c2.11,0.12,4.75,0.12,7.39,0.05l-0.79,0.051c1.06,0.01,2.11,0.01,3.17,0c-2.02,0.069-4.05,0.1-6.08,0.079
			c-0.7,0.021-1.41,0.04-2.11,0.05c2.11,0.131,4.77,0.271,9,0.121c-2.78,0.1-5.23,0.109-7.94,0.039c-1.36-0.039-2.78-0.1-4.35-0.199
			c-1.56-0.11-3.27-0.261-5.19-0.53l-0.53-0.021c-0.53-0.09-1.05-0.199-1.58-0.31c0.91,0.239,2.36,0.5,3.79,0.69
			c1.42,0.189,2.81,0.319,3.61,0.409c-1.59-0.12-3.18-0.28-4.77-0.52c0.13,0.05,0.79,0.159,1.52,0.27l1.92,0.25
			c-1.97-0.19-3.08-0.399-4.28-0.63c-0.6-0.12-1.22-0.25-1.97-0.42s-1.64-0.38-2.76-0.74l-0.21-0.07l-0.31-0.109
			c-1-0.35-1.85-0.75-2.57-1.2c-0.71-0.45-1.28-0.97-1.67-1.51c-0.19-0.271-0.34-0.54-0.45-0.8l-0.14-0.391l-0.04-0.149l-0.01-0.03
			v-0.02l-0.01-0.041l-0.02-0.08c-0.09-0.43-0.09-0.729-0.1-0.92c0-0.369-0.06-0.299-0.14,0.17c-0.03,0.24-0.05,0.58,0.03,1
			c0.07,0.431,0.24,0.921,0.54,1.4c-0.39-0.58-0.64-1.32-0.67-2.06c-0.03-0.5,0.03-0.88,0.08-1.14c0.05-0.271,0.1-0.44,0.13-0.551
			c0.06-0.21,0.03-0.18-0.03-0.06C5.062,28.92,4.882,29.521,4.982,29"/>
		<path fill="#FAC017" d="M9.982,34.721c-0.06-0.051-0.4-0.18-1.09-0.53c-0.69-0.34-1.38-0.75-1.97-1.31
			c-0.29-0.28-0.56-0.601-0.77-0.961c-0.11-0.18-0.2-0.379-0.27-0.58l-0.1-0.319l-0.03-0.13l-0.03-0.17l0.03,0.17l0.03,0.13
			l0.1,0.319c0.07,0.201,0.16,0.4,0.27,0.58c0.21,0.371,0.48,0.69,0.77,0.961c0.59,0.56,1.27,0.97,1.97,1.31
			C9.582,34.541,9.922,34.67,9.982,34.721 M5.722,30.711l0.02,0.1l0.01,0.061l0.01,0.039l0.05,0.19c0.04,0.149,0.08,0.26,0.14,0.39
			c0.1,0.25,0.24,0.48,0.39,0.69c0.3,0.42,0.67,0.77,1.06,1.06c0.78,0.59,1.63,0.98,2.47,1.311c1.7,0.64,3.42,1,5.11,1.279
			c-1.69-0.279-3.41-0.64-5.11-1.279c-0.84-0.33-1.69-0.721-2.47-1.311c-0.39-0.29-0.76-0.64-1.06-1.06
			c-0.15-0.21-0.28-0.44-0.39-0.69c-0.05-0.119-0.1-0.24-0.14-0.39l-0.05-0.19l-0.01-0.039l-0.01-0.061L5.722,30.711 M28.262,36.65
			c-1.85,0.03-3.69,0.03-5.54-0.04C24.572,36.681,26.422,36.69,28.262,36.65"/>
		<path fill="none" d="M22.722,36.621"/>
		<path fill="#FAC017" d="M23.252,36.59l0.26-0.01L23.252,36.59"/>
		<path fill="none" d="M19.772,37.041l13.53-0.07l-12.2,0.08l-10.55-1.87l4.74,1.08l17.2,0.45l-4.23-0.061l-5.01-0.061l15.27-0.67"
			/>
		<path opacity="0.8" fill="#FEDC91" enable-background="new    " d="M38.522,35.92l1.05-0.109l1.31-0.16l-1.57,0.141l1.57-0.141
			l0.26-0.08c-1.23,0.1-2.45,0.189-3.68,0.27l2.1-0.17c-1.05,0.08-2.1,0.141-3.15,0.201c1.31-0.091,2.62-0.19,3.94-0.301v-0.029
			l-1.31,0.1c-3.14,0.27-6.56,0.48-9.45,0.529c1.35-0.049,2.7-0.109,4.05-0.189c2.87-0.17,5.77-0.4,8.79-0.73l1.04-0.129
			c-3.92,0.42-8.38,0.75-11.27,0.799l0.85-0.039c2.71-0.15,5.01-0.311,7.32-0.51c2.31-0.201,4.62-0.44,7.36-0.811l0.44-0.061
			c-1.31,0.15-3,0.351-4.7,0.521c-1.7,0.17-3.4,0.319-4.71,0.399c4.19-0.33,8.11-0.76,12.02-1.279l0.52-0.08
			c5.2-0.77,9.861-1.62,14.49-2.6c-1.979,0.399-3.959,0.779-5.939,1.129c1.99-0.35,3.97-0.729,5.939-1.129
			c3.73-0.78,7.311-1.621,10.851-2.551c3.53-0.92,7.01-1.92,10.521-3.06c-1.841,0.569-3.701,1.11-5.561,1.63
			c3.51-1.1,7.52-2.41,10.71-3.65c-2.591,0.95-5.03,1.75-7.45,2.49s-4.82,1.42-7.359,2.11c2.539-0.681,4.939-1.37,7.359-2.11
			s4.859-1.54,7.45-2.49l0.979-0.38c-2.1,0.761-4.529,1.591-6.97,2.351c-2.44,0.77-4.899,1.479-7.06,2.06
			c3.039-0.85,5.57-1.56,9.05-2.739l-1,0.31l-1.5,0.489l1.5-0.489c3.239-1.08,5.96-2.05,8.649-3.12c2.881-1.29,6.201-2.88,9.33-4.79
			c0.521-0.32,1.03-0.65,1.541-0.99c-1.09,0.73-2.221,1.39-3.371,2.01c0.391-0.2,0.771-0.42,1.15-0.63
			c-1.59,0.91-3.24,1.72-4.91,2.48c-1.52,0.67-3.06,1.3-4.609,1.89c1.779-0.72,3.55-1.48,5.279-2.31l-1.439,0.63
			c-2.62,1.18-5.07,2.12-7.051,2.81c1.961-0.74,3.9-1.53,5.82-2.37c1.1-0.52,2.2-1.05,3.28-1.62l-0.511,0.13
			c-2.02,0.9-5.34,2.32-9.43,3.821l-0.74,0.27h0.281l-1.25,0.38c-0.73,0.28-1.471,0.56-2.201,0.83
			c-0.75,0.25-1.489,0.489-2.239,0.72c-1.229,0.45-2.851,0.971-4.62,1.48c-1.76,0.51-3.66,1.02-5.439,1.47l1.529-0.37
			c-0.8,0.25-1.77,0.52-2.8,0.79c-1.54,0.39-3.19,0.76-4.58,1.069c-1.021,0.221-2.04,0.431-3.06,0.631l-0.28,0.06l0.11-0.03
			l-0.11,0.021c-1.45,0.31-2.91,0.601-4.37,0.88l-2.32,0.41l-1.3,0.21l1.3-0.21l1.551-0.27l-1.291,0.209l2.58-0.47
			c-1.72,0.32-3.439,0.61-5.159,0.89l-1.811,0.291l0.52-0.09l-2.33,0.34c-1.64,0.24-3.28,0.459-4.93,0.67
			c-1.12,0.16-2.25,0.31-3.37,0.459c0.95-0.119,1.9-0.25,2.85-0.389l1.55-0.23c-1.73,0.24-3.46,0.46-5.19,0.66l0.26-0.061
			c-2.08,0.23-4.69,0.49-7.29,0.69l-0.26,0.02c-1.48,0.12-2.95,0.23-4.43,0.31c1.3-0.069,2.61-0.17,3.91-0.279l-0.26-0.04
			c-2.51,0.19-5.18,0.36-7.9,0.399c-0.67,0.011-1.33,0.011-2,0.011l0.52,0.01c-1.3,0.011-2.6-0.01-3.9-0.05
			c-2.2-0.061-4.34-0.189-6.39-0.45c0.57,0.101,1.15,0.181,1.73,0.25c-0.58-0.069-1.16-0.16-1.73-0.25
			c-1.84-0.229-3.61-0.56-5.22-1.08c-0.8-0.26-1.56-0.569-2.21-0.95c-0.65-0.38-1.2-0.85-1.5-1.369
			c-0.07-0.131-0.14-0.271-0.18-0.391l-0.03-0.1l-0.02-0.07l-0.01-0.04v0.021V30.61l-0.03-0.21c-0.03-0.279,0-0.58,0.08-0.87
			c0.16-0.6,0.5-1.19,0.9-1.71c0.81-1.061,1.81-1.93,2.74-2.689c-0.72,0.539-1.4,1.119-2.01,1.74c-0.61,0.619-1.15,1.289-1.49,1.989
			c-0.35,0.7-0.45,1.41-0.24,2.021c0.2,0.6,0.69,1.119,1.26,1.52c0.86,0.609,1.92,1.04,3,1.38c1.09,0.341,2.22,0.591,3.38,0.79
			c2.31,0.4,4.69,0.6,7.13,0.721l1.61,0.06c-1.82-0.021-3.65-0.091-5.46-0.24l0.26,0.03c-0.43-0.03-0.86-0.07-1.29-0.11
			c0.34,0.03,0.69,0.06,1.03,0.08c-2.06-0.22-3.99-0.521-5.77-0.979c-0.89-0.23-1.74-0.51-2.53-0.871
			c-0.78-0.35-1.51-0.789-2.04-1.34c-0.53-0.549-0.81-1.22-0.74-1.93c0.06-0.72,0.45-1.449,0.94-2.119
			c0.5-0.671,1.12-1.291,1.8-1.871c0.68-0.58,1.41-1.119,2.19-1.649c-0.35,0.25-0.7,0.5-1.04,0.771c1.75-1.311,3.67-2.431,5.62-3.46
			c1.96-1.03,3.98-1.96,6.03-2.83c1.51-0.69,3.04-1.34,4.58-1.96c-1.31,0.48-2.62,0.98-3.92,1.5c0.73-0.31,1.45-0.6,2.18-0.9
			l1.7-0.68c0.08-0.04-0.32,0.09-1.73,0.62c-0.71,0.27-1.66,0.64-2.93,1.16c-1.27,0.53-2.85,1.2-4.77,2.14
			c-1.33,0.65-2.65,1.35-3.92,2.1c2.13-1.27,4.25-2.33,6.24-3.26c1.99-0.93,3.87-1.72,5.57-2.42c-1.07,0.39-2.14,0.79-3.2,1.22
			c-3.24,1.38-6.56,2.93-9.67,4.85c-1.03,0.64-2.03,1.32-2.97,2.08c-0.94,0.761-1.83,1.601-2.51,2.591
			c-0.5,0.739-0.89,1.6-0.84,2.51c0.02,0.449,0.15,0.89,0.37,1.279c0.22,0.391,0.51,0.73,0.84,1.03c0.66,0.59,1.44,1.01,2.23,1.36
			c0.79,0.35,1.61,0.609,2.43,0.84c1.63,0.449,3.26,0.74,4.84,0.96s3.12,0.35,4.59,0.46c2.1,0.15,5.27,0.21,8.43,0.109l0.53-0.02
			l-1.58,0.02c0.79-0.01,1.58-0.029,2.37-0.049c-1.23,0.02-2.46,0.02-3.69,0c1.58,0.01,3.16-0.011,4.74-0.061l0.79-0.051
			c-1.32,0.051-2.64,0.08-3.95,0.101c1.49-0.021,2.98-0.069,4.48-0.13l1.05-0.09C35.892,36.08,37.202,36.01,38.522,35.92
			 M75.442,28.98c1.91-0.48,3.689-0.939,5.59-1.48c1.9-0.529,3.92-1.129,6.29-1.91c-2.37,0.781-4.39,1.381-6.29,1.91
			C79.142,28.041,77.362,28.5,75.442,28.98l-1.529,0.38l-1.021,0.25l1.021-0.25L75.442,28.98l-0.25,0.09
			c-1.359,0.35-2.721,0.68-4.08,1.01c1.37-0.32,2.721-0.66,4.08-1.01L75.442,28.98 M54.122,33.551c3.63-0.601,5.97-0.95,9.32-1.62
			C60.102,32.601,57.752,32.95,54.122,33.551 M51.012,34.041l-0.26,0.039c-0.87,0.131-1.74,0.25-2.6,0.36l2.6-0.36L51.012,34.041
			c3.12-0.451,5.46-0.801,8.571-1.371C56.472,33.24,54.132,33.59,51.012,34.041 M72.652,29.73l-1.53,0.4L72.652,29.73 M8.112,26.891
			c0.76-0.82,1.63-1.54,2.54-2.21c0.91-0.671,1.86-1.29,2.83-1.87c-0.97,0.58-1.93,1.199-2.83,1.87
			C9.742,25.351,8.872,26.08,8.112,26.891 M8.112,26.891c0.76-0.82,1.63-1.54,2.54-2.21c0.91-0.671,1.86-1.29,2.83-1.87
			c-0.97,0.58-1.93,1.199-2.83,1.87C9.742,25.351,8.872,26.08,8.112,26.891 M8.112,26.891c-0.23,0.25-0.46,0.51-0.66,0.779
			c-0.2,0.271-0.39,0.561-0.54,0.851c-0.16,0.29-0.29,0.601-0.37,0.91c-0.08,0.29-0.12,0.6-0.1,0.89l0.01,0.09l0.03,0.221l0.02,0.1
			l0.03,0.12c0.04,0.13,0.09,0.28,0.15,0.409c0.13,0.281,0.32,0.551,0.53,0.791c0.22,0.24,0.47,0.459,0.73,0.649
			c0.27,0.2,0.55,0.38,0.85,0.53c0.3,0.16,0.61,0.3,0.92,0.43c0.23,0.1,0.48,0.19,0.72,0.271c0.32,0.11,0.65,0.22,0.98,0.31
			c0.33,0.1,0.67,0.18,1,0.26c0.33,0.08,0.67,0.15,1.01,0.221c0.25,0.05,0.51,0.1,0.77,0.14c0.34,0.06,0.68,0.12,1.03,0.17
			l0.77,0.101c-1.98-0.28-3.81-0.641-5.47-1.211c-0.83-0.279-1.62-0.619-2.31-1.069s-1.29-1.011-1.57-1.72l-0.06-0.15l-0.04-0.15
			l-0.03-0.13l-0.02-0.12c-0.06-0.359-0.03-0.75,0.06-1.119l0.08-0.261c0.1-0.31,0.25-0.6,0.42-0.89c0.09-0.16,0.19-0.32,0.3-0.471
			C7.582,27.51,7.832,27.2,8.112,26.891 M22.962,18.371c-0.42,0.17-0.85,0.35-1.28,0.53l-0.89,0.38l-0.96,0.42l-0.95,0.44
			l-1.18,0.57l-0.56,0.28c-0.51,0.25-1.01,0.52-1.51,0.79l-0.02,0.01c-0.31,0.17-0.61,0.33-0.91,0.51l0.91-0.51
			c-0.31,0.17-0.61,0.33-0.91,0.51l0.91-0.51l0.01-0.01l-0.92,0.511c0.37-0.21,0.77-0.431,1.19-0.65l0.65-0.34
			c0.39-0.2,0.78-0.39,1.17-0.58l0.37-0.18l1.11-0.52l0.66-0.3l0.68-0.31C21.362,19.05,22.192,18.69,22.962,18.371 M90.532,23.641
			l0.01,0.02l0.99-0.34L90.532,23.641"/>
		<path fill="#FEDC91" d="M8.112,26.891c-0.46,0.49-0.87,1.02-1.19,1.6c-0.31,0.58-0.52,1.21-0.49,1.83
			c-0.02-0.29,0.02-0.6,0.1-0.89c0.09-0.31,0.21-0.62,0.37-0.91s0.34-0.57,0.54-0.851C7.652,27.4,7.882,27.141,8.112,26.891
			 M7.342,27.84c-0.11,0.15-0.21,0.311-0.3,0.471c-0.17,0.29-0.31,0.59-0.42,0.89l-0.08,0.261C6.692,28.9,6.982,28.351,7.342,27.84
			 M6.442,30.41l0.05,0.34l0.1,0.33c0.08,0.221,0.19,0.42,0.32,0.61c0.27,0.39,0.62,0.72,1.01,1c0.79,0.57,1.7,0.97,2.62,1.28
			c1.84,0.619,3.71,0.939,5.44,1.16l-0.77-0.09c-0.34-0.051-0.69-0.101-1.03-0.17c-0.26-0.041-0.51-0.091-0.77-0.141
			c-0.34-0.07-0.68-0.141-1.01-0.22c-0.34-0.08-0.67-0.171-1-0.261c-0.33-0.1-0.66-0.199-0.98-0.31l-0.72-0.28
			c-0.3-0.13-0.61-0.27-0.91-0.43c-0.3-0.16-0.58-0.33-0.85-0.53s-0.52-0.409-0.73-0.649c-0.22-0.24-0.4-0.5-0.54-0.79l-0.15-0.41
			l-0.03-0.12l-0.02-0.1L6.442,30.41 M6.482,30.58l0.02,0.12l0.03,0.13l0.04,0.15l0.06,0.15l-0.09-0.26l-0.04-0.15L6.482,30.58"/>
		<path fill="#FAC226" d="M65.612,30.7l0.109-0.03l0.16-0.029L65.612,30.7"/>
		<path fill="none" d="M17.852,34.86"/>
		<path fill="#FAC017" d="M17.852,34.86c-0.58-0.069-1.16-0.16-1.73-0.25C16.692,34.7,17.272,34.78,17.852,34.86"/>
		<path fill="none" d="M104.583,17.92"/>
		<path fill="#FAC017" d="M104.583,17.92l-1.15,0.63L104.583,17.92 M100.342,19.98c-1.73,0.83-3.49,1.59-5.28,2.311
			C96.842,21.57,98.612,20.811,100.342,19.98"/>
		<path fill="none" d="M95.062,22.291"/>
		<path fill="#FAC017" d="M91.852,23.42c1.96-0.739,3.9-1.529,5.811-2.37C95.752,21.891,93.812,22.681,91.852,23.42 M8.112,26.891
			c-0.23,0.25-0.46,0.51-0.66,0.779c-0.2,0.271-0.39,0.561-0.54,0.851c-0.16,0.29-0.29,0.601-0.37,0.91
			c-0.08,0.29-0.12,0.6-0.1,0.89c-0.02-0.29,0.02-0.6,0.1-0.89c0.09-0.31,0.21-0.62,0.37-0.91c0.16-0.29,0.34-0.57,0.54-0.851
			C7.652,27.4,7.882,27.141,8.112,26.891 M7.342,27.84c-0.11,0.15-0.21,0.311-0.3,0.471c-0.17,0.29-0.31,0.59-0.42,0.89l-0.08,0.261
			l0.08-0.261c0.1-0.31,0.25-0.61,0.42-0.89C7.132,28.15,7.232,27.99,7.342,27.84 M6.442,30.41l0.03,0.221l0.02,0.1l0.03,0.12
			c0.04,0.13,0.09,0.28,0.15,0.41c0.13,0.28,0.32,0.55,0.53,0.79c0.22,0.24,0.47,0.46,0.73,0.649c0.28,0.2,0.56,0.38,0.86,0.53
			c0.3,0.16,0.61,0.3,0.92,0.43c0.23,0.101,0.48,0.19,0.72,0.271c0.32,0.11,0.65,0.22,0.98,0.31c0.33,0.1,0.67,0.18,1,0.26
			c0.33,0.08,0.67,0.15,1.01,0.221c0.25,0.05,0.51,0.1,0.77,0.14c0.34,0.06,0.68,0.12,1.03,0.17l0.77,0.101l-0.78-0.09
			c-0.34-0.051-0.69-0.11-1.03-0.17c-0.26-0.041-0.51-0.091-0.77-0.141c-0.34-0.07-0.68-0.141-1.01-0.22
			c-0.34-0.08-0.67-0.171-1-0.261c-0.33-0.1-0.66-0.199-0.98-0.31l-0.72-0.271c-0.3-0.14-0.61-0.279-0.91-0.439
			c-0.3-0.16-0.59-0.33-0.86-0.53s-0.52-0.409-0.73-0.649c-0.22-0.24-0.4-0.5-0.53-0.79c-0.06-0.13-0.11-0.28-0.15-0.41l-0.03-0.12
			l-0.02-0.1L6.442,30.41 M6.482,30.58l0.02,0.12l0.03,0.13l0.04,0.15l0.06,0.15l-0.06-0.15l-0.04-0.15l-0.03-0.13L6.482,30.58
			 M13.482,22.811c-0.97,0.58-1.93,1.2-2.83,1.87c-0.91,0.67-1.78,1.399-2.54,2.21c0.76-0.811,1.63-1.54,2.54-2.21
			C11.552,24.011,12.512,23.4,13.482,22.811 M13.482,22.811c-0.97,0.58-1.93,1.2-2.83,1.87c-0.91,0.67-1.78,1.399-2.54,2.21
			c0.76-0.811,1.63-1.54,2.54-2.21C11.552,24.011,12.512,23.4,13.482,22.811"/>
		<path fill="none" d="M29.842,36.431"/>
		<path fill="#FAC017" d="M29.842,36.431c-3.16,0.09-6.33,0.03-8.43-0.11c-1.47-0.1-3-0.24-4.59-0.46
			c-1.58-0.22-3.21-0.51-4.84-0.96c-0.82-0.23-1.63-0.5-2.43-0.84c-0.79-0.35-1.57-0.77-2.23-1.36c-0.33-0.3-0.62-0.64-0.84-1.03
			c-0.22-0.39-0.35-0.83-0.37-1.279c-0.04-0.91,0.34-1.77,0.84-2.51c-0.5,0.74-0.89,1.6-0.84,2.51c0.02,0.449,0.15,0.89,0.37,1.279
			c0.22,0.391,0.51,0.73,0.84,1.03c0.66,0.591,1.44,1.011,2.23,1.36s1.61,0.609,2.43,0.84c1.63,0.45,3.26,0.74,4.84,0.96
			s3.12,0.351,4.59,0.46C23.512,36.461,26.682,36.521,29.842,36.431 M22.102,18.351c-3.24,1.38-6.56,2.93-9.67,4.85
			C15.542,21.28,18.862,19.73,22.102,18.351"/>
		<path fill="none" d="M30.372,36.41l0.79-0.039l1.05-0.061l8.66-0.66l46.27-9.79l-53.62,10.37l6.03-0.55l0.78-0.101l25.44-4.119
			l26.52-7.621l-49.87,11.41l-20.32-16.899l73.83,3.97l-48.21,12.24l27.47-5.49l13.09-3.939l15.15-6.581l-86.03,2.16"/>
		<path fill="#FEDC91" d="M19.832,19.71l0.96-0.42c-1.21,0.53-2.43,1.09-3.65,1.71l0.56-0.28l1.18-0.57L19.832,19.71 M20.522,19.42
			l-0.69,0.31l-0.65,0.29L20.522,19.42 M18.072,20.541l-0.37,0.18c-0.39,0.19-0.78,0.38-1.17,0.58l-0.65,0.34
			C16.572,21.28,17.302,20.911,18.072,20.541"/>
		<path fill="none" d="M100.342,19.98"/>
		<path fill="#FEDC91" d="M15.622,21.78l-0.01,0.01h-0.01L15.622,21.78"/>
		<path fill="none" d="M74.782,28.53l-14.32,3.181l1.28-0.25l-35.85,3.629"/>
		<path fill="#FAC019" d="M28.882,16.24l-0.5,0.18L28.882,16.24"/>
		<path fill="#FAC017" d="M26.882,16.88c6.17-2.23,12.24-3.93,18.61-5.5c-1.27,0.34-2.53,0.7-3.79,1.07l0.5-0.15
			c-0.85,0.22-1.92,0.51-3.08,0.84l-1.81,0.52c-1.86,0.54-3.8,1.15-5.42,1.67c-0.67,0.2-1.34,0.41-2,0.62L29.632,16l1.48-0.54
			c-0.74,0.26-1.49,0.52-2.23,0.79l-0.49,0.18c-2.05,0.75-4.08,1.56-6.09,2.42C23.812,18.15,25.342,17.5,26.882,16.88 M39.122,13.13
			c1.17-0.33,2.24-0.62,3.08-0.84C41.362,12.511,40.292,12.8,39.122,13.13l-1.81,0.52L39.122,13.13 M42.202,12.291l-0.5,0.15
			L42.202,12.291 M29.622,15.98l0.26-0.05v0.01L29.622,15.98 M26.882,16.88c-1.54,0.62-3.07,1.27-4.58,1.96
			C23.812,18.15,25.342,17.5,26.882,16.88 M27.802,16.121c3.7-1.34,8.47-2.78,12.5-3.84c-1.63,0.51-3.89,1.22-6.29,2.02
			c-2.4,0.8-4.93,1.71-7.13,2.58c-1.31,0.48-2.62,0.98-3.92,1.5c0.73-0.31,1.45-0.6,2.18-0.9l1.7-0.68
			c0.08-0.04-0.32,0.09-1.73,0.62c-0.71,0.27-1.66,0.64-2.93,1.16c-1.27,0.53-2.85,1.2-4.77,2.14c-1.33,0.65-2.65,1.35-3.92,2.1
			c2.13-1.27,4.25-2.33,6.24-3.26c1.99-0.93,3.87-1.72,5.57-2.42c-1.07,0.39-2.14,0.79-3.19,1.22l1.94-0.81
			c0.77-0.31,1.68-0.67,2.7-1.05L27.802,16.121 M25.292,17.141c-1.7,0.7-3.58,1.49-5.57,2.42c-1.99,0.93-4.11,1.98-6.24,3.26
			c2.13-1.27,4.25-2.33,6.24-3.26C21.722,18.63,23.592,17.831,25.292,17.141 M26.842,16.8c-0.12,0.06-1.38,0.55-1.7,0.68
			c-0.73,0.29-1.46,0.59-2.18,0.9c0.73-0.31,1.45-0.6,2.18-0.9C25.462,17.34,26.722,16.851,26.842,16.8"/>
		<path fill="none" d="M15.322,21.34"/>
		<path fill="#FBC842" d="M15.322,21.34c1.93-1.02,3.91-1.93,5.91-2.78c6.02-2.54,12.23-4.55,18.51-6.3
			c1.91-0.521,3.82-1.01,5.73-1.49l1.92-0.47c2.08-0.35,3.91-0.6,5.23-0.72c-2.39,0.56-4.76,1.15-7.13,1.78
			c-6.36,1.57-12.44,3.28-18.61,5.5c2.2-0.87,4.73-1.77,7.13-2.58c2.4-0.8,4.66-1.51,6.29-2.02c-4.02,1.06-8.8,2.5-12.5,3.84
			l-1.05,0.38c-1.02,0.38-1.93,0.73-2.7,1.05c-0.65,0.26-1.3,0.53-1.94,0.81c-2.1,0.84-4.34,1.82-6.6,3
			c-1.14,0.59-2.28,1.23-3.4,1.94s-2.23,1.49-3.26,2.39c-0.34,0.301-0.68,0.61-0.99,0.951c-0.5,0.539-0.97,1.119-1.32,1.779
			s-0.57,1.42-0.48,2.18c0.09,0.791,0.53,1.49,1.09,2.021c0.56,0.54,1.22,0.94,1.91,1.271c0.23,0.129,0.47,0.26,0.71,0.369
			c-0.74-0.3-1.46-0.66-2.11-1.13c-0.65-0.479-1.24-1.101-1.52-1.89c-0.14-0.4-0.19-0.811-0.16-1.23c0.03-0.41,0.14-0.82,0.3-1.189
			c0.32-0.76,0.8-1.41,1.33-2.01c1.07-1.19,2.34-2.16,3.65-3.041C12.552,22.871,13.932,22.081,15.322,21.34"/>
		<path fill="none" d="M47.392,10.311"/>
		<path fill="#FAC017" d="M15.322,21.34c-1.4,0.74-2.77,1.531-4.08,2.41c-1.31,0.881-2.58,1.851-3.65,3.041
			c-0.53,0.6-1.02,1.25-1.33,2.01c-0.16,0.38-0.27,0.779-0.3,1.189c-0.03,0.42,0.02,0.84,0.16,1.23c0.28,0.79,0.87,1.42,1.52,1.89
			c0.65,0.479,1.37,0.83,2.11,1.13c-0.74-0.3-1.46-0.66-2.11-1.13c-0.65-0.479-1.24-1.1-1.52-1.89c-0.14-0.4-0.19-0.811-0.16-1.23
			c0.03-0.41,0.14-0.82,0.3-1.189c0.32-0.76,0.8-1.41,1.33-2.01c1.07-1.19,2.34-2.16,3.65-3.041
			C12.552,22.871,13.932,22.081,15.322,21.34 M21.232,18.561c6.02-2.54,12.23-4.55,18.51-6.3
			C33.462,14.011,27.252,16.021,21.232,18.561 M6.052,30.59c-0.1-0.76,0.13-1.52,0.48-2.18c0.35-0.66,0.82-1.24,1.32-1.779
			c0.31-0.33,0.65-0.65,0.99-0.95c1.03-0.9,2.14-1.681,3.26-2.39c1.12-0.711,2.27-1.351,3.4-1.94c-1.14,0.59-2.28,1.229-3.4,1.94
			c-1.12,0.709-2.23,1.479-3.26,2.39c-0.34,0.3-0.67,0.61-0.99,0.95c-0.5,0.539-0.97,1.119-1.32,1.779
			C6.182,29.061,5.952,29.83,6.052,30.59"/>
		<path fill="none" d="M39.742,12.261l-30.9,13.42"/>
		<path fill="#FAC017" d="M27.792,16.121h0.01l-1.05,0.38L27.792,16.121 M40.292,12.28c-1.63,0.51-3.89,1.22-6.29,2.02
			c-2.4,0.8-4.93,1.71-7.13,2.58c2.2-0.87,4.73-1.77,7.13-2.58S38.662,12.791,40.292,12.28"/>
		<path fill="none" d="M39.742,12.261"/>
		<path fill="#FAC019" d="M39.742,12.261c2.54-0.7,5.09-1.35,7.65-1.96l-1.92,0.47C43.562,11.25,41.652,11.75,39.742,12.261"/>
		<path fill="none" d="M47.392,10.311"/>
		<path fill="#FAC017" d="M39.742,12.261c2.54-0.7,5.09-1.35,7.65-1.96C44.832,10.911,42.282,11.561,39.742,12.261"/>
	</g>
	<path fill="#FFFFFF" d="M18.732,35.33c0.26,2.041-1.19,3.9-3.23,4.16s-3.9-1.189-4.16-3.229c-0.26-2.04,1.19-3.9,3.23-4.15
		C16.612,31.851,18.472,33.291,18.732,35.33z M79.402,11.44c-1.06-0.04-1.899-0.94-1.851-2c0.041-1.07,0.94-1.9,2.011-1.86
		c1.06,0.04,1.899,0.94,1.86,2C81.372,10.65,80.471,11.48,79.402,11.44z M77.862,5.98c1.93-0.8,4.13,0.04,5.051,1.88l0.109,0.25
		l-0.54,0.21l-0.09-0.2c-0.78-1.57-2.671-2.3-4.31-1.61L77.862,5.98L77.862,5.98z M75.992,1.471c4.31-1.79,9.24,0.09,11.29,4.21
		c0.09,0.18,0.17,0.36,0.25,0.55l-0.529,0.22c-0.07-0.18-0.15-0.35-0.24-0.52c-1.91-3.85-6.521-5.61-10.551-3.93L75.992,1.471z
		 M76.922,3.73c3.119-1.3,6.689,0.06,8.17,3.05l0.18,0.4l-0.53,0.22l-0.159-0.36c-1.351-2.71-4.591-3.95-7.44-2.77L76.922,3.73z
		 M28.672,0.181l1.57,3.07l3.39-0.55l-2.43,2.44l1.56,3.06l-3.07-1.56l-2.43,2.43l0.54-3.39l-3.07-1.57l3.4-0.53L28.672,0.181z
		 M66.532,44.86l-2.72-1.89l0.29-3.301l2.99-1.399l2.72,1.89l-0.29,3.301L66.532,44.86z M48.712,17.71h-1.12V16.5
		c0-0.28-0.08-0.58-0.32-0.8c-0.23-0.21-0.53-0.28-0.81-0.28s-0.58,0.07-0.8,0.28c-0.23,0.22-0.31,0.51-0.31,0.79v1.22
		c-0.25,0.02-0.5,0.09-0.71,0.28c-0.23,0.22-0.31,0.51-0.31,0.79v0.02c0,0.28,0.08,0.57,0.31,0.79c0.2,0.19,0.46,0.26,0.71,0.28v5.5
		c0,0.279,0.08,0.569,0.31,0.789c0.22,0.2,0.49,0.271,0.76,0.28h0.06c0.28,0,0.57-0.069,0.79-0.28c0.21-0.199,0.3-0.46,0.31-0.71
		v-5.57h1.11c0.28,0,0.58-0.07,0.8-0.28c0.23-0.21,0.31-0.51,0.31-0.79v-0.03c0-0.28-0.08-0.57-0.31-0.79
		C49.292,17.771,48.992,17.71,48.712,17.71z M42.882,21.771c-0.56-0.51-1.27-0.77-2.05-0.77h-4.48c-0.23,0-0.36-0.06-0.52-0.19
		c-0.15-0.14-0.18-0.21-0.18-0.39c0.01-0.17,0.04-0.24,0.19-0.38c0.15-0.12,0.29-0.18,0.52-0.18h4.47c0.28,0,0.58-0.06,0.81-0.28
		c0.23-0.21,0.31-0.51,0.31-0.78v-0.03c0-0.28-0.09-0.58-0.32-0.79s-0.52-0.27-0.8-0.27h-4.48c-0.78,0-1.49,0.26-2.06,0.78
		c-0.57,0.5-0.89,1.18-0.89,1.93v0.03c0,0.75,0.32,1.43,0.88,1.931c0.56,0.51,1.27,0.77,2.04,0.77h4.49
		c0.23,0,0.36,0.061,0.52,0.189c0.15,0.15,0.18,0.211,0.19,0.391c-0.01,0.17-0.04,0.23-0.19,0.38c-0.15,0.13-0.29,0.181-0.52,0.181
		h-6.3c-0.28,0-0.58,0.06-0.81,0.279c-0.23,0.21-0.31,0.51-0.31,0.79v0.021c0,0.279,0.09,0.569,0.32,0.789
		c0.23,0.211,0.52,0.28,0.81,0.271h6.31c0.75,0,1.44-0.25,2-0.74c0.6-0.489,0.93-1.189,0.93-1.96v-0.02
		C43.772,22.961,43.462,22.271,42.882,21.771L42.882,21.771z M10.302,24.561c-0.23-0.21-0.53-0.28-0.81-0.28h-6.3
		c-0.23,0-0.37-0.05-0.53-0.19c-0.14-0.14-0.17-0.199-0.18-0.379V20.42c0.01-0.18,0.04-0.24,0.19-0.38
		c0.16-0.13,0.29-0.18,0.52-0.18h4.47c0.28,0,0.58-0.06,0.81-0.28c0.23-0.22,0.31-0.51,0.31-0.79v-0.03c0-0.28-0.08-0.57-0.31-0.79
		c-0.23-0.21-0.53-0.271-0.8-0.271h-4.47c-0.78,0-1.5,0.26-2.06,0.771c-0.57,0.5-0.88,1.18-0.88,1.93v3.311
		c0,0.75,0.32,1.42,0.89,1.93s1.27,0.779,2.05,0.77h6.31c0.28,0,0.57-0.07,0.8-0.279c0.23-0.211,0.31-0.5,0.32-0.771v-0.03
		C10.622,25.07,10.532,24.78,10.302,24.561z M20.972,18.48c-0.56-0.51-1.27-0.77-2.05-0.77h-4.48c-0.78,0-1.5,0.26-2.06,0.77
		c-0.57,0.5-0.88,1.18-0.88,1.93v3.31c0,0.74,0.32,1.42,0.89,1.93c0.56,0.51,1.27,0.77,2.04,0.77h4.5c0.75,0,1.44-0.25,2-0.739
		c0.6-0.49,0.93-1.19,0.93-1.96V20.4C21.862,19.661,21.542,18.98,20.972,18.48z M19.622,23.711c-0.01,0.18-0.04,0.239-0.19,0.39
		c-0.16,0.13-0.29,0.18-0.52,0.18h-4.47c-0.23,0-0.37-0.05-0.53-0.19c-0.15-0.14-0.17-0.199-0.18-0.379V20.42
		c0.01-0.17,0.03-0.24,0.19-0.38c0.15-0.12,0.29-0.18,0.52-0.18h4.47c0.23,0,0.36,0.06,0.52,0.19c0.15,0.14,0.18,0.21,0.19,0.38
		V23.711z M31.322,18.48c-0.56-0.51-1.27-0.77-2.05-0.77h-2.96c-0.4,0-0.78,0.07-1.14,0.2c-0.19-0.14-0.43-0.2-0.66-0.2h-0.04
		c-0.28,0-0.57,0.06-0.79,0.27c-0.23,0.21-0.32,0.5-0.32,0.78v6.6c0,0.271,0.08,0.57,0.32,0.78c0.23,0.21,0.52,0.27,0.8,0.27
		s0.57-0.07,0.8-0.27c0.23-0.21,0.32-0.51,0.31-0.78v-4.93c0.01-0.18,0.04-0.24,0.19-0.38c0.16-0.13,0.3-0.18,0.53-0.19h2.94
		c0.23,0,0.37,0.06,0.52,0.19c0.15,0.14,0.18,0.2,0.19,0.38v4.94c0,0.279,0.09,0.569,0.32,0.779s0.52,0.28,0.81,0.28
		c0.28,0,0.57-0.07,0.8-0.271c0.23-0.21,0.31-0.5,0.32-0.779v-4.96C32.212,19.661,31.892,18.98,31.322,18.48z M89.333,15.181
		c-0.261-0.25-0.611-0.33-0.961-0.33c-0.34,0-0.689,0.08-0.949,0.33c-0.26,0.24-0.36,0.59-0.36,0.92v0.02
		c0,0.34,0.101,0.68,0.36,0.92c0.26,0.24,0.609,0.32,0.949,0.32s0.69-0.08,0.961-0.33c0.25-0.24,0.35-0.57,0.359-0.9v-0.06
		C89.682,15.76,89.583,15.42,89.333,15.181z M100.672,18.48c-0.561-0.51-1.28-0.77-2.061-0.77h-4.48c-0.779,0-1.5,0.26-2.06,0.77
		c-0.569,0.5-0.89,1.18-0.88,1.93v3.32c0,0.75,0.32,1.42,0.891,1.93c0.56,0.51,1.279,0.78,2.049,0.771h4.5c0.75,0,1.44-0.25,2-0.74
		c0.601-0.49,0.931-1.19,0.931-1.96v-3.32C101.562,19.661,101.242,18.98,100.672,18.48z M99.312,23.711
		c-0.011,0.18-0.04,0.239-0.19,0.39c-0.16,0.13-0.289,0.18-0.52,0.18h-4.471c-0.229,0-0.369-0.06-0.52-0.18
		c-0.15-0.14-0.18-0.2-0.189-0.39V20.42c0.01-0.18,0.029-0.24,0.189-0.38c0.15-0.13,0.29-0.18,0.52-0.19h4.471
		c0.23,0,0.369,0.06,0.529,0.19c0.141,0.14,0.17,0.2,0.181,0.38V23.711z M60.192,18.48c-0.561-0.51-1.27-0.77-2.05-0.77h-4.49
		c-0.78,0-1.5,0.26-2.06,0.77c-0.57,0.5-0.89,1.18-0.88,1.93v3.31c0,0.74,0.32,1.42,0.89,1.93c0.56,0.51,1.27,0.77,2.04,0.77h4.479
		c0.28,0,0.57-0.06,0.801-0.279c0.229-0.21,0.31-0.5,0.31-0.78V25.34c0-0.279-0.08-0.58-0.31-0.789
		c-0.23-0.221-0.53-0.28-0.811-0.28h-4.47c-0.23,0-0.37-0.05-0.53-0.19c-0.15-0.14-0.17-0.199-0.18-0.38v-0.569h5.39
		c0.67-0.041,1.29-0.291,1.8-0.721c0.6-0.51,0.94-1.2,0.94-1.979V20.4C61.072,19.661,60.762,18.98,60.192,18.48L60.192,18.48z
		 M58.642,20.811c-0.16,0.13-0.29,0.18-0.521,0.19h-5.169v-0.58c0.01-0.18,0.03-0.24,0.19-0.38c0.15-0.13,0.3-0.18,0.52-0.19h4.469
		c0.23,0,0.36,0.05,0.521,0.17c0.149,0.14,0.181,0.22,0.19,0.4C58.822,20.601,58.792,20.67,58.642,20.811z M89.492,18.771
		c0-0.28-0.09-0.57-0.31-0.78c-0.23-0.21-0.53-0.28-0.811-0.28c-0.279,0-0.58,0.07-0.81,0.28s-0.31,0.5-0.31,0.78v6.61
		c0,0.279,0.09,0.569,0.31,0.779c0.229,0.211,0.521,0.28,0.81,0.28c0.28,0,0.58-0.069,0.801-0.28c0.229-0.21,0.31-0.5,0.31-0.77
		V18.8L89.492,18.771z M111.902,20.411c0-0.75-0.31-1.43-0.88-1.93c-0.561-0.51-1.27-0.77-2.051-0.77h-2.949
		c-0.4,0-0.78,0.07-1.13,0.2c-0.19-0.14-0.431-0.2-0.671-0.2h-0.039c-0.28,0-0.57,0.06-0.79,0.27c-0.229,0.21-0.32,0.51-0.32,0.79
		v6.601c0,0.279,0.08,0.579,0.32,0.789c0.229,0.211,0.521,0.271,0.8,0.271s0.57-0.07,0.811-0.271c0.229-0.21,0.31-0.5,0.319-0.77
		v-4.96c0.011-0.17,0.04-0.24,0.19-0.38c0.16-0.13,0.3-0.18,0.52-0.19h2.95c0.229,0,0.37,0.06,0.521,0.19
		c0.149,0.14,0.17,0.2,0.189,0.39v4.95c0,0.27,0.09,0.57,0.311,0.779c0.229,0.211,0.529,0.28,0.81,0.28s0.569-0.069,0.8-0.27
		c0.23-0.21,0.311-0.5,0.311-0.78v-4.96L111.902,20.411z M85.872,17.99c-0.229-0.21-0.52-0.28-0.81-0.28h-1.11v-1.22
		c0-0.28-0.08-0.58-0.31-0.79c-0.229-0.21-0.521-0.28-0.81-0.28c-0.281,0-0.58,0.06-0.811,0.28c-0.23,0.22-0.32,0.51-0.32,0.79v1.21
		c-0.25,0.021-0.5,0.09-0.699,0.28c-0.23,0.22-0.311,0.52-0.311,0.8v0.02c0,0.28,0.08,0.57,0.311,0.79
		c0.199,0.18,0.459,0.26,0.709,0.27v5.5c0,0.28,0.08,0.58,0.311,0.79s0.529,0.28,0.811,0.28c0.279,0,0.569-0.07,0.799-0.28
		c0.221-0.21,0.311-0.5,0.311-0.77V19.86h1.109c0.281,0,0.58-0.07,0.811-0.28s0.311-0.5,0.311-0.77v-0.04
		C86.182,18.5,86.102,18.2,85.872,17.99z M64.512,14.71c0-0.28-0.08-0.58-0.311-0.79c-0.23-0.22-0.529-0.29-0.81-0.29
		s-0.58,0.07-0.81,0.28c-0.23,0.22-0.311,0.51-0.311,0.8v10.64c0,0.28,0.08,0.58,0.311,0.79c0.219,0.21,0.5,0.279,0.779,0.279h0.04
		c0.28,0,0.58-0.069,0.8-0.279c0.23-0.221,0.311-0.51,0.311-0.79V14.71z M78.942,18.48c-0.561-0.51-1.279-0.77-2.061-0.77h-4.479
		c-0.28,0-0.58,0.06-0.8,0.28c-0.23,0.21-0.32,0.51-0.32,0.78v0.02c0,0.28,0.08,0.57,0.311,0.79c0.229,0.21,0.529,0.28,0.81,0.28
		h4.47c0.23,0,0.36,0.06,0.521,0.19c0.149,0.14,0.17,0.2,0.18,0.38v0.56h-5.19c-0.779,0-1.489,0.26-2.06,0.78
		c-0.569,0.5-0.89,1.19-0.89,1.94v0.02c0,0.75,0.32,1.43,0.89,1.93c0.56,0.5,1.261,0.771,2.03,0.771h4.49
		c0.399,0,0.779-0.07,1.129-0.21c0.191,0.14,0.431,0.21,0.66,0.21h0.041c0.279,0,0.569-0.07,0.789-0.271
		c0.221-0.199,0.301-0.479,0.32-0.729v-5.01C79.822,19.661,79.512,18.98,78.942,18.48z M77.583,23.711
		c-0.011,0.18-0.041,0.239-0.19,0.39c-0.16,0.13-0.29,0.18-0.521,0.19h-4.47c-0.229,0-0.37-0.051-0.521-0.181
		c-0.149-0.14-0.17-0.21-0.18-0.39c0.01-0.16,0.04-0.24,0.19-0.391c0.159-0.13,0.29-0.18,0.521-0.189h5.18L77.583,23.711z
		 M68.252,14.7c0-0.28-0.09-0.57-0.311-0.78c-0.23-0.21-0.529-0.29-0.811-0.29c-0.279,0-0.58,0.07-0.81,0.29s-0.31,0.52-0.31,0.8
		v10.63c0,0.28,0.08,0.58,0.31,0.8c0.22,0.21,0.511,0.28,0.78,0.29h0.04c0.28,0,0.569-0.069,0.8-0.28
		c0.221-0.21,0.311-0.51,0.311-0.779V14.7L68.252,14.7z M42.882,21.771c-0.56-0.51-1.27-0.77-2.05-0.77h-4.48
		c-0.23,0-0.36-0.06-0.52-0.19c-0.15-0.14-0.18-0.21-0.18-0.39c0.01-0.17,0.04-0.24,0.19-0.38c0.15-0.12,0.29-0.18,0.52-0.18h4.47
		c0.28,0,0.58-0.06,0.81-0.28c0.23-0.21,0.31-0.51,0.31-0.78v-0.03c0-0.28-0.09-0.58-0.32-0.79s-0.52-0.27-0.8-0.27h-4.48
		c-0.78,0-1.49,0.26-2.06,0.78c-0.57,0.5-0.89,1.18-0.89,1.93v0.03c0,0.75,0.32,1.43,0.88,1.931c0.56,0.51,1.27,0.77,2.04,0.77h4.49
		c0.23,0,0.36,0.061,0.52,0.189c0.15,0.15,0.18,0.211,0.19,0.391c-0.01,0.17-0.04,0.23-0.19,0.38c-0.15,0.13-0.29,0.181-0.52,0.181
		h-6.3c-0.28,0-0.58,0.06-0.81,0.279c-0.23,0.21-0.31,0.51-0.31,0.79v0.021c0,0.279,0.09,0.569,0.32,0.789
		c0.23,0.211,0.52,0.28,0.81,0.271h6.31c0.75,0,1.44-0.25,2-0.74c0.6-0.489,0.93-1.19,0.93-1.96v-0.02
		C43.772,22.961,43.462,22.271,42.882,21.771z M48.712,17.71h-1.12V16.5c0-0.28-0.08-0.58-0.32-0.8c-0.23-0.21-0.53-0.28-0.81-0.28
		s-0.58,0.07-0.8,0.28c-0.23,0.22-0.31,0.51-0.31,0.79v1.22c-0.25,0.02-0.5,0.09-0.71,0.28c-0.23,0.22-0.31,0.51-0.31,0.79v0.02
		c0,0.28,0.08,0.57,0.31,0.79c0.2,0.19,0.46,0.26,0.71,0.28v5.5c0,0.279,0.08,0.569,0.31,0.789c0.22,0.2,0.49,0.271,0.76,0.28h0.06
		c0.28,0,0.57-0.069,0.79-0.28c0.21-0.199,0.3-0.46,0.31-0.71v-5.57h1.11c0.28,0,0.58-0.07,0.8-0.28c0.23-0.21,0.31-0.51,0.31-0.79
		v-0.03c0-0.28-0.08-0.57-0.31-0.79C49.292,17.771,48.992,17.71,48.712,17.71z M3.782,26.431c0.5-0.79,1.13-1.511,1.86-2.15h-2.44
		c-0.23,0-0.37-0.05-0.53-0.19c-0.14-0.14-0.17-0.199-0.18-0.379V20.42c0.01-0.18,0.04-0.24,0.19-0.38
		c0.16-0.13,0.29-0.18,0.52-0.18h4.47c0.28,0,0.58-0.06,0.81-0.28c0.23-0.22,0.31-0.51,0.31-0.79v-0.03c0-0.28-0.08-0.57-0.31-0.79
		c-0.23-0.21-0.53-0.271-0.8-0.271h-4.47c-0.78,0-1.5,0.26-2.06,0.771c-0.57,0.5-0.88,1.18-0.88,1.93v3.311
		c0,0.75,0.32,1.42,0.89,1.93c0.57,0.51,1.27,0.779,2.05,0.77L3.782,26.431z M60.192,18.48c-0.561-0.51-1.27-0.77-2.05-0.77h-4.49
		c-0.78,0-1.5,0.26-2.06,0.77c-0.57,0.5-0.89,1.18-0.88,1.93v3.31c0,0.74,0.32,1.42,0.89,1.93c0.56,0.51,1.27,0.77,2.04,0.77h4.479
		c0.28,0,0.57-0.06,0.801-0.279c0.229-0.21,0.31-0.5,0.31-0.78V25.34c0-0.279-0.08-0.58-0.31-0.789
		c-0.23-0.221-0.53-0.28-0.811-0.28h-4.47c-0.23,0-0.37-0.05-0.53-0.19c-0.15-0.14-0.17-0.199-0.18-0.38v-0.569h5.39
		c0.67-0.041,1.29-0.291,1.8-0.721c0.6-0.51,0.94-1.2,0.94-1.979V20.4C61.072,19.661,60.762,18.98,60.192,18.48z M58.642,20.811
		c-0.16,0.13-0.29,0.18-0.521,0.19h-5.169v-0.58c0.01-0.18,0.03-0.24,0.19-0.38c0.15-0.13,0.3-0.18,0.52-0.19h4.469
		c0.23,0,0.36,0.05,0.521,0.17c0.149,0.14,0.181,0.22,0.19,0.4C58.822,20.601,58.792,20.67,58.642,20.811L58.642,20.811z
		 M86.182,18.771c0-0.28-0.08-0.57-0.311-0.78c-0.229-0.21-0.529-0.28-0.81-0.28h-1.11v-1.22c0-0.28-0.08-0.58-0.31-0.79
		c-0.229-0.21-0.53-0.28-0.81-0.28c-0.281,0-0.58,0.06-0.811,0.28c-0.23,0.22-0.311,0.51-0.311,0.79v1.21
		c-0.25,0.021-0.5,0.09-0.699,0.28c-0.23,0.22-0.311,0.52-0.311,0.8v0.02c0,0.28,0.08,0.57,0.311,0.79
		c0.199,0.18,0.459,0.26,0.699,0.27v4.181c0.28-0.141,0.601-0.221,0.891-0.19h0.01c0.391,0,0.75,0.1,1.08,0.29l0.26,0.199v-4.469
		h1.11c0.28,0,0.58-0.07,0.81-0.28c0.23-0.21,0.311-0.5,0.311-0.77V18.771L86.182,18.771z M64.512,14.71
		c0-0.28-0.08-0.58-0.311-0.79c-0.23-0.22-0.529-0.29-0.81-0.29s-0.58,0.07-0.81,0.28c-0.23,0.22-0.311,0.51-0.311,0.8v10.64
		c0,0.28,0.08,0.58,0.311,0.79c0.219,0.21,0.5,0.279,0.779,0.279h0.04c0.28,0,0.58-0.069,0.8-0.279
		c0.23-0.221,0.311-0.51,0.311-0.79V14.71z M68.252,14.7c0-0.28-0.09-0.57-0.311-0.78c-0.23-0.21-0.529-0.29-0.811-0.29
		c-0.279,0-0.58,0.07-0.81,0.29s-0.31,0.52-0.31,0.8v10.63c0,0.28,0.08,0.58,0.31,0.8c0.22,0.21,0.511,0.28,0.78,0.29h0.04
		c0.28,0,0.569-0.069,0.8-0.28c0.221-0.21,0.311-0.51,0.311-0.779V14.7L68.252,14.7z M78.942,18.48
		c-0.561-0.51-1.279-0.77-2.061-0.77h-4.479c-0.28,0-0.58,0.06-0.8,0.28c-0.23,0.21-0.32,0.51-0.32,0.78v0.02
		c0,0.28,0.08,0.57,0.311,0.79c0.229,0.21,0.529,0.28,0.81,0.28h4.47c0.23,0,0.36,0.06,0.521,0.19c0.149,0.14,0.17,0.2,0.18,0.38
		v0.56h-5.19c-0.779,0-1.489,0.26-2.06,0.78c-0.569,0.5-0.89,1.19-0.89,1.94v0.02c0,0.75,0.32,1.43,0.89,1.93
		c0.56,0.5,1.261,0.771,2.03,0.771h4.49c0.399,0,0.779-0.07,1.129-0.21c0.191,0.14,0.431,0.21,0.66,0.21h0.041
		c0.279,0,0.569-0.07,0.789-0.271c0.221-0.199,0.301-0.479,0.32-0.729v-5.01C79.822,19.661,79.512,18.98,78.942,18.48z
		 M77.583,23.711c-0.011,0.18-0.041,0.239-0.19,0.39c-0.16,0.13-0.29,0.18-0.521,0.19h-4.47c-0.229,0-0.37-0.051-0.521-0.181
		c-0.149-0.14-0.17-0.21-0.18-0.39c0.01-0.16,0.04-0.24,0.19-0.391c0.159-0.13,0.29-0.18,0.521-0.189h5.18L77.583,23.711z
		 M13.732,20.42c0.01-0.17,0.03-0.24,0.19-0.38c0.15-0.12,0.29-0.18,0.52-0.18h4.47c0.23,0,0.36,0.06,0.52,0.19
		c0.15,0.14,0.18,0.21,0.19,0.38v3.29c-0.01,0.18-0.04,0.24-0.19,0.38c-0.16,0.13-0.29,0.18-0.52,0.18h-4.23l-0.02,0.05l0.16,0.301
		c0.25,0.56,0.42,1.17,0.41,1.76l0.06,0.04h3.64c0.75,0,1.44-0.25,2-0.74c0.6-0.49,0.93-1.19,0.93-1.96v-3.32
		c0-0.75-0.31-1.43-0.89-1.94c-0.56-0.51-1.27-0.771-2.05-0.771h-4.48c-0.78,0-1.5,0.26-2.06,0.771c-0.57,0.5-0.88,1.18-0.88,1.93
		v1.12c0.11-0.04,0.23-0.07,0.35-0.08l0.04-0.02l0.17-0.06l0.09-0.03"/>
	<path fill="#FFFFFF" d="M101.562,20.411c0-0.75-0.32-1.43-0.89-1.93c-0.561-0.51-1.28-0.77-2.061-0.77h-4.48
		c-0.779,0-1.5,0.26-2.06,0.77c-0.569,0.5-0.89,1.18-0.88,1.93v0.24c0.34-0.25,0.74-0.41,1.23-0.41c0.22,0,0.459,0.04,0.689,0.12
		c0.34-0.42,0.87-0.7,1.58-0.7c0.35,0,0.65,0.07,0.92,0.19h3.01c0.23,0,0.371,0.06,0.53,0.19c0.149,0.14,0.17,0.2,0.181,0.38v3.291
		c-0.011,0.18-0.041,0.239-0.19,0.379c-0.16,0.131-0.29,0.181-0.521,0.181h-4.02v0.05c-0.08,0.88-0.551,1.65-1.32,1.98
		c0.27,0.08,0.561,0.119,0.86,0.119h4.5c0.75,0,1.44-0.25,2-0.739c0.601-0.49,0.93-1.19,0.93-1.96L101.562,20.411z M111.902,20.411
		c0-0.75-0.31-1.43-0.88-1.93c-0.561-0.51-1.27-0.77-2.051-0.77h-2.949c-0.4,0-0.78,0.07-1.13,0.2c-0.19-0.14-0.431-0.2-0.671-0.2
		h-0.039c-0.28,0-0.57,0.06-0.79,0.27c-0.229,0.21-0.32,0.51-0.32,0.79v6.601c0,0.279,0.08,0.579,0.32,0.789
		c0.229,0.211,0.521,0.271,0.8,0.271s0.57-0.07,0.811-0.271c0.229-0.209,0.31-0.5,0.319-0.77v-4.96c0.011-0.17,0.04-0.24,0.19-0.38
		c0.16-0.13,0.3-0.18,0.52-0.19h2.95c0.229,0,0.37,0.06,0.521,0.19c0.149,0.14,0.17,0.2,0.189,0.39v4.95
		c0,0.27,0.09,0.57,0.311,0.779c0.229,0.211,0.529,0.28,0.81,0.28s0.569-0.069,0.8-0.27c0.23-0.21,0.311-0.5,0.311-0.78v-4.96
		L111.902,20.411z M31.322,18.48c-0.56-0.51-1.27-0.77-2.05-0.77h-2.96c-0.4,0-0.78,0.07-1.14,0.2c-0.19-0.14-0.43-0.2-0.66-0.2
		h-0.04c-0.28,0-0.57,0.06-0.79,0.27c-0.23,0.21-0.32,0.5-0.32,0.78v6.6c0,0.271,0.08,0.57,0.32,0.78c0.23,0.21,0.52,0.27,0.8,0.27
		s0.57-0.07,0.8-0.27c0.23-0.21,0.32-0.51,0.31-0.78v-4.93c0.01-0.18,0.04-0.24,0.19-0.38c0.16-0.13,0.3-0.18,0.53-0.19h2.94
		c0.23,0,0.37,0.06,0.52,0.19c0.15,0.14,0.18,0.2,0.19,0.38v4.94c0,0.279,0.09,0.569,0.32,0.779s0.52,0.28,0.81,0.28
		c0.28,0,0.57-0.07,0.8-0.271c0.23-0.209,0.31-0.5,0.32-0.779v-4.96C32.212,19.661,31.892,18.98,31.322,18.48z"/>
</g>
<g>
	<path fill="#FFFFFF" d="M79.791,30.535h-1.97v1.279h2.166V32.8h-3.396v-5.317h3.248v0.985h-2.067v1.083h1.969v0.984H79.791z"/>
	<path fill="#FFFFFF" d="M80.824,30.141c0-0.492,0-0.886-0.05-1.229h1.035l0.049,0.541l0,0c0.147-0.246,0.541-0.64,1.182-0.64
		c0.787,0,1.378,0.541,1.378,1.672v2.266h-1.181v-2.117c0-0.492-0.197-0.836-0.592-0.836c-0.344,0-0.541,0.246-0.59,0.441
		c-0.05,0.099-0.05,0.198-0.05,0.297v2.215h-1.182V30.141L80.824,30.141z"/>
	<path fill="#FFFFFF" d="M86.732,27.876v1.035h0.836v0.886h-0.836v1.378c0,0.442,0.098,0.688,0.491,0.688
		c0.148,0,0.246,0,0.345-0.049V32.7c-0.146,0.05-0.442,0.099-0.787,0.099c-0.395,0-0.69-0.148-0.888-0.345
		c-0.195-0.246-0.343-0.591-0.343-1.132v-1.576h-0.492V28.86h0.492v-0.738L86.732,27.876z"/>
	<path fill="#FFFFFF" d="M88.257,30.19c0-0.591,0-0.936-0.049-1.28h1.034l0.049,0.688h0.05c0.195-0.591,0.64-0.786,1.034-0.786
		c0.098,0,0.147,0,0.246,0v1.132c-0.099,0-0.196-0.05-0.345-0.05c-0.442,0-0.739,0.246-0.836,0.59c0,0.099,0,0.197,0,0.246v1.97
		h-1.183L88.257,30.19L88.257,30.19z"/>
	<path fill="#FFFFFF" d="M92.147,31.225c0.049,0.492,0.541,0.738,1.082,0.738c0.395,0,0.738-0.05,1.085-0.148l0.146,0.837
		c-0.394,0.148-0.886,0.246-1.378,0.246c-1.329,0-2.068-0.738-2.068-1.969c0-0.984,0.59-2.067,1.97-2.067
		c1.229,0,1.723,0.984,1.723,1.919c0,0.198,0,0.395-0.049,0.493h-2.511V31.225L92.147,31.225z M93.575,30.437
		c0-0.296-0.149-0.788-0.689-0.788c-0.492,0-0.689,0.442-0.738,0.788H93.575z"/>
	<path fill="#FFFFFF" d="M95.396,30.238c0-0.491,0-0.934-0.05-1.278h1.034l0.048,0.541l0,0c0.297-0.394,0.739-0.64,1.282-0.64
		c0.837,0,1.624,0.738,1.624,1.969c0,1.428-0.886,2.067-1.772,2.067c-0.442,0-0.837-0.196-0.985-0.442l0,0v1.92h-1.18L95.396,30.238
		L95.396,30.238z M96.577,31.126c0,0.099,0,0.196,0,0.246c0.098,0.345,0.344,0.591,0.69,0.591c0.541,0,0.836-0.442,0.836-1.084
		c0-0.59-0.295-1.082-0.836-1.082c-0.347,0-0.641,0.246-0.739,0.59c0,0.05,0,0.148,0,0.196v0.543H96.577z"/>
	<path fill="#FFFFFF" d="M100.073,30.19c0-0.591,0-0.936-0.049-1.28h1.032l0.05,0.688h0.05c0.196-0.591,0.64-0.786,1.035-0.786
		c0.098,0,0.147,0,0.246,0v1.132c-0.099,0-0.197-0.05-0.345-0.05c-0.444,0-0.739,0.246-0.838,0.59c0,0.099,0,0.197,0,0.246v1.97
		h-1.181L100.073,30.19L100.073,30.19z"/>
	<path fill="#FFFFFF" d="M104.355,27.876c0,0.345-0.246,0.592-0.64,0.592s-0.64-0.247-0.64-0.592s0.246-0.591,0.64-0.591
		S104.305,27.531,104.355,27.876z M103.076,32.8v-3.84h1.182v3.84H103.076z"/>
	<path fill="#FFFFFF" d="M105.242,31.766c0.196,0.147,0.688,0.295,1.033,0.295s0.492-0.098,0.492-0.295s-0.099-0.295-0.541-0.443
		c-0.788-0.246-1.133-0.689-1.082-1.182c0-0.738,0.59-1.279,1.574-1.279c0.442,0,0.838,0.099,1.084,0.246l-0.197,0.837
		c-0.197-0.099-0.493-0.197-0.838-0.197c-0.295,0-0.442,0.099-0.442,0.296c0,0.195,0.147,0.295,0.64,0.441
		c0.739,0.246,1.033,0.642,1.033,1.183c0,0.738-0.54,1.23-1.672,1.23c-0.492,0-0.935-0.098-1.231-0.296L105.242,31.766z"/>
	<path fill="#FFFFFF" d="M109.623,31.225c0.049,0.492,0.542,0.738,1.084,0.738c0.394,0,0.737-0.05,1.083-0.148l0.146,0.837
		c-0.394,0.148-0.886,0.246-1.378,0.246c-1.33,0-2.068-0.738-2.068-1.969c0-0.984,0.592-2.067,1.971-2.067
		c1.229,0,1.722,0.984,1.722,1.919c0,0.198,0,0.395-0.05,0.493h-2.51V31.225L109.623,31.225z M111.001,30.437
		c0-0.296-0.147-0.788-0.689-0.788c-0.493,0-0.688,0.442-0.739,0.788H111.001z"/>
</g>
</svg>
