<?xml version="1.0" encoding="utf-8"?>
<!-- Generator: Adobe Illustrator 15.1.0, SVG Export Plug-In . SVG Version: 6.00 Build 0)  -->
<!DOCTYPE svg PUBLIC "-//W3C//DTD SVG 1.1//EN" "http://www.w3.org/Graphics/SVG/1.1/DTD/svg11.dtd">
<svg version="1.1" id="Calque_1" xmlns="http://www.w3.org/2000/svg" xmlns:xlink="http://www.w3.org/1999/xlink" x="0px" y="0px"
	 width="41.9px" height="45px" viewBox="0 0 41.9 45" enable-background="new 0 0 41.9 45" xml:space="preserve">
<path opacity="0.7" fill="#B1C9D1" enable-background="new    " d="M0.1,37.5L0,40.1c3.3,2.2,7.3,3.5,11.601,3.5
	C23,43.6,32.2,34.4,32.2,23c0-6.5-3-12.3-7.7-16.1C24,6.4,23.5,6,23,5.8l-0.2-0.1L23,5.8l-0.3-0.2c0-0.1-0.1-0.1-0.1-0.1
	S22.5,5.4,22.4,5.4c0-0.1-0.101-0.1-0.101-0.1C22.2,5.2,22.1,5.1,22,5.1l0.3,0.2L21.8,5c-0.199,0-0.3-0.1-0.5-0.2c0,0,0-0.1-0.1-0.1
	c-0.302-0.2-0.5-0.3-0.802-0.4c-2.601-1.2-5.601-1.9-8.7-1.9C7.4,2.4,3.4,3.7,0.1,5.9v1.9C1.8,8.2,2.2,9.9,3.3,10.9L2.9,12
	c-0.3-0.2-0.601-0.3-1-0.2c-0.101,0.1-0.5,1.3,0.2,1.1c0-0.5,0-0.8-0.2-1c1,0.7,1.1,2.4,2.7,2.5c0,0.5,0.6,0.2,0.6,0.6
	c-0.2,0.4-0.7,0.6-0.6,1.3h1.3c0.6,0.1,0.3,1.1,0.6,1.5c0,0.3-0.2,0.4-0.2,0.6H4.6C4.5,18.2,4.4,18.1,4.2,18v-0.8
	c-0.6-0.3-1-0.8-1.7-1c-0.3,0.1-0.2,0.5-0.2,0.8c-0.199-0.8-2.3,0.9-1,1.1c-0.6,0.6-0.8-0.5-1.3-0.6v2.6c0.601-0.3,1-0.8,1.7-0.9
	v-0.8c1.4-0.5,5-0.2,4.9,2.1c2.1,0.8,1.1,2.8,1.699,4.6C7.6,25.7,7.3,26.7,6.4,27.2c-1.2-0.2-2,0-3.2-0.4c0.1,0.7-0.6,0.5-0.9,0.8
	C2.4,29.902,0.6,31.1,1.9,32.902c-0.601,1.3-0.601,3.199-1.101,4.6L0.1,37.5z M5.7,14.3l-0.8-0.2c-0.601,0.1-0.5-0.3-1-0.2v-0.4
	c0.8-0.4,0.5-1.9,1.5-2.1C5.8,12.5,4.8,13.3,5.7,14.3z M6.5,13.7h-1c0-0.4,0-0.9,0.2-1.1C6.3,12.6,6.6,13,6.5,13.7z M21.7,5.5
	c-0.5,0.2-1.2,0.1-2.1,0C19.2,4.8,18.7,4.2,18,3.8c1,0.3,1.9,0.7,2.8,1.2H20c0.4,0.4,0.8,0.3,1.101,0.1C21.4,5.3,21.6,5.4,21.7,5.5z
	 M22.8,6.5c-0.5-0.1-0.899-0.4-1.1-0.8c0.2,0,0.3,0,0.3-0.1C22.2,5.8,22.4,5.9,22.6,6C22.6,6.2,22.7,6.3,22.8,6.5z M12.6,29.5
	c1.199-0.4,2.199-1.2,3.6-1.5v-0.9C17,26.4,18.4,26.4,18.7,25.2c1.3,0,2.1-0.2,2.5-0.601c0.7,0.2,0.7,0.9,1.5,1
	c0-0.199,0.3-0.199,0.4-0.199c1-0.101,0.699-0.9,0.6-1.7c0.3-0.101,1,0.2,1-0.2s-0.1-0.7-0.4-0.9c0.101-0.7,1.2-0.4,1.101,0.2h0.2
	c3-0.7-0.2-3.9-1.9-2.9c-0.2,0.5-0.3,1.1-0.8,1.3c-0.601-0.4,0.2-1.5-0.2-1.7c-0.3-0.4-0.4-0.8-1-0.8c-0.3-2.1-2.7-2.8-3.6-3.4v-0.2
	c0-0.2,0.199-0.2,0.399-0.2c0.101,0,0.2,0,0.2-0.2c0.1-0.5-0.4-0.5-0.2-1c-0.6,0.8-1.2-0.2-1.899-0.4c0.1,0.3,0.3,0.5,0.6,0.6
	c0.1,0.2,0.5,1-0.2,0.8c-0.399,0-0.5,0.3-1.1,0.2c0.3-1.7,1.3-2.6,1.899-4.4l0.801,0.4c0.699,0.1,0.3-1,0.8-1.1
	C20,9.9,20.3,9.4,20.5,9.4c0,0.1,0,0.2,0.2,0.2c-0.1,2.5,0.5,2.1,1.1,3.6c0-0.4,0.301-0.5,0.2-1.1c0.3,0,0.4-0.1,0.601-0.2
	c0.6-0.2,1.3-0.4,1.5-1.1c-0.601-0.6-1-1.4-1.9-1.7c0.1,0.5-0.8,0.9-0.8,0.6c0.2,0,0.2-0.4,0-0.4c-0.3,0-0.4,0.1-0.601,0.2
	C20.7,9.1,21,9,21.4,8.7c-0.2-0.5-1-0.5-0.8-1.3C21.3,7.1,20,7.2,19.7,7.2l-0.4,1C19.3,8.8,19.9,8.8,20.4,9c-0.9,0.2-1.4,0.7-2,1.2
	c-0.5-0.4,0.3-0.7-0.601-0.4c0-0.5,0-1,0.4-1C18,8.2,17.6,9,17.4,9c-0.2-0.1-0.2-0.5-0.601-0.4c1.101-1,1.101-2.4,3-2.3
	C20.4,6.1,19.2,6.1,19,6.1C19.1,5.8,19.6,6,19.6,5.7c0.699,0.4,2.3-0.1,2.3,0.9c0.1,0.7-0.8,0.3-0.601,1c0.2,0.1,0.4,0.2,0.4,0.4
	c0.3-0.7,0.9-0.2,1-1.1c0.3,0,0.4,0.2,0.6,0.2c0.2,0.6-0.3,0.5-0.199,1c0.8-0.9,0.8,0.6,2.1,0.2c-0.3-0.4-1-0.3-1-0.8l0.1-0.1
	c3,2.4,5.4,5.8,6.601,9.6c-0.101,2-0.601,4-1.898,5.3l0.4-1.3c-0.601,0.4-1,1-0.9,2.1c-1.899,1.4-4.6,2.101-6,4.101
	c0.2,0.5,0.601,0.899,0.9,1.3C24,31,21,32.2,20.598,34.3c-0.5,2.7,0.8,5.4,0,6.9c-0.5,0.3-1,0.5-1.5,0.7
	C18.798,40.3,19.298,39.1,17.298,38.6c-0.1-0.6,0.301-0.5,0.2-1c-1.1,0.301-1.899-1.3-2.1-2.5c-0.5-0.3-1-0.6-1.5-0.8
	c0-2-1.101-2.8-1.3-4.8H12.6z M21.5,23.3c-0.399,0.101-1.2,0.4-1.1-0.4C20.9,22.8,21.4,22.9,21.5,23.3z M21.5,22.9
	c0.5-0.5,1.8-1.6,2.3-0.8C22.7,22,22.6,22.9,21.5,22.9z M12.7,9.3c-0.9-1.2-2.8-1.4-4.2-2.1c0.9-0.7-0.7-1.5,0-2.3
	C8.4,4.6,8.2,5,7.9,4.9c0-0.4,0.3-0.5,0.2-1.1C7.7,3.8,7.6,3.4,7.3,3.3l0.9-0.2h0.398V3c1-0.1,2-0.2,3.1-0.2c1.8,0,3.6,0.3,5.2,0.7
	h-0.101c-0.1,0.7,0.801,0.4,1.101,0.6c-0.5,1.4-3.601,0.7-2.7,3.2c0,0.2-0.2,0.2-0.3,0.1c0.399,0.9,0.2,3.1-1.2,3.5
	C13.2,10.5,13,9.8,12.7,9.3z M12.4,11.6c-0.2,0.3-0.8,0.1-0.8,0.4c0.1,0,0.199,0.2,0,0.2c-0.7-0.4-1.601-0.5-1.9-1.3
	C9.5,8.8,12.6,9.3,12.4,11.6z M8.6,9.8C7.8,9.8,7.1,9.7,7.1,9L7.3,8.6C8.1,8.8,8.4,8.8,9.2,8.6C9.2,9.2,8.8,9.3,8.6,9.8z"/>
</svg>
