<?xml version="1.0" encoding="utf-8"?>
<!-- Generator: Adobe Illustrator 15.1.0, SVG Export Plug-In . SVG Version: 6.00 Build 0)  -->
<!DOCTYPE svg PUBLIC "-//W3C//DTD SVG 1.1//EN" "http://www.w3.org/Graphics/SVG/1.1/DTD/svg11.dtd">
<svg version="1.1" id="Calque_1" xmlns="http://www.w3.org/2000/svg" xmlns:xlink="http://www.w3.org/1999/xlink" x="0px" y="0px"
	 width="43.3px" height="33.4px" viewBox="0 0 43.3 33.4" enable-background="new 0 0 43.3 33.4" xml:space="preserve">
<path opacity="0.7" fill="#F4F0EA" d="M39.9,33.7l3.4-28.8L4.1,0L0,33.7H39.9z"/>
<path opacity="0.7" fill="#DEDDD9" d="M9.712,7.204L3.26,6.417l0.787-6.452l6.452,0.787L9.712,7.204z M15.438,14.489l-6.452-0.787
	L9.773,7.25l6.452,0.787L15.438,14.489z M8.165,20.116l-6.452-0.787L2.5,12.877l6.452,0.787L8.165,20.116z M22.613,8.85
	l-6.452-0.787l0.787-6.452L23.4,2.398L22.613,8.85z M21.065,21.76l-6.453-0.785l0.786-6.453l6.453,0.786L21.065,21.76z
	 M13.792,27.389L7.34,26.602l0.787-6.452l6.452,0.787L13.792,27.389z M28.35,16.037l-6.453-0.786l0.786-6.453l6.453,0.786
	L28.35,16.037z M35.523,10.398L29.07,9.612l0.786-6.453l6.453,0.786L35.523,10.398z M6.618,33.028l-6.452-0.787l0.787-6.452
	l6.452,0.787L6.618,33.028z M10.8,33.7l-4.2-0.6l-0.1,0.6H10.8z M19.6,33.7l0.7-5.5l-6.5-0.8l-0.7,6.3H19.6z"/>
<path opacity="0.7" fill="#F4F0EA" d="M39.8,33.7l3.5-28.9l-7.6-0.899L11.4,33.7H39.8z"/>
<path opacity="0.7" fill="#DEDDD9" d="M26.1,25.8l-3.7-0.5l0.5-3.699l3.7,0.5L26.1,25.8z M37.9,33L34.3,32.6l0.4-3.7l3.6,0.5
	L37.9,33z M37.201,12.3L33.6,11.9L34,8.3L37.6,8.8L37.201,12.3z M41.5,20.1l-0.299,2.1L35.6,17.9l-9.8,15.8h-2.4L35.3,15L41.5,20.1z
	"/>
</svg>
