<?xml version="1.0" encoding="utf-8"?>
<!-- Generator: Adobe Illustrator 15.1.0, SVG Export Plug-In . SVG Version: 6.00 Build 0)  -->
<!DOCTYPE svg PUBLIC "-//W3C//DTD SVG 1.1//EN" "http://www.w3.org/Graphics/SVG/1.1/DTD/svg11.dtd">
<svg version="1.1" id="Calque_1" xmlns="http://www.w3.org/2000/svg" xmlns:xlink="http://www.w3.org/1999/xlink" x="0px" y="0px"
	 width="41.9px" height="45px" viewBox="0 0 41.9 45" enable-background="new 0 0 41.9 45" xml:space="preserve">
<g opacity="0.7">
	<path fill="#B2DBD3" d="M25.62,37.3c-2.1-1.899-2.3-5-0.5-7.1c1.8-2.101,5-2.3,7.101-0.5c2.1,1.899,2.3,5,0.5,7.1
		C30.92,38.9,27.72,39.1,25.62,37.3z M26.22,24.7L25.62,22c-6,1.2-9.8,7.1-8.5,13.1l2.7-0.6C18.92,30,21.72,25.6,26.22,24.7z"/>
	<path opacity="0.75" fill="#B2DBD3" enable-background="new    " d="M22.22,17.3l-0.603-2.7c-9,1.9-14.7,10.7-12.8,19.7l2.7-0.6
		c-1.599-7.5,3.199-14.8,10.699-16.4H22.22z"/>
	<path opacity="0.5" fill="#B2DBD3" enable-background="new    " d="M18.02,10l-0.5-2.8C5.42,9.8-2.28,21.6,0.32,33.6l2.8-0.6
		C0.92,22.5,7.62,12.2,18.02,10z"/>
</g>
<path opacity="0.7" fill="#B2DBD3" enable-background="new    " d="M-0.18,7.3v4.1c3.5-4.3,8.4-7.5,14.2-8.7L13.42,0
	C8.02,1.1,3.42,3.7-0.18,7.3L-0.18,7.3z"/>
</svg>
