<?xml version="1.0" encoding="utf-8"?>
<!-- Generator: Adobe Illustrator 15.1.0, SVG Export Plug-In . SVG Version: 6.00 Build 0)  -->
<!DOCTYPE svg PUBLIC "-//W3C//DTD SVG 1.1//EN" "http://www.w3.org/Graphics/SVG/1.1/DTD/svg11.dtd">
<svg version="1.1"
	 id="Calque_1" xmlns:dc="http://purl.org/dc/elements/1.1/" xmlns:cc="http://creativecommons.org/ns#" xmlns:rdf="http://www.w3.org/1999/02/22-rdf-syntax-ns#" xmlns:svg="http://www.w3.org/2000/svg" xmlns:inkscape="http://www.inkscape.org/namespaces/inkscape" sodipodi:docname="constellation-about.svg" inkscape:version="0.48.4 r9939" xmlns:sodipodi="http://sodipodi.sourceforge.net/DTD/sodipodi-0.dtd"
	 xmlns="http://www.w3.org/2000/svg" xmlns:xlink="http://www.w3.org/1999/xlink" x="0px" y="0px" width="930px" height="432px"
	 viewBox="0 0 930 432" enable-background="new 0 0 930 432" xml:space="preserve">
<sodipodi:namedview  fit-margin-bottom="0" fit-margin-right="0" id="namedview689" inkscape:current-layer="Calque_1" inkscape:cx="574.39545" inkscape:window-width="1754" bordercolor="#666666" inkscape:pageshadow="2" inkscape:zoom="0.7553799" inkscape:window-y="0" gridtolerance="10" showgrid="false" objecttolerance="10" borderopacity="1" inkscape:window-height="1054" pagecolor="#ffffff" guidetolerance="10" inkscape:cy="27.272083" fit-margin-top="0" inkscape:window-x="166" inkscape:window-maximized="1" fit-margin-left="0" inkscape:pageopacity="0">
	</sodipodi:namedview>
<g opacity="0.15">
	<g>
		<g>
			<g opacity="0.5">
				<polygon fill="#00AAAA" points="133.61,161.03 158.28,146.2 91.49,107.94 91.5,136.76 				"/>
			</g>
			<g>
				<g>
					<g>
						<polygon fill="#00AAAA" points="131.34,174.7 79.81,144.94 79.82,115.68 3.14,159.95 3.14,248.5 79.82,292.75 156.49,248.5 
							156.49,160.14 						"/>
					</g>
				</g>
			</g>
		</g>
	</g>
	<path fill="#00AAAA" d="M257.24,322.75h9.02v-20.34h21.06v-7.85h-21.06v-13.39h24.67v-7.84h-33.69V322.75z M332.31,283.4
		c-0.71-1.82-1.89-3.56-3.52-5.16c-3.74-3.5-8.38-5.29-13.81-5.29c-5.42,0-10.05,1.79-13.75,5.3c-1.27,1.23-2.26,2.5-2.95,3.81
		c-0.69,1.29-1.19,2.69-1.48,4.18c-0.3,1.43-0.49,3.07-0.57,4.81c-0.08,1.7-0.13,4.06-0.13,6.99c0,3.81,0.08,6.78,0.25,8.83
		c0.16,2.08,0.61,4.04,1.33,5.84c0.73,1.82,1.92,3.55,3.56,5.15c3.7,3.52,8.33,5.3,13.75,5.3c5.43,0,10.07-1.79,13.83-5.33
		c1.59-1.57,2.76-3.31,3.48-5.15c0.72-1.82,1.16-3.78,1.31-5.87c0.15-2,0.23-4.96,0.23-8.77c0-3.81-0.08-6.77-0.23-8.79
		C333.45,287.17,333.02,285.2,332.31,283.4z M324.66,305.51c-0.14,1.82-0.43,3.26-0.83,4.3c-0.39,1.02-0.98,1.93-1.75,2.71
		c-1.83,1.84-4.22,2.78-7.09,2.78c-1.37,0-2.7-0.26-3.95-0.75c-1.24-0.49-2.31-1.17-3.15-2.01c-0.68-0.75-1.17-1.42-1.47-2
		c-0.3-0.59-0.55-1.44-0.77-2.52c-0.23-1.1-0.38-2.41-0.46-3.9c-0.08-1.5-0.12-3.54-0.12-6.1c0-4.72,0.18-8.07,0.56-9.95
		c0.36-1.8,1.12-3.33,2.25-4.53c0.82-0.83,1.87-1.5,3.14-2.01c1.27-0.5,2.61-0.76,3.98-0.76c1.35,0,2.67,0.26,3.95,0.76
		c1.27,0.51,2.32,1.18,3.13,2.01c1.14,1.15,1.89,2.67,2.25,4.5c0.38,1.91,0.56,5.26,0.56,9.98
		C324.88,301.15,324.81,303.65,324.66,305.51z M376.67,296.75c1.96-2.33,2.95-5.24,2.95-8.69c0-2.83-0.68-5.4-2.03-7.62
		c-1.34-2.21-3.29-3.97-5.79-5.22c-2.48-1.25-5.36-1.87-8.54-1.87h-20.33v49.41h9.03v-20.24h8.57l10.67,20.24h10.41l-11.77-21.52
		C372.6,300.37,374.9,298.86,376.67,296.75z M362.69,294.97h-10.73v-13.79h10.73c2.45,0,4.42,0.63,5.86,1.87
		c1.43,1.24,2.12,2.89,2.12,5.07c0,2.12-0.7,3.75-2.15,4.98C367.09,294.34,365.12,294.97,362.69,294.97z M437.56,277.69
		c-1.48-1.37-3.3-2.45-5.44-3.21c-2.14-0.75-4.45-1.14-6.89-1.14h-19.88v49.41h9.02v-18.92h10.88c3.3,0,6.27-0.66,8.83-1.97
		c2.57-1.32,4.59-3.16,5.95-5.46c1.38-2.3,2.07-4.93,2.07-7.83c0-2.21-0.39-4.26-1.16-6.08
		C440.18,280.67,439.03,279.05,437.56,277.69z M430.95,293.96c-1.5,1.3-3.55,1.96-6.11,1.96h-10.46v-14.74h10.46
		c2.54,0,4.59,0.67,6.09,1.99c1.51,1.31,2.24,3.09,2.24,5.41C433.17,290.9,432.44,292.66,430.95,293.96z M483.22,296.75
		c1.96-2.33,2.96-5.24,2.96-8.69c0-2.83-0.68-5.4-2.03-7.62c-1.35-2.21-3.29-3.97-5.79-5.22c-2.48-1.25-5.36-1.87-8.56-1.87h-20.32
		v49.41h9.02v-20.24h8.57l10.68,20.24h10.42l-11.78-21.52C479.14,300.37,481.45,298.86,483.22,296.75z M469.23,294.97H458.5v-13.79
		h10.73c2.46,0,4.43,0.63,5.87,1.87c1.43,1.24,2.12,2.89,2.12,5.07c0,2.12-0.7,3.75-2.15,4.98
		C473.63,294.34,471.66,294.97,469.23,294.97z M495.29,322.75h9.02v-49.41h-9.02V322.75z M542.06,273.34L530.85,307l-11.19-33.65
		h-9.34l16.94,48.98l0.15,0.43h6.92l17.22-49.41H542.06z M573.09,273.34h-7.06l-19.07,49.41h9.57l3.47-9.67h19.11l3.47,9.67h9.56
		l-18.92-49L573.09,273.34z M562.76,305.6l6.96-18.87l6.78,18.87H562.76z M588.95,281.18h13.97v41.57h8.96v-41.57h13.94v-7.84
		h-36.87V281.18z M632.92,322.75h33.69v-7.84h-24.68v-13.19h21.06v-7.77h-21.06v-12.77h24.68v-7.84h-33.69V322.75z M699.38,288.14
		c0.22-1.11,0.5-2.01,0.84-2.66c0.34-0.66,0.83-1.33,1.46-1.97c0.83-0.86,1.88-1.52,3.09-2c1.25-0.48,2.56-0.72,3.98-0.72
		c2.52,0,4.65,0.7,6.26,2.08c1.65,1.39,2.76,3.29,3.33,5.67l0.12,0.49h9.12l-0.13-0.75c-0.92-4.89-3.05-8.72-6.37-11.35
		c-3.3-2.64-7.46-3.98-12.32-3.98c-2.69,0-5.22,0.46-7.54,1.35c-2.31,0.89-4.41,2.22-6.22,3.95c-1.27,1.23-2.27,2.5-2.95,3.81
		c-0.68,1.29-1.19,2.69-1.49,4.18c-0.29,1.43-0.47,3.07-0.56,4.81c-0.08,1.71-0.13,4.06-0.13,6.99c0,3.81,0.09,6.78,0.25,8.83
		c0.17,2.08,0.61,4.04,1.33,5.84c0.72,1.82,1.93,3.55,3.55,5.15c1.15,1.09,2.47,2.06,3.95,2.87c1.49,0.82,3.07,1.43,4.66,1.82
		c1.61,0.4,3.34,0.61,5.16,0.61c2.32,0,4.57-0.34,6.66-1c2.09-0.66,3.97-1.64,5.59-2.93c1.63-1.29,3.01-2.92,4.12-4.84
		c1.1-1.91,1.88-4.12,2.32-6.58l0.12-0.74h-9.04l-0.11,0.49c-0.37,1.53-1.01,2.9-1.88,4.09c-0.87,1.15-1.95,2.07-3.25,2.7
		c-1.29,0.64-2.82,0.96-4.53,0.96c-1.41,0-2.73-0.26-3.98-0.74c-1.2-0.47-2.26-1.14-3.07-1.95c-0.62-0.73-1.14-1.43-1.48-2.06
		c-0.34-0.63-0.62-1.53-0.84-2.65c-0.22-1.16-0.38-2.46-0.46-3.88c-0.08-1.44-0.12-3.45-0.12-6c0-2.55,0.04-4.58,0.12-6.02
		C699,290.59,699.15,289.28,699.38,288.14z M744.3,273.34h-9.02v49.41h33.42v-7.84h-24.4V273.34z M809.76,283.4
		c-0.71-1.82-1.89-3.56-3.52-5.16c-3.75-3.5-8.38-5.29-13.81-5.29c-5.41,0-10.05,1.79-13.75,5.3c-1.27,1.23-2.26,2.5-2.95,3.81
		c-0.69,1.29-1.19,2.69-1.49,4.18c-0.29,1.43-0.49,3.07-0.57,4.81c-0.08,1.7-0.12,4.06-0.12,6.99c0,3.81,0.08,6.78,0.24,8.83
		c0.17,2.08,0.61,4.04,1.33,5.84c0.73,1.82,1.92,3.55,3.56,5.15c3.69,3.52,8.33,5.3,13.75,5.3c5.43,0,10.07-1.79,13.83-5.33
		c1.59-1.57,2.76-3.31,3.48-5.15c0.72-1.82,1.17-3.78,1.32-5.87c0.15-2,0.23-4.96,0.23-8.77c0-3.81-0.08-6.77-0.23-8.79
		C810.9,287.17,810.47,285.2,809.76,283.4z M802.11,305.51c-0.15,1.82-0.42,3.26-0.83,4.3c-0.4,1.02-0.99,1.93-1.74,2.71
		c-1.84,1.84-4.24,2.78-7.1,2.78c-1.37,0-2.69-0.26-3.95-0.75c-1.25-0.49-2.32-1.17-3.16-2.01c-0.66-0.75-1.16-1.42-1.46-2
		c-0.3-0.59-0.57-1.44-0.78-2.52c-0.22-1.1-0.38-2.41-0.47-3.9c-0.08-1.5-0.11-3.54-0.11-6.1c0-4.72,0.19-8.07,0.55-9.95
		c0.37-1.8,1.12-3.33,2.25-4.53c0.82-0.83,1.87-1.5,3.13-2.01c1.28-0.5,2.62-0.76,3.99-0.76c1.35,0,2.68,0.26,3.96,0.76
		c1.27,0.51,2.31,1.18,3.13,2.01c1.14,1.15,1.89,2.67,2.25,4.5c0.38,1.91,0.57,5.26,0.57,9.98
		C802.33,301.15,802.25,303.65,802.11,305.51z M848.5,305.51c0,2.02-0.42,3.78-1.23,5.24c-0.8,1.43-1.95,2.57-3.42,3.36
		c-1.48,0.8-3.25,1.2-5.25,1.2c-1.99,0-3.75-0.4-5.22-1.2c-1.46-0.79-2.61-1.93-3.4-3.37c-0.79-1.48-1.21-3.24-1.21-5.23v-32.17
		h-8.94v32.52c0,3.37,0.82,6.4,2.45,9.02c1.63,2.63,3.9,4.68,6.74,6.11c2.86,1.42,6.07,2.15,9.58,2.15c3.54,0,6.77-0.73,9.62-2.15
		c2.86-1.44,5.13-3.49,6.76-6.11c1.63-2.62,2.47-5.65,2.47-9.02v-32.52h-8.95V305.51z M904.61,288.7c-0.21-1.9-0.72-3.81-1.49-5.64
		c-0.78-1.84-1.96-3.53-3.54-5.02c-3.28-3.11-7.84-4.7-13.54-4.7h-18.46v49.41h18.46c5.7,0,10.26-1.58,13.54-4.7
		c1.57-1.5,2.76-3.24,3.54-5.18c0.78-1.93,1.27-3.9,1.49-5.88c0.21-1.95,0.32-4.26,0.32-6.87v-4.85
		C904.93,292.77,904.83,290.56,904.61,288.7z M895.53,307.11c-0.28,2.01-0.97,3.6-2.08,4.76c-1.93,2.01-4.68,3.03-8.16,3.03h-8.68
		v-33.73h8.68c3.46,0,6.2,1.04,8.15,3.07c0.73,0.79,1.31,1.8,1.67,3.02c0.4,1.27,0.64,2.65,0.72,4.08c0.09,1.51,0.15,3.65,0.15,6.38
		C895.98,301.84,895.83,304.99,895.53,307.11z"/>
	<g>
		<path fill="#ECECEC" d="M451.09,159.87c-9.95,0-16.34,3.72-19.51,11.36l-33.76,80.4h23.92l8.62-20.56h41.29l8.6,20.56h23.94
			l-33.75-80.4C467.23,163.58,460.92,159.87,451.09,159.87z M437,216.01l12.04-39.09l16.25,39.09H437z"/>
		<path fill="#ECECEC" d="M227.89,177.11c1.07-0.23,1.37-0.37,1.41-0.38l0.43-0.22h37.48l8.2-16.11h-52.39
			c-13.88,0-21.67,4.8-23.79,14.68c-0.32,1.43-0.49,2.69-0.49,3.79v54.56c0,11.9,9.21,17.68,28.14,17.68h40.32l8.2-16.38h-44.48
			c-7.96-0.59-9.13-5.53-9.13-8.43v-12.64h41.31l8.2-16.37h-49.52v-12.64C221.81,180.93,223.98,178.26,227.89,177.11z"/>
		<path fill="#ECECEC" d="M633.96,163.26c-3.94-3.03-9.25-4.58-15.78-4.58c-2.35,0-4.73,0.17-7.09,0.51
			c-7.62,1.28-12.26,4.69-14.12,10.44L577.31,231l-17.73-61.44c-1.64-5.7-6.32-9.1-14.3-10.37c-2.31-0.33-4.63-0.51-6.88-0.51
			c-6.65,0-12,1.55-15.95,4.58c-3.83,2.95-5.7,6.63-5.7,11.26v76.2h21.85v-78.53l23.58,69.13c2.63,7.74,7.83,11.5,15.93,11.5
			c6.45,0,10.87-2.01,13.54-6.15c1.1-1.5,1.94-3.24,2.57-5.28l23.77-69.1v78.44h21.66v-76.2
			C639.65,169.89,637.79,166.2,633.96,163.26z"/>
		<path fill="#ECECEC" d="M283.67,251.43l39.23-46.7l-37.24-44.67h30.59l19.95,25.63l21.27-25.63h30.59l-37.24,44.67l39.24,46.7
			h-30.61l-23.42-28.17l-21.77,28.17H283.67z"/>
		<path fill="#ECECEC" d="M661.07,216.2v-57.23h25.76v57.23H661.07z"/>
		<path fill="#ECECEC" d="M710.11,251.3v-73.34c0-5.58,1.74-10.15,5.23-13.71c3.5-3.55,7.87-5.33,13.12-5.33
			c2.39,0,4.81,0.33,7.31,1.02c6.1,2.03,12.32,13.95,12.32,13.95l32,52.79v-66.74h21.07v75.63c0,4.74-1.71,8.71-5.15,11.93
			c-3.45,3.21-7.75,4.9-12.9,5.06c-9.94,0.34-19.63-15.47-19.63-15.47l-32.16-52.54v66.74H710.11z"/>
		<path fill="#ECECEC" d="M817.99,251.43v-91.37h61.17c17.18,0,25.77,6.69,25.77,20.05v51.27c0,0.85-0.11,1.95-0.34,3.29
			c-1.77,11.18-9.92,16.75-24.43,16.75H817.99z M843.75,231.64h26.44c2.88,0,4.77-0.17,5.64-0.51c1.78-0.85,2.83-2.88,3.16-6.09
			c0.11-0.17,0.17-0.59,0.17-1.27v-39.85c-0.77-2.87-3.82-4.31-9.14-4.31h-26.27V231.64z"/>
	</g>
	<path fill="#00AAAA" d="M686.83,239.69c0,7.11-5.76,12.88-12.88,12.88c-7.12,0-12.88-5.77-12.88-12.88
		c0-7.12,5.76-12.89,12.88-12.89C681.07,226.8,686.83,232.58,686.83,239.69z"/>
	<path id="text1326_2_" fill="#FFFFFF" d="M80.71,209.97c4.13-3.97,8.1-7.34,11.91-10.11c3.82-2.82,7.03-4.71,9.64-5.64
		c2.61-0.95,5.46-1.4,8.54-1.4c6.49,0,11.71,2.17,15.69,6.5c4.02,4.29,6.04,9.48,6.04,15.6c0,4.19-0.9,8.04-2.68,11.59
		c-1.76,3.56-4.3,6.25-7.6,8.09c-3.23,1.82-6.98,2.74-11.21,2.74c-5.48,0-10.3-1.18-14.42-3.54c-4.08-2.35-9.38-6.79-15.92-13.33
		c-6.79,6.75-12.2,11.24-16.23,13.49c-4.03,2.24-8.7,3.37-14.04,3.37c-6.79,0-12.1-2.12-15.91-6.36c-3.77-4.22-5.65-9.59-5.65-16.06
		c0-6.06,1.99-11.25,5.95-15.6c4.03-4.33,9.28-6.5,15.77-6.5c3.13,0,6,0.46,8.62,1.4c2.62,0.93,5.8,2.82,9.57,5.64
		C72.61,202.63,76.58,206,80.71,209.97 M85.8,214.83c5.54,5.49,10.09,9.23,13.65,11.2c3.61,1.95,7.18,2.91,10.73,2.91
		c4.45,0,7.93-1.31,10.44-3.91c2.49-2.68,3.76-5.89,3.76-9.64c0-4.14-1.27-7.54-3.76-10.2c-2.46-2.72-5.73-4.08-9.81-4.08
		c-2.3,0-4.51,0.42-6.65,1.26c-2.14,0.79-4.7,2.2-7.69,4.24C93.49,208.59,89.93,211.33,85.8,214.83 M75.62,214.83
		c-3.77-3.19-7.14-5.79-10.12-7.85c-2.98-2.08-5.59-3.56-7.84-4.45c-2.25-0.9-4.7-1.34-7.37-1.34c-3.81,0-6.98,1.34-9.49,4
		c-2.49,2.66-3.76,6.06-3.76,10.2c0,2.87,0.65,5.3,1.96,7.28c1.31,2,2.9,3.54,4.78,4.63c1.94,1.1,4.34,1.65,7.21,1.65
		c3.76,0,7.42-1,10.98-2.98C65.53,223.97,70.08,220.27,75.62,214.83"/>
</g>
</svg>
