<?xml version="1.0" encoding="utf-8"?>
<!-- Generator: Adobe Illustrator 15.1.0, SVG Export Plug-In . SVG Version: 6.00 Build 0)  -->
<!DOCTYPE svg PUBLIC "-//W3C//DTD SVG 1.1//EN" "http://www.w3.org/Graphics/SVG/1.1/DTD/svg11.dtd">
<svg version="1.1"
	 id="Calque_1" xmlns:dc="http://purl.org/dc/elements/1.1/" xmlns:cc="http://creativecommons.org/ns#" xmlns:rdf="http://www.w3.org/1999/02/22-rdf-syntax-ns#" xmlns:svg="http://www.w3.org/2000/svg"
	 xmlns="http://www.w3.org/2000/svg" xmlns:xlink="http://www.w3.org/1999/xlink" x="0px" y="0px" width="227.7px" height="91.1px"
	 viewBox="0 0 227.7 91.1" enable-background="new 0 0 227.7 91.1" xml:space="preserve">
<g>
	<g>
		<g>
			<g opacity="0.5">
				<polygon fill="#00AAAA" points="35.7,31.8 41.72,28.18 25.42,18.84 25.42,25.88 				"/>
			</g>
			<g>
				<g>
					<g>
						<polygon fill="#00AAAA" points="35.14,35.13 22.57,27.87 22.58,20.73 3.87,31.53 3.87,53.14 22.58,63.93 41.28,53.14 
							41.28,31.58 						"/>
					</g>
				</g>
			</g>
		</g>
	</g>
	<path fill="#00AAAA" d="M65.86,71.25h2.2v-4.96h5.14v-1.92h-5.14v-3.27h6.02V59.2h-8.22V71.25z M84.17,61.65
		c-0.17-0.44-0.46-0.87-0.86-1.26c-0.91-0.86-2.05-1.29-3.37-1.29c-1.32,0-2.45,0.44-3.36,1.29c-0.31,0.3-0.55,0.61-0.72,0.93
		c-0.17,0.31-0.29,0.66-0.36,1.02c-0.07,0.35-0.12,0.75-0.14,1.17c-0.02,0.42-0.03,0.99-0.03,1.71c0,0.93,0.02,1.65,0.06,2.15
		c0.04,0.51,0.15,0.99,0.32,1.42c0.18,0.44,0.47,0.87,0.87,1.25c0.9,0.86,2.03,1.29,3.35,1.29c1.32,0,2.46-0.44,3.37-1.3
		c0.39-0.38,0.67-0.81,0.85-1.26c0.18-0.44,0.28-0.92,0.32-1.43c0.04-0.49,0.06-1.21,0.06-2.14c0-0.93-0.02-1.65-0.06-2.15
		C84.45,62.57,84.35,62.09,84.17,61.65z M82.31,67.05c-0.04,0.44-0.1,0.8-0.2,1.05c-0.1,0.25-0.24,0.47-0.43,0.66
		c-0.45,0.45-1.03,0.68-1.73,0.68c-0.33,0-0.66-0.06-0.96-0.18c-0.3-0.12-0.56-0.29-0.77-0.49c-0.17-0.18-0.29-0.34-0.36-0.49
		c-0.07-0.14-0.14-0.35-0.19-0.61c-0.06-0.27-0.09-0.59-0.11-0.95c-0.02-0.37-0.03-0.86-0.03-1.49c0-1.15,0.04-1.97,0.14-2.43
		c0.09-0.44,0.27-0.81,0.55-1.1c0.2-0.2,0.46-0.37,0.77-0.49c0.31-0.12,0.64-0.18,0.97-0.18c0.33,0,0.65,0.06,0.96,0.18
		c0.31,0.12,0.56,0.29,0.76,0.49c0.28,0.28,0.46,0.65,0.55,1.1c0.09,0.47,0.14,1.29,0.14,2.44C82.36,65.98,82.34,66.59,82.31,67.05z
		 M95,64.91c0.48-0.57,0.72-1.28,0.72-2.12c0-0.69-0.17-1.32-0.49-1.86c-0.33-0.54-0.8-0.97-1.41-1.28c-0.6-0.3-1.31-0.46-2.08-0.46
		h-4.96v12.05h2.2v-4.94h2.09l2.6,4.94h2.54L93.33,66C94,65.79,94.56,65.42,95,64.91z M91.58,64.47h-2.62v-3.36h2.62
		c0.6,0,1.08,0.15,1.43,0.46c0.35,0.3,0.52,0.71,0.52,1.24c0,0.52-0.17,0.92-0.52,1.21C92.66,64.32,92.18,64.47,91.58,64.47z
		 M109.85,60.26c-0.36-0.33-0.81-0.6-1.33-0.78c-0.52-0.18-1.09-0.28-1.68-0.28h-4.85v12.05h2.2v-4.62h2.65
		c0.81,0,1.53-0.16,2.15-0.48c0.63-0.32,1.12-0.77,1.45-1.33c0.34-0.56,0.51-1.2,0.51-1.91c0-0.54-0.09-1.04-0.28-1.48
		C110.49,60.98,110.21,60.59,109.85,60.26z M108.24,64.23c-0.37,0.32-0.87,0.48-1.49,0.48h-2.55v-3.6h2.55
		c0.62,0,1.12,0.16,1.49,0.49c0.37,0.32,0.55,0.75,0.55,1.32C108.78,63.48,108.6,63.91,108.24,64.23z M120.99,64.91
		c0.48-0.57,0.72-1.28,0.72-2.12c0-0.69-0.17-1.32-0.5-1.86c-0.33-0.54-0.8-0.97-1.41-1.28c-0.61-0.3-1.31-0.46-2.09-0.46h-4.96
		v12.05h2.2v-4.94h2.09l2.6,4.94h2.54L119.32,66C119.99,65.79,120.56,65.42,120.99,64.91z M117.57,64.47h-2.62v-3.36h2.62
		c0.6,0,1.08,0.15,1.43,0.46c0.35,0.3,0.52,0.71,0.52,1.24c0,0.52-0.17,0.92-0.52,1.21C118.65,64.32,118.17,64.47,117.57,64.47z
		 M123.93,71.25h2.2V59.2h-2.2V71.25z M135.34,59.2l-2.74,8.21l-2.73-8.21h-2.28l4.13,11.95l0.04,0.11h1.69l4.2-12.05H135.34z
		 M142.91,59.2h-1.72l-4.65,12.05h2.33l0.85-2.36h4.66l0.85,2.36h2.33l-4.62-11.96L142.91,59.2z M140.39,67.07l1.7-4.6l1.65,4.6
		H140.39z M146.78,61.11h3.41v10.14h2.18V61.11h3.4V59.2h-8.99V61.11z M157.51,71.25h8.22v-1.91h-6.02v-3.22h5.14v-1.89h-5.14v-3.12
		h6.02V59.2h-8.22V71.25z M173.72,62.81c0.05-0.27,0.12-0.49,0.21-0.65s0.2-0.32,0.36-0.48c0.2-0.21,0.46-0.37,0.75-0.49
		c0.3-0.12,0.63-0.17,0.97-0.17c0.62,0,1.14,0.17,1.53,0.51c0.4,0.34,0.67,0.8,0.81,1.38l0.03,0.12h2.22l-0.03-0.18
		c-0.22-1.19-0.75-2.13-1.55-2.77c-0.81-0.64-1.82-0.97-3.01-0.97c-0.66,0-1.27,0.11-1.84,0.33c-0.56,0.22-1.08,0.54-1.52,0.96
		c-0.31,0.3-0.55,0.61-0.72,0.93c-0.17,0.31-0.29,0.66-0.36,1.02c-0.07,0.35-0.11,0.75-0.14,1.17c-0.02,0.42-0.03,0.99-0.03,1.71
		c0,0.93,0.02,1.65,0.06,2.15c0.04,0.51,0.15,0.99,0.33,1.42c0.18,0.44,0.47,0.87,0.87,1.25c0.28,0.27,0.6,0.5,0.96,0.7
		c0.36,0.2,0.75,0.35,1.14,0.44c0.39,0.1,0.82,0.15,1.26,0.15c0.57,0,1.11-0.08,1.63-0.24c0.51-0.16,0.97-0.4,1.36-0.71
		c0.4-0.31,0.73-0.71,1.01-1.18c0.27-0.47,0.46-1.01,0.57-1.6l0.03-0.18h-2.21l-0.03,0.12c-0.09,0.37-0.25,0.71-0.46,1
		c-0.21,0.28-0.48,0.5-0.79,0.66c-0.32,0.16-0.69,0.24-1.11,0.24c-0.34,0-0.67-0.06-0.97-0.18c-0.29-0.12-0.55-0.28-0.75-0.48
		c-0.15-0.18-0.28-0.35-0.36-0.5c-0.08-0.16-0.15-0.37-0.21-0.64c-0.05-0.28-0.09-0.6-0.11-0.95c-0.02-0.35-0.03-0.84-0.03-1.46
		c0-0.62,0.01-1.12,0.03-1.47C173.63,63.4,173.67,63.08,173.72,62.81z M184.68,59.2h-2.2v12.05h8.15v-1.91h-5.95V59.2z
		 M200.65,61.65c-0.17-0.44-0.46-0.87-0.86-1.26c-0.91-0.86-2.05-1.29-3.37-1.29c-1.32,0-2.45,0.44-3.35,1.29
		c-0.31,0.3-0.55,0.61-0.72,0.93c-0.17,0.31-0.29,0.66-0.36,1.02c-0.07,0.35-0.12,0.75-0.14,1.17c-0.02,0.42-0.03,0.99-0.03,1.71
		c0,0.93,0.02,1.65,0.06,2.15c0.04,0.51,0.15,0.99,0.33,1.42c0.18,0.44,0.47,0.87,0.87,1.25c0.9,0.86,2.03,1.29,3.35,1.29
		c1.32,0,2.46-0.44,3.37-1.3c0.39-0.38,0.67-0.81,0.85-1.26c0.17-0.44,0.28-0.92,0.32-1.43c0.04-0.49,0.06-1.21,0.06-2.14
		c0-0.93-0.02-1.65-0.06-2.15C200.93,62.57,200.82,62.09,200.65,61.65z M198.78,67.05c-0.04,0.44-0.1,0.8-0.2,1.05
		c-0.1,0.25-0.24,0.47-0.43,0.66c-0.45,0.45-1.03,0.68-1.73,0.68c-0.33,0-0.66-0.06-0.96-0.18c-0.3-0.12-0.57-0.29-0.77-0.49
		c-0.16-0.18-0.28-0.34-0.36-0.49c-0.07-0.14-0.14-0.35-0.19-0.61c-0.05-0.27-0.09-0.59-0.11-0.95c-0.02-0.37-0.03-0.86-0.03-1.49
		c0-1.15,0.05-1.97,0.14-2.43c0.09-0.44,0.27-0.81,0.55-1.1c0.2-0.2,0.46-0.37,0.76-0.49c0.31-0.12,0.64-0.18,0.97-0.18
		c0.33,0,0.65,0.06,0.96,0.18c0.31,0.12,0.56,0.29,0.76,0.49c0.28,0.28,0.46,0.65,0.55,1.1c0.09,0.47,0.14,1.29,0.14,2.44
		C198.84,65.98,198.82,66.59,198.78,67.05z M210.1,67.05c0,0.49-0.1,0.92-0.3,1.28c-0.19,0.35-0.48,0.63-0.83,0.82
		c-0.36,0.19-0.79,0.29-1.28,0.29c-0.48,0-0.91-0.1-1.27-0.29c-0.36-0.19-0.64-0.47-0.83-0.82c-0.19-0.36-0.29-0.79-0.29-1.28V59.2
		h-2.18v7.93c0,0.82,0.2,1.56,0.6,2.2c0.4,0.64,0.95,1.14,1.64,1.49c0.7,0.35,1.48,0.53,2.34,0.53c0.86,0,1.65-0.18,2.35-0.53
		c0.7-0.35,1.25-0.85,1.65-1.49c0.4-0.64,0.6-1.38,0.6-2.2V59.2h-2.18V67.05z M223.79,62.94c-0.05-0.46-0.17-0.93-0.36-1.38
		c-0.19-0.45-0.48-0.86-0.86-1.23c-0.8-0.76-1.91-1.15-3.3-1.15h-4.5v12.05h4.5c1.39,0,2.5-0.39,3.3-1.15
		c0.38-0.37,0.67-0.79,0.87-1.26c0.19-0.47,0.31-0.95,0.36-1.44c0.05-0.48,0.08-1.04,0.08-1.68v-1.18
		C223.87,63.94,223.84,63.4,223.79,62.94z M221.58,67.43c-0.07,0.49-0.24,0.88-0.51,1.16c-0.47,0.49-1.14,0.74-1.99,0.74h-2.12
		v-8.23h2.12c0.85,0,1.51,0.25,1.99,0.75c0.18,0.19,0.32,0.44,0.41,0.74c0.1,0.31,0.16,0.65,0.18,1c0.02,0.37,0.04,0.89,0.04,1.56
		C221.69,66.15,221.65,66.92,221.58,67.43z"/>
	<g>
		<path fill="#575756" d="M113.15,31.51c-2.43,0-3.99,0.91-4.76,2.77l-8.24,19.61h5.84l2.1-5.02h10.07l2.1,5.02h5.84l-8.23-19.61
			C117.09,32.42,115.55,31.51,113.15,31.51z M109.71,45.21l2.94-9.54l3.96,9.54H109.71z"/>
		<path fill="#575756" d="M58.7,35.72c0.26-0.06,0.33-0.09,0.34-0.09l0.1-0.05h9.14l2-3.93H57.51c-3.39,0-5.29,1.17-5.8,3.58
			c-0.08,0.35-0.12,0.66-0.12,0.92v13.31c0,2.9,2.25,4.31,6.86,4.31h9.84l2-4H59.44c-1.94-0.14-2.23-1.35-2.23-2.06v-3.08h10.08
			l2-3.99H57.21v-3.08C57.21,36.65,57.74,36,58.7,35.72z"/>
		<path fill="#575756" d="M157.76,32.34c-0.96-0.74-2.26-1.12-3.85-1.12c-0.58,0-1.16,0.04-1.73,0.12
			c-1.86,0.31-2.99,1.14-3.44,2.55l-4.8,14.97l-4.33-14.99c-0.4-1.39-1.54-2.22-3.49-2.53c-0.56-0.08-1.13-0.12-1.68-0.12
			c-1.62,0-2.93,0.38-3.89,1.12c-0.93,0.72-1.39,1.62-1.39,2.75v18.59h5.33V34.52l5.75,16.86c0.64,1.89,1.91,2.81,3.89,2.81
			c1.57,0,2.65-0.49,3.3-1.5c0.27-0.37,0.47-0.79,0.63-1.29l5.8-16.86v19.14h5.28V35.09C159.15,33.96,158.7,33.06,157.76,32.34z"/>
		<path fill="#575756" d="M72.31,53.85l9.57-11.39l-9.09-10.9h7.46l4.87,6.25l5.19-6.25h7.46l-9.09,10.9l9.57,11.39H90.8l-5.71-6.87
			l-5.31,6.87H72.31z"/>
		<path fill="#575756" d="M164.38,45.26V31.29h6.28v13.96H164.38z"/>
		<path fill="#575756" d="M176.34,53.82V35.92c0-1.36,0.43-2.48,1.28-3.34c0.85-0.87,1.92-1.3,3.2-1.3c0.58,0,1.17,0.08,1.78,0.25
			c1.49,0.5,3.01,3.4,3.01,3.4l7.81,12.88V31.53h5.14v18.45c0,1.16-0.42,2.12-1.26,2.91c-0.84,0.78-1.89,1.2-3.15,1.24
			c-2.42,0.08-4.79-3.77-4.79-3.77l-7.85-12.82v16.28H176.34z"/>
		<path fill="#575756" d="M202.66,53.85V31.56h14.92c4.19,0,6.29,1.63,6.29,4.89v12.51c0,0.21-0.03,0.48-0.08,0.8
			c-0.43,2.73-2.42,4.09-5.96,4.09H202.66z M208.94,49.02h6.45c0.7,0,1.16-0.04,1.38-0.12c0.44-0.21,0.69-0.7,0.77-1.49
			c0.03-0.04,0.04-0.14,0.04-0.31v-9.72c-0.19-0.7-0.93-1.05-2.23-1.05h-6.41V49.02z"/>
	</g>
	<circle fill="#00AAAA" cx="167.52" cy="50.99" r="3.14"/>
	<path id="text1326_2_" fill="#FFFFFF" d="M22.79,43.74c1.01-0.97,1.98-1.79,2.91-2.47c0.93-0.69,1.72-1.15,2.35-1.38
		c0.64-0.23,1.33-0.34,2.08-0.34c1.58,0,2.86,0.53,3.83,1.59c0.98,1.05,1.47,2.31,1.47,3.81c0,1.02-0.22,1.96-0.65,2.83
		c-0.43,0.87-1.05,1.52-1.85,1.97c-0.79,0.45-1.7,0.67-2.73,0.67c-1.34,0-2.51-0.29-3.52-0.86c-1-0.57-2.29-1.66-3.88-3.25
		c-1.66,1.65-2.98,2.74-3.96,3.29c-0.98,0.55-2.12,0.82-3.43,0.82c-1.66,0-2.95-0.52-3.88-1.55c-0.92-1.03-1.38-2.34-1.38-3.92
		c0-1.48,0.48-2.75,1.45-3.81c0.98-1.06,2.26-1.59,3.85-1.59c0.76,0,1.46,0.11,2.1,0.34c0.64,0.23,1.42,0.69,2.33,1.38
		C20.82,41.94,21.78,42.77,22.79,43.74 M24.03,44.92c1.35,1.34,2.46,2.25,3.33,2.73c0.88,0.47,1.75,0.71,2.62,0.71
		c1.09,0,1.93-0.32,2.55-0.95c0.61-0.65,0.92-1.44,0.92-2.35c0-1.01-0.31-1.84-0.92-2.49c-0.6-0.66-1.4-1-2.39-1
		c-0.56,0-1.1,0.1-1.62,0.31c-0.52,0.19-1.15,0.54-1.88,1.03C25.91,43.4,25.04,44.07,24.03,44.92 M21.55,44.92
		c-0.92-0.78-1.74-1.41-2.47-1.92c-0.73-0.51-1.36-0.87-1.91-1.08c-0.55-0.22-1.15-0.33-1.8-0.33c-0.93,0-1.7,0.33-2.32,0.98
		c-0.61,0.65-0.92,1.48-0.92,2.49c0,0.7,0.16,1.29,0.48,1.78c0.32,0.49,0.71,0.86,1.17,1.13c0.47,0.27,1.06,0.4,1.76,0.4
		c0.92,0,1.81-0.24,2.68-0.73C19.09,47.15,20.2,46.25,21.55,44.92"/>
</g>
</svg>
