<?xml version="1.0" encoding="utf-8"?>
<!-- Generator: Adobe Illustrator 15.1.0, SVG Export Plug-In . SVG Version: 6.00 Build 0)  -->
<!DOCTYPE svg PUBLIC "-//W3C//DTD SVG 1.1//EN" "http://www.w3.org/Graphics/SVG/1.1/DTD/svg11.dtd">
<svg version="1.1" id="Calque_1" xmlns="http://www.w3.org/2000/svg" xmlns:xlink="http://www.w3.org/1999/xlink" x="0px" y="0px"
	 width="872px" height="143.7px" viewBox="75.5 306.5 872 143.7" enable-background="new 75.5 306.5 872 143.7"
	 xml:space="preserve">
<path fill="#B6D05A" d="M75.5,306.4h872v72h-872V306.4z"/>
<path opacity="0.13" fill="none" stroke="#020304" stroke-width="0.75" enable-background="new    " d="M805.2,308.1"/>
<path opacity="0.13" fill="none" stroke="#020304" stroke-width="0.75" enable-background="new    " d="M803.7,379.6"/>
<g opacity="0.4">
	<path fill="#93BF2F" d="M876.4,330.8l-7.7-0.899c-1.4-0.2-2.7,0.8-2.8,2.3l-0.4,3.2l-40.7-4.7l30.9-15.601
		c0.3,0.9,1.1,1.601,2.1,1.7l7.8,0.9c1.4,0.2,2.7-0.8,2.801-2.3l0.899-7.801c0-0.399,0-0.8-0.1-1.1h-12.7l-0.8,7.2l-33.2,16.7
		l0.3,0.699l-0.1,0.601l1,0.1L823.6,332l27.301,23.4l-0.9,7.5c-0.2,1.399,0.8,2.699,2.3,2.8l7.8,0.899c1.4,0.2,2.7-0.8,2.801-2.3
		l0.899-7.8c0.2-1.4-0.8-2.7-2.3-2.8l-7.8-0.9c-1-0.1-1.9,0.4-2.5,1.2l-25.7-22l39.8,4.6l-0.399,3.2c-0.2,1.4,0.8,2.7,2.3,2.8
		l7.8,0.9c1.4,0.2,2.7-0.8,2.8-2.3l0.9-7.7C878.8,332.3,877.8,331,876.4,330.8z"/>
	<path fill="#75AA33" d="M829.9,325.5l-7.801-0.9c-1.399-0.199-2.699,0.801-2.8,2.301l-0.6,5.3L762.3,343.6l33.9-19.199
		c0.3,0.199,0.7,0.399,1.1,0.399l7.8,0.9c1.4,0.2,2.7-0.8,2.801-2.3l0.899-7.801c0.2-1.399-0.8-2.699-2.3-2.8l-7.8-0.899
		c-1.4-0.2-2.7,0.8-2.8,2.3l-0.9,7.7c-0.1,0.5,0,1,0.2,1.399l-35.8,20.3l-0.301-0.1l-0.199,0.4l0,0l0,0L758.6,344.6l-0.699,0.7
		l31,29.101c-0.101,0.199-0.101,0.3-0.101,0.5l-0.3,3h13l0.2-1.5c0.2-1.4-0.8-2.7-2.3-2.801l-7.8-0.899c-0.801-0.101-1.5,0.2-2,0.6
		l-29.801-28h0.101l0.3,0.101l0,0h0.1l54,23.5l-0.8,6.8c-0.1,0.899,0.3,1.7,0.9,2.2h11.8c0.1-0.2,0.2-0.5,0.2-0.801l0.899-7.699
		c0.2-1.4-0.8-2.7-2.3-2.801l-7.8-0.899c-1.3-0.101-2.5,0.7-2.8,1.899L764.9,346l35.6,4.1l-0.4,3.2c-0.199,1.4,0.801,2.7,2.301,2.8
		l7.8,0.9c1.399,0.2,2.7-0.8,2.8-2.3l0.9-7.7c0.199-1.4-0.801-2.7-2.301-2.8l-7.8-0.9c-1.399-0.2-2.7,0.8-2.8,2.3l-0.4,3.2
		l-36.8-4.2l54.7-11.1l-0.1,1.1c-0.2,1.4,0.8,2.7,2.3,2.801l7.8,0.899c1.4,0.2,2.7-0.8,2.8-2.3l0.9-7.7
		C832.3,326.9,831.3,325.7,829.9,325.5z"/>
	<path fill="#629630" d="M728.1,378h5.601l0.399-3.2c0.2-1.399-0.8-2.7-2.3-2.8l-7.8-1l0,0l-14.1-24.2c0.3-0.399,0.5-0.8,0.6-1.3
		l0.2-2.1l19.2,11.1l-0.601,4.9c-0.2,1.399,0.8,2.699,2.3,2.8l7.7,0.899c1.4,0.2,2.7-0.8,2.8-2.3l0.9-7.7
		c0.2-1.399-0.8-2.699-2.3-2.8L733,349.4c-1.4-0.2-2.7,0.8-2.8,2.3L730,353.1L710.9,342l0.1-1l43.3,5l-0.399,3.1
		c-0.2,1.4,0.8,2.7,2.3,2.801l7.8,0.899c1.4,0.2,2.7-0.8,2.8-2.3l0.9-7.8c0.2-1.4-0.8-2.7-2.3-2.8L757.6,339
		c-1.399-0.2-2.699,0.8-2.8,2.3l-0.399,3.4l-43.301-5l0.2-2c0-0.101,0-0.2,0-0.4l31.601-9.6c0.3,0.899,1.1,1.6,2.1,1.7l7.7,0.899
		c1.399,0.2,2.7-0.8,2.8-2.3l0.9-7.7c0.199-1.399-0.801-2.7-2.301-2.8l-7.699-0.9c-1.4-0.199-2.7,0.801-2.801,2.301l-0.899,7.5
		l-31.8,9.6c-0.301-0.5-0.7-0.8-1.2-1l18.899-23.2c0.2,0.101,0.4,0.2,0.7,0.2l7.7,0.9c1.4,0.199,2.7-0.801,2.8-2.301l0.5-4H731.4
		l-0.101-0.1l-0.1,0.1h-3.9L727,309.2c-0.1,0.7,0.1,1.399,0.5,1.899l-19.3,23.7l-2.7-0.3l2.2-18.8l3.899,0.399
		c1.4,0.2,2.7-0.8,2.801-2.3l0.8-7.2h-13l-0.7,5.801c-0.2,1.399,0.8,2.699,2.3,2.8l2.601,0.3l-2.2,18.8l-1.4-0.2l-12.7-20.8
		c1-0.3,1.801-1.1,1.9-2.2l0.5-4.6h-13l-0.4,3.1c-0.199,1.4,0.801,2.7,2.301,2.801l7.199,0.8l12.601,20.6l0,0
		c-1-0.1-1.9,0.3-2.4,1.101l-16.4-9.5l0.601-5.2c0.2-1.4-0.8-2.7-2.3-2.8l-7.7-0.9c-1.4-0.2-2.7,0.8-2.8,2.3l-0.9,7.7
		c-0.2,1.4,0.8,2.7,2.3,2.8l7.7,0.9c1.4,0.2,2.7-0.8,2.8-2.3l0.101-1.2l16.1,9.3l-0.2,1.9l-33.4-3.801l0.4-3.199
		c0.2-1.4-0.8-2.7-2.3-2.801L655,327.2c-1.4-0.2-2.7,0.8-2.8,2.3l-0.9,7.8c-0.2,1.4,0.8,2.7,2.3,2.8l7.8,0.9
		c1.4,0.2,2.7-0.8,2.8-2.3l0.4-3.2l33.4,3.8l-0.101,1.101L673.3,351.6v-0.1c0.2-1.4-0.8-2.7-2.3-2.8l-7.8-0.9
		c-1.4-0.2-2.7,0.8-2.801,2.3L659.5,357.9c-0.2,1.399,0.8,2.699,2.3,2.8l7.8,0.899c1.4,0.2,2.7-0.8,2.8-2.3l0.7-6.1L697.7,342
		l-0.2,1.9c-0.101,1,0.399,2,1.3,2.5l-19.6,24.1c-0.4-0.3-0.801-0.5-1.301-0.5l-7.699-0.9c-1.4-0.199-2.7,0.801-2.801,2.301
		l-0.699,6.5h13l0.6-5c0.1-0.5,0-0.9-0.2-1.301l20.2-24.8l2.7,0.3l-2.4,20.7l-3-0.3c-1.4-0.2-2.7,0.8-2.8,2.3l-0.9,7.7
		c0,0.2,0,0.3,0,0.5h13l0.8-6.7c0.2-1.399-0.8-2.7-2.3-2.8L702,368.1l2.399-20.699l3.4,0.399c0.4,0,0.8,0,1.2-0.2l13.8,23.7
		c-0.8,0.4-1.4,1.101-1.5,2l-0.5,4.7h5.9H728.1L728.1,378z"/>
	<path fill="#457A2F" d="M710.7,345.4c-0.2,1.399-1.4,2.399-2.8,2.3l-7.801-0.9c-1.399-0.2-2.399-1.399-2.3-2.8l0.9-7.8
		c0.2-1.4,1.399-2.4,2.8-2.3l7.8,0.899c1.4,0.2,2.4,1.4,2.3,2.9L710.7,345.4z"/>
</g>
<path fill="#D0DD77" d="M648,306.4l-36.7,71.8l-534.8,0.2v-72H648L648,306.4z"/>
<path fill="#4F4F4F" d="M75.5,378.6h872v72h-872V378.6z"/>
<g opacity="0.4">
	<path fill="#4A4A49" d="M876.4,403.1l-7.7-0.899c-1.4-0.2-2.7,0.8-2.8,2.3l-0.4,3.2l-40.7-4.7l30.9-15.6
		c0.3,0.899,1.1,1.6,2.1,1.699l7.8,0.9c1.4,0.2,2.7-0.8,2.801-2.3l0.899-7.8c0-0.4,0-0.801-0.1-1.101h-12.7l-0.8,7.2l-33.2,16.7
		l0.3,0.7l-0.1,0.6l1,0.1l-0.101,0.2l27.301,23.4l-0.9,7.5c-0.2,1.399,0.8,2.7,2.3,2.8l7.8,0.9c1.4,0.199,2.7-0.801,2.801-2.301
		l0.899-7.8c0.2-1.399-0.8-2.7-2.3-2.8l-7.8-0.9c-1-0.1-1.9,0.4-2.5,1.2l-25.7-22l39.8,4.601l-0.399,3.2
		c-0.2,1.399,0.8,2.699,2.3,2.8l7.8,0.899c1.4,0.2,2.7-0.8,2.8-2.3l0.9-7.8C878.8,404.5,877.8,403.2,876.4,403.1z"/>
	<path fill="#706F6F" d="M829.9,397.7l-7.801-0.9c-1.399-0.2-2.699,0.8-2.8,2.3l-0.6,5.301L762.3,415.8l33.9-19.2
		c0.3,0.2,0.7,0.4,1.1,0.4l7.8,0.9c1.4,0.199,2.7-0.801,2.801-2.301l0.899-7.8c0.2-1.399-0.8-2.7-2.3-2.8l-7.8-0.9
		c-1.4-0.199-2.7,0.801-2.8,2.301l-0.9,7.8c-0.1,0.5,0,1,0.2,1.399L759.6,416l-0.3-0.1l-0.2,0.399l0,0l0,0l-0.3,0.7l-0.7,0.7
		l31,29.1c-0.1,0.2-0.1,0.3-0.1,0.5l-0.3,3h13l0.2-1.5c0.199-1.399-0.801-2.7-2.301-2.8l-7.8-0.9c-0.8-0.1-1.5,0.2-2,0.7l-29.8-28
		h0.1l0.301,0.101l0,0h0.1l54,23.5l-0.8,6.8c-0.101,0.899,0.3,1.7,0.899,2.2H826.4c0.1-0.2,0.199-0.5,0.199-0.801l0.9-7.699
		c0.2-1.4-0.8-2.7-2.3-2.801l-7.8-0.899c-1.301-0.101-2.5,0.7-2.801,1.899L764.8,418.4l35.601,4.1l-0.4,3.2
		c-0.2,1.399,0.8,2.7,2.3,2.8l7.8,0.9c1.4,0.199,2.7-0.801,2.801-2.301l0.899-7.8c0.2-1.399-0.8-2.7-2.3-2.8l-7.8-0.9
		c-1.4-0.199-2.7,0.801-2.8,2.301l-0.4,3.199l-36.8-4.199l54.7-11.101L818.3,406.9c-0.2,1.399,0.8,2.699,2.3,2.8l7.801,0.899
		c1.399,0.2,2.699-0.8,2.8-2.3l0.899-7.8C832.3,399.2,831.3,397.9,829.9,397.7z"/>
	<path fill="#9D9D9C" d="M728.1,450.2h5.601l0.399-3.2c0.2-1.4-0.8-2.7-2.3-2.8l-7.7-0.9l0,0L710,419.1c0.3-0.399,0.5-0.8,0.6-1.3
		l0.2-2.1l19.2,11.1l-0.6,4.9c-0.2,1.399,0.8,2.7,2.3,2.8l7.7,0.9c1.399,0.199,2.699-0.801,2.8-2.301l0.899-7.8
		c0.2-1.399-0.8-2.7-2.3-2.8l-7.7-0.9c-1.399-0.199-2.699,0.801-2.8,2.301l-0.2,1.399L710.9,414.2l0.1-1l43.3,5l-0.399,3.1
		c-0.2,1.4,0.8,2.7,2.3,2.8l7.8,0.9c1.4,0.2,2.7-0.8,2.8-2.3l0.9-7.8c0.2-1.4-0.8-2.7-2.3-2.801L757.6,411.2
		c-1.399-0.2-2.699,0.8-2.8,2.3l-0.399,3.4l-43.301-5l0.2-2c0-0.101,0-0.2,0-0.4l31.601-9.6c0.3,0.899,1.1,1.6,2.1,1.699l7.7,0.9
		c1.399,0.2,2.7-0.8,2.8-2.3l0.9-7.8c0.199-1.4-0.801-2.7-2.301-2.801L746.4,388.7c-1.4-0.2-2.7,0.8-2.801,2.3l-0.899,7.5l-31.8,9.6
		c-0.301-0.5-0.7-0.8-1.2-1L728.6,383.9c0.2,0.1,0.4,0.199,0.7,0.199l7.7,0.9c1.4,0.2,2.7-0.8,2.8-2.3l0.5-4H731.4L731.3,378.6
		l-0.1,0.101h-3.9l-0.3,2.6c-0.1,0.7,0.1,1.4,0.5,1.9l-19.3,23.7l-2.7-0.301l2.2-18.8l3.899,0.4c1.4,0.2,2.7-0.8,2.801-2.3l0.8-7.2
		h-13l-0.7,5.8c-0.2,1.4,0.8,2.7,2.3,2.8l2.601,0.3l-2.2,18.801l-1.4-0.2l-12.7-20.8c1-0.301,1.801-1.101,1.9-2.2l0.5-4.601h-13
		l-0.4,3.101c-0.199,1.399,0.801,2.7,2.301,2.8l7.199,0.8L701.2,405.9l0,0c-1-0.101-1.9,0.3-2.4,1.1l-16.4-9.5l0.601-5.2
		c0.2-1.399-0.8-2.7-2.3-2.8l-7.7-0.9c-1.4-0.199-2.7,0.801-2.8,2.301l-0.9,7.699c-0.2,1.4,0.8,2.7,2.3,2.801l7.7,0.899
		c1.4,0.2,2.7-0.8,2.8-2.3l0.101-1.2l16.1,9.3l-0.2,1.9l-33.4-3.8l0.4-3.2c0.2-1.4-0.8-2.7-2.3-2.8l-7.8-0.9
		c-1.4-0.2-2.7,0.8-2.8,2.3l-0.9,7.801c-0.2,1.399,0.8,2.699,2.3,2.8l7.8,0.899c1.4,0.2,2.7-0.8,2.8-2.3l0.4-3.2L698,411.4
		l-0.101,1.1l-24.6,11.2V423.6c0.2-1.399-0.8-2.699-2.3-2.8l-7.8-0.899c-1.4-0.2-2.7,0.8-2.801,2.3L659.5,430
		c-0.2,1.4,0.8,2.7,2.3,2.8l7.8,0.9c1.4,0.2,2.7-0.8,2.8-2.3l0.7-6.101l24.601-11.2l-0.2,1.9c-0.101,1,0.399,2,1.3,2.5l-19.6,24.1
		c-0.4-0.3-0.801-0.5-1.301-0.5L670.2,441.2c-1.4-0.2-2.7,0.8-2.801,2.3L666.7,450h13l0.6-5c0.1-0.5,0-0.9-0.2-1.3l20.2-24.8
		l2.7,0.3l-2.4,20.7l-3-0.301c-1.4-0.199-2.7,0.801-2.8,2.301l-0.9,7.699c0,0.2,0,0.301,0,0.5h13l0.8-6.699
		c0.2-1.4-0.8-2.7-2.3-2.801L702,440.2l2.399-20.7l3.4,0.4c0.4,0,0.8,0,1.2-0.2l13.8,23.7c-0.8,0.399-1.4,1.1-1.5,2l-0.5,4.699h5.9
		h1.399V450.2z"/>
	<path fill="#EDEDED" d="M710.7,417.4c-0.2,1.399-1.4,2.399-2.8,2.3l-7.801-0.9c-1.399-0.2-2.399-1.399-2.3-2.8l0.9-7.8
		c0.2-1.4,1.399-2.4,2.8-2.3l7.8,0.899c1.4,0.2,2.4,1.4,2.3,2.9L710.7,417.4z"/>
</g>
<path fill="#5D5D5D" d="M648,378.6L611.3,450.4L76.5,450.6v-72H648L648,378.6z"/>
</svg>
