<?xml version="1.0" encoding="utf-8"?>
<!-- Generator: Adobe Illustrator 15.1.0, SVG Export Plug-In . SVG Version: 6.00 Build 0)  -->
<!DOCTYPE svg PUBLIC "-//W3C//DTD SVG 1.1//EN" "http://www.w3.org/Graphics/SVG/1.1/DTD/svg11.dtd">
<svg version="1.1"
	 id="Calque_1" inkscape:export-filename="/home/husky/dev/cstl-ee/modules/cstl-admin/grunt/src/img/constellation.png" sodipodi:docname="constellation-menu.svg" inkscape:version="0.48.4 r9939" inkscape:export-xdpi="143.08301" inkscape:export-ydpi="143.08301" xmlns:dc="http://purl.org/dc/elements/1.1/" xmlns:cc="http://creativecommons.org/ns#" xmlns:rdf="http://www.w3.org/1999/02/22-rdf-syntax-ns#" xmlns:svg="http://www.w3.org/2000/svg" xmlns:sodipodi="http://sodipodi.sourceforge.net/DTD/sodipodi-0.dtd" xmlns:inkscape="http://www.inkscape.org/namespaces/inkscape"
	 xmlns="http://www.w3.org/2000/svg" xmlns:xlink="http://www.w3.org/1999/xlink" x="0px" y="0px" width="302.35px" height="91.1px"
	 viewBox="0 0 302.35 91.1" enable-background="new 0 0 302.35 91.1" xml:space="preserve">
<sodipodi:namedview  inkscape:current-layer="Calque_1" bordercolor="#666666" inkscape:cx="84.479151" inkscape:pageopacity="0" objecttolerance="10" inkscape:window-width="1920" gridtolerance="10" inkscape:pageshadow="2" inkscape:zoom="6.0430392" inkscape:window-y="0" inkscape:cy="30.913119" showgrid="false" borderopacity="1" guidetolerance="10" inkscape:window-height="1054" pagecolor="#ffffff" id="namedview1342" inkscape:window-x="1920" inkscape:window-maximized="1">
	</sodipodi:namedview>
<g>
	<g>
		<g>
			<g>
				<defs>
					<rect id="SVGID_1_" x="0" y="7.591" width="300.867" height="71.801"/>
				</defs>
				<clipPath id="SVGID_2_">
					<use xlink:href="#SVGID_1_"  overflow="visible"/>
				</clipPath>
				<polyline clip-path="url(#SVGID_2_)" fill="#D87C70" points="43.529,25.305 29.477,17.204 29.476,7.589 51.758,20.355 
					43.529,25.305 				"/>
			</g>
		</g>
		<polyline fill="#d22e2a" points="42.77,29.864 25.579,19.937 25.582,10.176 0,24.943 0,54.482 25.582,69.253 51.161,54.482
			51.161,25.004 42.77,29.864 		"/>
		<path fill="#EDEDED" d="M144.748,43.811l4.019-13.041l5.419,13.041H144.748L144.748,43.811z M149.45,25.079
			c-3.32,0-5.453,1.24-6.512,3.79l-11.263,26.828h7.985l2.873-6.86h13.772l2.869,6.86h7.99l-11.264-26.828
			C154.835,26.319,152.729,25.079,149.45,25.079L149.45,25.079z"/>
		<path fill="#EDEDED" d="M74.988,30.833c0.359-0.077,0.455-0.125,0.466-0.128L75.6,30.63h12.504l2.736-5.374H73.363
			c-4.63,0-7.23,1.601-7.937,4.896c-0.11,0.477-0.161,0.9-0.161,1.264v18.207c0,3.966,3.072,5.897,9.388,5.897h13.451l2.737-5.466
			H76.001c-2.652-0.196-3.044-1.843-3.044-2.806v-4.221h13.782l2.736-5.463H72.956v-4.214C72.956,32.104,73.679,31.21,74.988,30.833
			L74.988,30.833z"/>
		<path fill="#EDEDED" d="M210.465,26.207c-1.315-1.01-3.088-1.524-5.261-1.524c-0.785,0-1.581,0.055-2.367,0.168
			c-2.543,0.426-4.09,1.564-4.714,3.481l-6.562,20.476l-5.916-20.5c-0.548-1.899-2.109-3.033-4.77-3.459
			c-0.775-0.113-1.547-0.168-2.298-0.168c-2.216,0-4.005,0.515-5.318,1.524c-1.277,0.986-1.898,2.215-1.898,3.759v25.422h7.285
			v-26.2l7.867,23.067c0.877,2.579,2.614,3.837,5.318,3.837c2.148,0,3.627-0.675,4.514-2.055c0.371-0.5,0.648-1.08,0.859-1.762
			l7.932-23.053v26.168h7.228V29.967C212.364,28.424,211.74,27.195,210.465,26.207L210.465,26.207z"/>
		<polygon fill="#EDEDED" points="93.594,55.628 106.687,40.05 94.261,25.145 104.465,25.145 111.121,33.696 118.219,25.145 
			128.426,25.145 116.001,40.05 129.094,55.628 118.881,55.628 111.067,46.23 103.802,55.628 		"/>
		<polygon fill="#EDEDED" points="219.506,43.875 219.506,24.78 228.102,24.78 228.102,43.875 		"/>
		<path fill="#EDEDED" d="M235.871,55.583V31.113c0-1.863,0.581-3.388,1.741-4.572c1.167-1.185,2.623-1.779,4.381-1.779
			c0.796,0,1.605,0.113,2.436,0.34c2.039,0.678,4.11,4.659,4.11,4.659l10.685,17.613V25.101h7.029v25.235
			c0,1.58-0.573,2.903-1.723,3.977c-1.148,1.075-2.583,1.638-4.303,1.695c-3.316,0.112-6.549-5.166-6.549-5.166l-10.731-17.528
			v22.269H235.871L235.871,55.583z"/>
		<path fill="#EDEDED" d="M280.456,49.025h8.818c0.961,0,1.595-0.056,1.884-0.17c0.596-0.281,0.946-0.956,1.056-2.032
			c0.035-0.056,0.056-0.196,0.056-0.422V33.109c-0.258-0.96-1.274-1.441-3.051-1.441h-8.763V49.025L280.456,49.025z M271.862,55.628
			V25.145h20.408c5.732,0,8.598,2.232,8.598,6.69v17.104c0,0.283-0.035,0.651-0.111,1.102c-0.591,3.725-3.31,5.588-8.149,5.588
			H271.862L271.862,55.628z"/>
		<path fill="#d22e2a" d="M228.102,51.544c0,2.373-1.921,4.297-4.296,4.297c-2.373,0-4.297-1.924-4.297-4.297
			c0-2.371,1.924-4.297,4.297-4.297C226.179,47.245,228.102,49.17,228.102,51.544L228.102,51.544z"/>
		<g>
			<g>
				<path fill="#FFFFFF" d="M21.205,42.471c-1.277,0.041-2.324,0.545-3.137,1.516h-1.584c-0.646,0-1.191-0.161-1.631-0.481
					c-0.443-0.318-0.663-0.783-0.663-1.399c0-2.785,0.488-4.178,1.468-4.178c0.045,0,0.215,0.082,0.513,0.249
					c0.295,0.166,0.682,0.333,1.153,0.5c0.473,0.17,0.943,0.254,1.407,0.254c0.531,0,1.055-0.092,1.574-0.271
					c-0.037,0.291-0.057,0.552-0.057,0.783C20.25,40.539,20.567,41.549,21.205,42.471z M33.878,50.012
					c0,0.945-0.287,1.693-0.864,2.238c-0.579,0.55-1.343,0.823-2.296,0.823H20.38c-0.955,0-1.717-0.275-2.297-0.823
					c-0.578-0.545-0.863-1.295-0.863-2.238c0-0.422,0.011-0.827,0.04-1.226s0.084-0.83,0.167-1.295
					c0.081-0.461,0.187-0.889,0.314-1.282c0.126-0.394,0.297-0.778,0.507-1.152c0.212-0.376,0.459-0.693,0.732-0.958
					c0.277-0.261,0.613-0.475,1.014-0.632c0.399-0.157,0.838-0.238,1.318-0.238c0.081,0,0.249,0.085,0.51,0.254
					c0.26,0.167,0.546,0.357,0.863,0.566c0.314,0.21,0.736,0.398,1.267,0.568c0.528,0.169,1.059,0.254,1.598,0.254
					c0.533,0,1.067-0.084,1.596-0.254c0.529-0.169,0.951-0.357,1.266-0.568c0.317-0.209,0.603-0.399,0.864-0.566
					c0.258-0.169,0.429-0.254,0.509-0.254c0.479,0,0.919,0.079,1.317,0.238c0.401,0.157,0.735,0.372,1.012,0.632
					c0.276,0.265,0.521,0.582,0.734,0.958c0.214,0.374,0.383,0.759,0.508,1.152c0.127,0.394,0.229,0.821,0.314,1.282
					c0.081,0.465,0.137,0.896,0.166,1.295C33.864,49.185,33.878,49.59,33.878,50.012z M20.875,32.759
					c0.592,0.593,0.887,1.307,0.887,2.141s-0.295,1.549-0.887,2.142c-0.594,0.593-1.307,0.886-2.142,0.886
					c-0.836,0-1.551-0.293-2.141-0.886c-0.592-0.594-0.889-1.308-0.889-2.142s0.297-1.549,0.889-2.141
					c0.59-0.592,1.304-0.887,2.141-0.887C19.568,31.872,20.282,32.166,20.875,32.759z M28.759,36.232
					c0.888,0.885,1.333,1.956,1.333,3.212c0,1.254-0.446,2.325-1.333,3.212c-0.888,0.886-1.957,1.331-3.209,1.331
					c-1.255,0-2.326-0.444-3.212-1.331c-0.888-0.887-1.333-1.959-1.333-3.212c0-1.257,0.446-2.327,1.333-3.213
					c0.886-0.885,1.958-1.328,3.212-1.328C26.802,34.903,27.872,35.346,28.759,36.232z M36.906,42.107
					c0,0.616-0.223,1.081-0.663,1.399c-0.443,0.32-0.985,0.481-1.633,0.481h-1.583c-0.815-0.971-1.86-1.475-3.138-1.516
					c0.64-0.922,0.96-1.932,0.96-3.027c0-0.231-0.022-0.492-0.061-0.783c0.519,0.18,1.042,0.271,1.574,0.271
					c0.463,0,0.932-0.084,1.405-0.254c0.473-0.166,0.859-0.333,1.154-0.5c0.296-0.167,0.468-0.249,0.514-0.249
					C36.416,37.929,36.906,39.322,36.906,42.107z M34.504,32.759c0.592,0.593,0.889,1.307,0.889,2.141s-0.297,1.549-0.889,2.142
					c-0.591,0.593-1.304,0.886-2.141,0.886c-0.836,0-1.552-0.293-2.142-0.886c-0.591-0.594-0.888-1.308-0.888-2.142
					s0.296-1.549,0.888-2.141c0.591-0.592,1.305-0.887,2.142-0.887C33.2,31.872,33.913,32.166,34.504,32.759z"/>
			</g>
		</g>
	</g>
	<text transform="matrix(1.0561 0 0 1 156.2717 79.3918)" fill="#d22e2a" font-family="'DINAlternate-Bold'" font-size="22.21">COMMUNITY</text>
</g>
</svg>
