<?xml version="1.0" encoding="utf-8"?>
<!-- Generator: Adobe Illustrator 15.1.0, SVG Export Plug-In . SVG Version: 6.00 Build 0)  -->
<!DOCTYPE svg PUBLIC "-//W3C//DTD SVG 1.1//EN" "http://www.w3.org/Graphics/SVG/1.1/DTD/svg11.dtd">
<svg version="1.1" id="Calque_1" xmlns="http://www.w3.org/2000/svg" xmlns:xlink="http://www.w3.org/1999/xlink" x="0px" y="0px"
	 width="227.7px" height="91.1px" viewBox="0 0 227.7 91.1" enable-background="new 0 0 227.7 91.1" xml:space="preserve">
<g opacity="0.15">
	<g>
		<g>
			<g>
				<defs>
					<rect id="SVGID_1_" x="4.848" y="21.855" width="218.004" height="52.027"/>
				</defs>
				<clipPath id="SVGID_2_">
					<use xlink:href="#SVGID_1_"  overflow="visible"/>
				</clipPath>
				<polyline clip-path="url(#SVGID_2_)" fill="#D87C70" points="36.388,34.69 26.207,28.821 26.206,21.854 42.351,31.104 
					36.388,34.69 				"/>
			</g>
		</g>
		<polyline fill="#B21412" points="35.838,37.993 23.382,30.801 23.384,23.728 4.848,34.428 4.848,55.831 23.384,66.534 
			41.918,55.831 41.918,34.472 35.838,37.993 		"/>
		<path fill="#EDEDED" d="M109.73,48.101l2.913-9.45l3.928,9.45H109.73L109.73,48.101z M113.139,34.527
			c-2.406,0-3.952,0.898-4.718,2.746l-8.162,19.439h5.787l2.081-4.971h9.98l2.078,4.971h5.789l-8.16-19.439
			C117.04,35.426,115.513,34.527,113.139,34.527L113.139,34.527z"/>
		<path fill="#EDEDED" d="M59.183,38.696c0.26-0.055,0.33-0.09,0.337-0.093l0.106-0.054h9.061l1.982-3.894H58.006
			c-3.355,0-5.239,1.16-5.751,3.547c-0.08,0.346-0.116,0.652-0.116,0.917v13.193c0,2.873,2.226,4.273,6.803,4.273h9.746l1.983-3.961
			H59.917c-1.922-0.143-2.206-1.336-2.206-2.033v-3.059h9.986l1.983-3.958H57.711V40.52C57.711,39.617,58.235,38.969,59.183,38.696
			L59.183,38.696z"/>
		<path fill="#EDEDED" d="M157.348,35.344c-0.953-0.732-2.238-1.105-3.811-1.105c-0.57,0-1.146,0.04-1.717,0.122
			c-1.842,0.309-2.963,1.133-3.416,2.523l-4.754,14.837l-4.287-14.854c-0.396-1.377-1.529-2.198-3.457-2.506
			c-0.561-0.083-1.119-0.123-1.664-0.123c-1.605,0-2.902,0.373-3.854,1.104c-0.926,0.715-1.375,1.605-1.375,2.725v18.419h5.279
			V37.504l5.699,16.714c0.637,1.869,1.895,2.781,3.854,2.781c1.557,0,2.629-0.49,3.271-1.49c0.27-0.361,0.469-0.781,0.623-1.275
			l5.746-16.705v18.963h5.236V38.068C158.723,36.95,158.272,36.06,157.348,35.344L157.348,35.344z"/>
		<polygon fill="#EDEDED" points="72.666,56.663 82.152,45.375 73.148,34.574 80.542,34.574 85.365,40.771 90.508,34.574 
			97.904,34.574 88.901,45.375 98.389,56.663 90.987,56.663 85.325,49.853 80.062,56.663 		"/>
		<polygon fill="#EDEDED" points="163.899,48.146 163.899,34.31 170.127,34.31 170.127,48.146 		"/>
		<path fill="#EDEDED" d="M175.756,56.63V38.899c0-1.35,0.422-2.456,1.264-3.313c0.844-0.858,1.9-1.29,3.174-1.29
			c0.576,0,1.164,0.082,1.766,0.247c1.477,0.491,2.977,3.376,2.977,3.376l7.742,12.762V34.543h5.094v18.285
			c0,1.145-0.416,2.104-1.248,2.883c-0.832,0.777-1.871,1.186-3.117,1.227c-2.402,0.082-4.746-3.742-4.746-3.742l-7.775-12.701
			V56.63H175.756L175.756,56.63z"/>
		<path fill="#EDEDED" d="M208.063,51.878h6.391c0.697,0,1.154-0.041,1.365-0.123c0.432-0.205,0.686-0.693,0.766-1.473
			c0.025-0.041,0.039-0.143,0.039-0.307v-9.631c-0.188-0.696-0.924-1.044-2.211-1.044h-6.35V51.878L208.063,51.878z M201.836,56.663
			V34.574h14.787c4.152,0,6.229,1.617,6.229,4.848v12.394c0,0.205-0.025,0.471-0.08,0.797c-0.428,2.699-2.396,4.051-5.904,4.051
			H201.836L201.836,56.663z"/>
		<path fill="#B21412" d="M170.127,53.702c0,1.721-1.391,3.115-3.111,3.115s-3.113-1.395-3.113-3.115
			c0-1.717,1.393-3.113,3.113-3.113C168.735,50.589,170.127,51.984,170.127,53.702L170.127,53.702z"/>
		<g>
			<g>
				<path fill="#FFFFFF" d="M20.213,47.128c-0.926,0.031-1.684,0.396-2.273,1.1h-1.148c-0.468,0-0.863-0.117-1.182-0.35
					c-0.321-0.23-0.48-0.566-0.48-1.014c0-2.018,0.354-3.027,1.064-3.027c0.033,0,0.156,0.06,0.372,0.181
					c0.214,0.12,0.494,0.241,0.835,0.363c0.343,0.123,0.684,0.184,1.02,0.184c0.385,0,0.764-0.066,1.14-0.197
					c-0.026,0.211-0.042,0.4-0.042,0.567C19.521,45.728,19.75,46.46,20.213,47.128z M29.396,52.593c0,0.686-0.208,1.227-0.626,1.621
					c-0.419,0.398-0.973,0.598-1.664,0.598h-7.491c-0.691,0-1.244-0.199-1.664-0.598c-0.419-0.395-0.625-0.938-0.625-1.621
					c0-0.307,0.008-0.6,0.029-0.889s0.061-0.602,0.121-0.938c0.059-0.334,0.135-0.645,0.228-0.93
					c0.092-0.285,0.215-0.562,0.368-0.834c0.154-0.273,0.333-0.502,0.53-0.695c0.201-0.188,0.444-0.344,0.735-0.457
					c0.289-0.113,0.607-0.172,0.955-0.172c0.058,0,0.18,0.061,0.369,0.184c0.188,0.121,0.396,0.258,0.625,0.41
					c0.228,0.152,0.533,0.289,0.917,0.41c0.383,0.123,0.768,0.186,1.158,0.186c0.386,0,0.773-0.062,1.157-0.186
					c0.383-0.121,0.689-0.258,0.917-0.41c0.23-0.152,0.437-0.289,0.626-0.41c0.187-0.123,0.311-0.184,0.369-0.184
					c0.347,0,0.666,0.057,0.954,0.172c0.291,0.113,0.533,0.27,0.734,0.457c0.2,0.193,0.377,0.422,0.532,0.695
					c0.155,0.271,0.277,0.549,0.368,0.834c0.092,0.285,0.166,0.596,0.228,0.93c0.059,0.336,0.099,0.648,0.12,0.938
					C29.385,51.993,29.396,52.286,29.396,52.593z M19.974,40.092c0.429,0.429,0.643,0.947,0.643,1.551
					c0,0.604-0.214,1.122-0.643,1.552c-0.431,0.43-0.947,0.642-1.552,0.642c-0.606,0-1.124-0.212-1.551-0.642
					c-0.429-0.43-0.644-0.948-0.644-1.552c0-0.604,0.215-1.123,0.644-1.551c0.428-0.43,0.945-0.643,1.551-0.643
					C19.026,39.449,19.543,39.662,19.974,40.092z M25.686,42.608c0.644,0.641,0.966,1.418,0.966,2.328
					c0,0.909-0.323,1.685-0.966,2.327c-0.643,0.643-1.418,0.965-2.325,0.965c-0.91,0-1.686-0.322-2.328-0.965
					c-0.643-0.643-0.965-1.42-0.965-2.327c0-0.911,0.323-1.687,0.965-2.329c0.642-0.641,1.419-0.962,2.328-0.962
					C24.269,41.645,25.043,41.966,25.686,42.608z M31.59,46.865c0,0.447-0.162,0.783-0.48,1.014c-0.321,0.232-0.713,0.35-1.183,0.35
					H28.78c-0.591-0.703-1.348-1.068-2.273-1.1c0.464-0.668,0.695-1.4,0.695-2.192c0-0.167-0.016-0.356-0.044-0.567
					c0.376,0.13,0.755,0.197,1.141,0.197c0.335,0,0.675-0.061,1.019-0.184c0.342-0.12,0.623-0.242,0.836-0.363
					c0.214-0.121,0.339-0.181,0.372-0.181C31.234,43.838,31.59,44.847,31.59,46.865z M29.849,40.092
					c0.429,0.429,0.644,0.947,0.644,1.551c0,0.604-0.215,1.122-0.644,1.552c-0.429,0.43-0.945,0.642-1.551,0.642
					c-0.606,0-1.125-0.212-1.552-0.642c-0.429-0.43-0.643-0.948-0.643-1.552c0-0.604,0.214-1.123,0.643-1.551
					c0.428-0.43,0.946-0.643,1.552-0.643C28.904,39.449,29.42,39.662,29.849,40.092z"/>
			</g>
		</g>
	</g>
	<text transform="matrix(1.0561 0 0 1 118.5728 73.8821)" fill="#B21412" font-family="'DINAlternate-Bold'" font-size="16.0932">COMMUNITY</text>
</g>
</svg>
