<?xml version="1.0" encoding="utf-8"?>
<!-- Generator: Adobe Illustrator 15.1.0, SVG Export Plug-In . SVG Version: 6.00 Build 0)  -->
<!DOCTYPE svg PUBLIC "-//W3C//DTD SVG 1.1//EN" "http://www.w3.org/Graphics/SVG/1.1/DTD/svg11.dtd">
<svg version="1.1" id="Calque_1" xmlns="http://www.w3.org/2000/svg" xmlns:xlink="http://www.w3.org/1999/xlink" x="0px" y="0px"
	 width="380px" height="91.1px" viewBox="0 0 380 91.1" enable-background="new 0 0 380 91.1" xml:space="preserve">
<g>
	<g>
		<g>
			<g>
				<defs>
					<rect id="SVGID_1_" x="5.133" y="1.469" width="370.327" height="88.377"/>
				</defs>
				<clipPath id="SVGID_2_">
					<use xlink:href="#SVGID_1_"  overflow="visible"/>
				</clipPath>
				<polyline clip-path="url(#SVGID_2_)" fill="#D87C70" points="58.711,23.273 41.415,13.302 41.414,1.466 68.84,17.18
					58.711,23.273 				"/>
			</g>
		</g>
		<polyline fill="#d22e2a" points="57.777,28.884 36.617,16.665 36.62,4.651 5.133,22.827 5.133,59.185 36.62,77.366 68.105,59.185
			68.105,22.902 57.777,28.884 		"/>
		<path fill="#EDEDED" d="M183.298,46.051L188.245,30l6.671,16.051H183.298L183.298,46.051z M189.086,22.995
			c-4.087,0-6.712,1.526-8.015,4.665l-13.863,33.021h9.828l3.536-8.444h16.952l3.531,8.444h9.835l-13.864-33.021
			C195.714,24.521,193.121,22.995,189.086,22.995L189.086,22.995z"/>
		<path fill="#EDEDED" d="M97.432,30.077c0.442-0.094,0.56-0.154,0.573-0.157l0.18-0.093h15.391l3.368-6.615H95.433
			c-5.699,0-8.899,1.97-9.769,6.026c-0.135,0.587-0.198,1.108-0.198,1.556v22.411c0,4.881,3.781,7.259,11.556,7.259h16.556
			l3.369-6.728H98.679c-3.265-0.242-3.747-2.269-3.747-3.453v-5.195h16.963l3.367-6.725H94.932v-5.187
			C94.932,31.641,95.822,30.541,97.432,30.077L97.432,30.077z"/>
		<path fill="#EDEDED" d="M264.187,24.383c-1.619-1.243-3.801-1.876-6.475-1.876c-0.967,0-1.946,0.067-2.914,0.207
			c-3.13,0.525-5.034,1.925-5.802,4.285l-8.078,25.203l-7.281-25.232c-0.675-2.338-2.597-3.733-5.871-4.257
			c-0.954-0.139-1.904-0.208-2.828-0.208c-2.728,0-4.93,0.633-6.546,1.876c-1.572,1.214-2.337,2.726-2.337,4.627v31.292h8.967
			v-32.25l9.684,28.393c1.079,3.175,3.218,4.723,6.546,4.723c2.645,0,4.465-0.83,5.556-2.529c0.457-0.615,0.798-1.329,1.058-2.168
			l9.763-28.375v32.209h8.896V29.01C266.523,27.112,265.756,25.599,264.187,24.383L264.187,24.383z"/>
		<polygon fill="#EDEDED" points="120.335,60.596 136.45,41.421 121.156,23.075 133.715,23.075 141.907,33.601 150.644,23.075 
			163.208,23.075 147.915,41.421 164.03,60.596 151.458,60.596 141.841,49.029 132.899,60.596 		"/>
		<polygon fill="#EDEDED" points="275.315,46.13 275.315,22.626 285.896,22.626 285.896,46.13 		"/>
		<path fill="#EDEDED" d="M295.459,60.541v-30.12c0-2.294,0.715-4.17,2.143-5.627c1.437-1.458,3.229-2.19,5.393-2.19
			c0.979,0,1.976,0.139,2.998,0.418c2.51,0.834,5.059,5.735,5.059,5.735l13.151,21.679V23.022h8.652v31.061
			c0,1.945-0.706,3.574-2.12,4.895c-1.414,1.324-3.18,2.017-5.297,2.087c-4.082,0.139-8.061-6.358-8.061-6.358l-13.209-21.574v27.41
			H295.459L295.459,60.541z"/>
		<path fill="#EDEDED" d="M350.337,52.468h10.854c1.184,0,1.963-0.068,2.319-0.209c0.733-0.346,1.164-1.177,1.299-2.501
			c0.044-0.068,0.068-0.242,0.068-0.52V32.878c-0.316-1.182-1.568-1.773-3.755-1.773h-10.785V52.468L350.337,52.468z
			 M339.758,60.596V23.075h25.119c7.057,0,10.583,2.747,10.583,8.235v21.052c0,0.349-0.043,0.802-0.137,1.355
			c-0.728,4.585-4.074,6.878-10.031,6.878H339.758L339.758,60.596z"/>
		<path fill="#d22e2a" d="M285.896,55.57c0,2.921-2.364,5.289-5.288,5.289c-2.921,0-5.289-2.368-5.289-5.289
			c0-2.919,2.368-5.289,5.289-5.289C283.528,50.279,285.896,52.648,285.896,55.57L285.896,55.57z"/>
		<g>
			<g>
				<path fill="#FFFFFF" d="M31.233,44.402c-1.572,0.051-2.861,0.671-3.861,1.866h-1.95c-0.796,0-1.466-0.198-2.008-0.593
					c-0.546-0.392-0.816-0.964-0.816-1.722c0-3.428,0.601-5.143,1.807-5.143c0.056,0,0.265,0.101,0.632,0.307
					c0.364,0.205,0.839,0.411,1.419,0.616c0.583,0.209,1.161,0.313,1.731,0.313c0.654,0,1.298-0.113,1.938-0.334
					c-0.045,0.358-0.07,0.679-0.07,0.963C30.057,42.024,30.447,43.267,31.233,44.402z M46.832,53.684
					c0,1.163-0.353,2.084-1.064,2.755c-0.712,0.677-1.653,1.013-2.827,1.013H30.217c-1.175,0-2.114-0.339-2.827-1.013
					c-0.712-0.671-1.063-1.594-1.063-2.755c0-0.52,0.014-1.019,0.049-1.509c0.036-0.49,0.104-1.021,0.205-1.594
					c0.1-0.567,0.229-1.094,0.387-1.578c0.155-0.484,0.366-0.958,0.624-1.419c0.262-0.463,0.565-0.854,0.901-1.179
					c0.341-0.321,0.754-0.585,1.249-0.778c0.491-0.193,1.031-0.293,1.622-0.293c0.099,0,0.307,0.104,0.627,0.313
					c0.32,0.205,0.673,0.439,1.062,0.696c0.387,0.259,0.906,0.49,1.559,0.699c0.65,0.208,1.304,0.312,1.966,0.312
					c0.656,0,1.314-0.104,1.965-0.312c0.651-0.209,1.17-0.44,1.558-0.699c0.391-0.257,0.743-0.491,1.063-0.696
					c0.318-0.209,0.528-0.313,0.627-0.313c0.589,0,1.131,0.097,1.622,0.293c0.494,0.193,0.905,0.457,1.246,0.778
					c0.34,0.325,0.642,0.716,0.904,1.179c0.264,0.461,0.471,0.935,0.625,1.419c0.156,0.484,0.282,1.011,0.387,1.578
					c0.1,0.572,0.169,1.104,0.204,1.594C46.814,52.665,46.832,53.164,46.832,53.684z M30.827,32.447
					c0.729,0.729,1.091,1.608,1.091,2.635c0,1.027-0.363,1.907-1.091,2.637c-0.731,0.73-1.609,1.091-2.636,1.091
					c-1.029,0-1.909-0.361-2.635-1.091c-0.729-0.731-1.094-1.609-1.094-2.637c0-1.027,0.366-1.907,1.094-2.635
					c0.727-0.729,1.605-1.091,2.635-1.091C29.218,31.356,30.097,31.718,30.827,32.447z M40.53,36.722
					c1.093,1.089,1.642,2.408,1.642,3.954c0,1.543-0.549,2.862-1.642,3.954c-1.092,1.091-2.409,1.638-3.95,1.638
					c-1.545,0-2.863-0.547-3.954-1.638c-1.093-1.092-1.64-2.412-1.64-3.954c0-1.547,0.549-2.865,1.64-3.956
					c1.091-1.089,2.41-1.634,3.954-1.634C38.123,35.086,39.439,35.632,40.53,36.722z M50.56,43.953c0,0.758-0.274,1.33-0.816,1.722
					c-0.545,0.395-1.212,0.593-2.01,0.593h-1.948c-1.003-1.195-2.289-1.815-3.862-1.866c0.788-1.135,1.182-2.378,1.182-3.726
					c0-0.284-0.028-0.605-0.075-0.963c0.639,0.221,1.283,0.334,1.938,0.334c0.57,0,1.147-0.104,1.73-0.313
					c0.582-0.205,1.058-0.411,1.42-0.616c0.364-0.206,0.577-0.307,0.632-0.307C49.956,38.811,50.56,40.526,50.56,43.953z
					 M47.603,32.447c0.729,0.729,1.094,1.608,1.094,2.635c0,1.027-0.365,1.907-1.094,2.637c-0.728,0.73-1.604,1.091-2.635,1.091
					c-1.03,0-1.91-0.361-2.636-1.091c-0.728-0.731-1.092-1.609-1.092-2.637c0-1.027,0.365-1.907,1.092-2.635
					c0.728-0.729,1.606-1.091,2.636-1.091C45.998,31.356,46.875,31.718,47.603,32.447z"/>
			</g>
		</g>
	</g>
	<text transform="matrix(1.0561 0 0 1 195.0996 89.8459)" fill="#d22e2a" font-family="'DINAlternate-Bold'" font-size="27.3375">COMMUNITY</text>
</g>
</svg>
