<?xml version="1.0" encoding="utf-8"?>
<!-- Generator: Adobe Illustrator 15.1.0, SVG Export Plug-In . SVG Version: 6.00 Build 0)  -->
<!DOCTYPE svg PUBLIC "-//W3C//DTD SVG 1.1//EN" "http://www.w3.org/Graphics/SVG/1.1/DTD/svg11.dtd">
<svg version="1.1" id="Calque_1" xmlns="http://www.w3.org/2000/svg" xmlns:xlink="http://www.w3.org/1999/xlink" x="0px" y="0px"
	 width="154px" height="38.67px" viewBox="0 0 154 38.67" enable-background="new 0 0 154 38.67" xml:space="preserve">
<g>
	<g>
		<g>
			<g>
				<defs>
					<rect id="SVGID_1_" x="1.345" y="1.635" width="152.584" height="36.415"/>
				</defs>
				<clipPath id="SVGID_2_">
					<use xlink:href="#SVGID_1_"  overflow="visible"/>
				</clipPath>
				<polyline clip-path="url(#SVGID_2_)" fill="#D87C70" points="23.42,10.619 16.294,6.511 16.294,1.634 27.594,8.109
					23.42,10.619 				"/>
			</g>
		</g>
		<polyline fill="#d22e2a" points="23.035,12.931 14.317,7.896 14.318,2.946 1.345,10.436 1.345,25.415 14.318,32.907
			27.291,25.415 27.291,10.466 23.035,12.931 		"/>
		<path fill="#EDEDED" d="M74.754,20.006l2.039-6.615l2.747,6.615H74.754L74.754,20.006z M77.139,10.505
			c-1.684,0-2.766,0.629-3.303,1.921l-5.711,13.606h4.05l1.457-3.479h6.984l1.454,3.479h4.052l-5.712-13.606
			C79.869,11.134,78.8,10.505,77.139,10.505L77.139,10.505z"/>
		<path fill="#EDEDED" d="M39.375,13.423c0.182-0.039,0.23-0.063,0.236-0.065l0.074-0.038h6.341l1.388-2.726h-8.864
			c-2.349,0-3.667,0.812-4.025,2.482c-0.056,0.242-0.081,0.457-0.081,0.641v9.233c0,2.012,1.557,2.992,4.76,2.992h6.822l1.388-2.772
			h-7.526c-1.346-0.101-1.544-0.936-1.544-1.423v-2.14h6.989l1.387-2.771h-8.376V14.7C38.345,14.067,38.711,13.614,39.375,13.423
			L39.375,13.423z"/>
		<path fill="#EDEDED" d="M108.082,11.077c-0.668-0.512-1.566-0.773-2.671-0.773c-0.396,0-0.801,0.028-1.198,0.086
			c-1.289,0.216-2.073,0.793-2.392,1.765L98.493,22.54l-2.999-10.397c-0.278-0.963-1.07-1.538-2.419-1.755
			c-0.393-0.057-0.786-0.085-1.165-0.085c-1.124,0-2.031,0.261-2.698,0.773c-0.648,0.5-0.962,1.124-0.962,1.907v12.894h3.693V12.588
			l3.991,11.699c0.444,1.309,1.326,1.945,2.696,1.945c1.09,0,1.839-0.342,2.291-1.041c0.187-0.254,0.326-0.549,0.434-0.895
			l4.024-11.69v13.271h3.663V12.983C109.043,12.201,108.729,11.578,108.082,11.077L108.082,11.077z"/>
		<polygon fill="#EDEDED" points="48.811,25.998 55.451,18.098 49.149,10.538 54.324,10.538 57.7,14.875 61.299,10.538 
			66.476,10.538 60.175,18.098 66.814,25.998 61.635,25.998 57.672,21.231 53.988,25.998 		"/>
		<polygon fill="#EDEDED" points="112.666,20.037 112.666,10.353 117.026,10.353 117.026,20.037 		"/>
		<path fill="#EDEDED" d="M120.966,25.975v-12.41c0-0.945,0.295-1.718,0.883-2.318c0.594-0.601,1.332-0.902,2.223-0.902
			c0.402,0,0.813,0.057,1.235,0.172c1.034,0.344,2.085,2.363,2.085,2.363l5.418,8.933V10.516h3.566v12.798
			c0,0.8-0.293,1.472-0.875,2.016c-0.583,0.547-1.311,0.832-2.183,0.859c-1.681,0.059-3.321-2.619-3.321-2.619l-5.442-8.889v11.293
			H120.966L120.966,25.975z"/>
		<path fill="#EDEDED" d="M143.577,22.65h4.473c0.487,0,0.81-0.029,0.955-0.087c0.302-0.144,0.481-0.485,0.534-1.031
			c0.02-0.029,0.029-0.101,0.029-0.214v-6.742c-0.13-0.486-0.646-0.729-1.546-0.729h-4.445V22.65L143.577,22.65z M139.219,25.998
			v-15.46h10.35c2.906,0,4.36,1.132,4.36,3.393v8.675c0,0.143-0.018,0.332-0.057,0.558c-0.299,1.891-1.679,2.835-4.133,2.835
			H139.219L139.219,25.998z"/>
		<path fill="#d22e2a" d="M117.026,23.926c0,1.204-0.975,2.181-2.179,2.181c-1.203,0-2.182-0.977-2.182-2.181
			c0-1.203,0.979-2.178,2.182-2.178C116.05,21.746,117.026,22.723,117.026,23.926L117.026,23.926z"/>
		<g>
			<g>
				<path fill="#FFFFFF" d="M12.099,19.325c-0.647,0.02-1.179,0.275-1.59,0.769H9.705c-0.328,0-0.604-0.082-0.827-0.243
					c-0.225-0.161-0.336-0.397-0.336-0.71c0-1.413,0.248-2.12,0.745-2.12c0.023,0,0.109,0.041,0.26,0.128
					c0.15,0.084,0.346,0.169,0.585,0.253c0.24,0.087,0.478,0.13,0.713,0.13c0.27,0,0.535-0.047,0.798-0.138
					c-0.019,0.147-0.029,0.279-0.029,0.396C11.614,18.345,11.775,18.857,12.099,19.325z M18.526,23.149
					c0,0.479-0.145,0.858-0.438,1.134c-0.294,0.279-0.682,0.418-1.165,0.418H11.68c-0.484,0-0.871-0.139-1.165-0.418
					c-0.293-0.275-0.438-0.654-0.438-1.134c0-0.212,0.006-0.419,0.02-0.621c0.015-0.204,0.043-0.423,0.084-0.658
					c0.042-0.233,0.094-0.45,0.159-0.648c0.064-0.2,0.151-0.395,0.258-0.586c0.107-0.19,0.232-0.352,0.371-0.485
					c0.14-0.131,0.311-0.241,0.514-0.32c0.202-0.08,0.424-0.121,0.668-0.121c0.042,0,0.126,0.043,0.259,0.129
					c0.132,0.085,0.276,0.182,0.437,0.287c0.16,0.106,0.374,0.203,0.643,0.289c0.268,0.085,0.538,0.128,0.81,0.128
					c0.27,0,0.542-0.043,0.81-0.128c0.268-0.086,0.482-0.183,0.642-0.289c0.161-0.105,0.306-0.202,0.438-0.287
					c0.131-0.086,0.217-0.129,0.258-0.129c0.243,0,0.465,0.041,0.668,0.121c0.204,0.079,0.373,0.189,0.513,0.32
					c0.14,0.134,0.265,0.295,0.373,0.485c0.109,0.191,0.194,0.386,0.257,0.586c0.065,0.198,0.116,0.415,0.159,0.648
					c0.041,0.235,0.07,0.454,0.084,0.658C18.519,22.73,18.526,22.938,18.526,23.149z M11.931,14.399
					c0.3,0.301,0.45,0.662,0.45,1.086c0,0.423-0.149,0.785-0.45,1.086c-0.301,0.301-0.662,0.449-1.086,0.449
					c-0.423,0-0.786-0.148-1.085-0.449c-0.3-0.302-0.451-0.663-0.451-1.086c0-0.424,0.151-0.785,0.451-1.086
					c0.299-0.301,0.662-0.45,1.085-0.45C11.269,13.949,11.63,14.099,11.931,14.399z M15.93,16.162
					c0.451,0.448,0.676,0.99,0.676,1.627s-0.226,1.181-0.676,1.629c-0.45,0.45-0.993,0.676-1.628,0.676
					c-0.636,0-1.18-0.226-1.629-0.676c-0.45-0.448-0.675-0.992-0.675-1.629s0.225-1.179,0.675-1.629
					c0.449-0.448,0.993-0.673,1.629-0.673S15.48,15.712,15.93,16.162z M20.062,19.141c0,0.312-0.113,0.549-0.336,0.71
					c-0.225,0.161-0.499,0.243-0.828,0.243h-0.803c-0.413-0.493-0.943-0.749-1.591-0.769c0.325-0.468,0.487-0.98,0.487-1.536
					c0-0.116-0.011-0.248-0.031-0.396c0.263,0.091,0.528,0.138,0.799,0.138c0.235,0,0.472-0.043,0.712-0.13
					c0.24-0.084,0.436-0.169,0.586-0.253c0.15-0.087,0.237-0.128,0.26-0.128C19.813,17.021,20.062,17.728,20.062,19.141z
					 M18.843,14.399c0.301,0.301,0.451,0.662,0.451,1.086c0,0.423-0.15,0.785-0.451,1.086c-0.3,0.301-0.661,0.449-1.085,0.449
					c-0.425,0-0.788-0.148-1.086-0.449c-0.3-0.302-0.45-0.663-0.45-1.086c0-0.424,0.15-0.785,0.45-1.086
					c0.299-0.301,0.662-0.45,1.086-0.45C18.182,13.949,18.543,14.099,18.843,14.399z"/>
			</g>
		</g>
	</g>
	<text transform="matrix(1.0561 0 0 1 79.7402 38.0508)" fill="#d22e2a" font-family="'DINAlternate-Bold'" font-size="11.2638">COMMUNITY</text>
</g>
</svg>
