<svg width="150" height="120" xmlns="http://www.w3.org/2000/svg" xmlns:svg="http://www.w3.org/2000/svg">
    <g>
        <title>Layer 1</title>
        <g stroke="null" id="svg_2" opacity="0.75">
            <g stroke="null" id="svg_3">
                <path stroke="null" id="svg_4" d="m125.9,58.24433l-1.5,-8.81354c-20.8,3.09411 -35,21.47128 -31.7,40.97358l9.4,-1.40642c-2.4,-14.62672 8.2,-28.4096 23.8,-30.75362z" fill="#E3E3E3"/>
                <path stroke="null" id="svg_5" d="m113.1,33.86646l-1.5,-8.81354c-31.3,4.68805 -52.6,32.34756 -47.6,61.69477l9.5,-1.40642c-4.2,-24.5654 13.5,-47.53685 39.6,-51.47482l0,0.00001z" fill="#E3E3E3" opacity="0.75"/>
                <path stroke="null" id="svg_6" d="m100.2,9.58234l-1.5,-9.28234c-42,6.37575 -70.5,43.31761 -63.8,82.60349l9.8,-1.50018c-5.8,-34.22278 19,-66.38282 55.5,-71.82096l0,-0.00001z" fill="#E3E3E3" opacity="0.5"/>
                <path stroke="null" id="svg_7" d="m143.7,97.53021c1.4,0 2.5,-1.03137 2.5,-2.34403l0,-7.2196l0,-0.09376l0,0l0,-12.65774c-1.2,-1.03137 -2.5,-1.96898 -4,-2.71907c-8.5,-4.12549 -19,-1.12513 -23.4,6.84456c-3.4,6.09447 -2.3,13.31407 2.3,18.2834l13.2,0l9.4,-0.09376l0,0z" fill="#E3E3E3"/>
            </g>
        </g>
        <g id="svg_12">
            <path stroke="null" id="svg_9" d="m24.45,79.90322c0,5.34438 -4.1,8.06345 -12.4,8.06345c-2.8,0 -5.4,-0.28128 -7.8,-0.93761l1.1,-4.59429c2.4,0.75009 4.6,1.12513 6.7,1.12513c2.3,0 4,-0.18752 5.1,-0.65633c1,-0.46881 1.5,-1.12513 1.5,-2.1565s-0.5,-1.87522 -1.5,-2.62531c-0.8,-0.65633 -2.5,-1.40642 -5.1,-2.43779c-2.3,-0.93761 -4,-1.96898 -5.2,-3.00035c-1.4,-1.40642 -2.1,-3.09411 -2.1,-5.15686c0,-2.34403 0.9,-4.21925 2.8,-5.5319s4.5,-1.96898 8,-1.96898c2.9,0 5.3,0.18752 7.2,0.65633l-0.7,4.50053c-2,-0.65633 -4.1,-1.03137 -6.4,-1.03137c-3.5,0 -5.2,0.84385 -5.2,2.62531c0,0.93761 0.4,1.6877 1.2,2.25027c0.7,0.46881 2.2,1.21889 4.6,2.06274c2.5,0.93761 4.4,1.96898 5.6,3.09411c1.7,1.59394 2.6,3.46916 2.6,5.71942z" fill="#CCCCCB"/>
            <path stroke="null" id="svg_10" d="m52.17,60.07434l-0.1,4.40677c-2.9,-0.18752 -5.7,-0.28128 -8.3,-0.28128l0,8.62602c0,4.96934 0.1,9.65739 0.2,14.06416l-6.1,0c0.2,-4.40677 0.3,-9.09482 0.3,-14.06416c0,-3.09411 0,-6.00071 -0.1,-8.62602c-2.1,0 -4.9,0.09376 -8.5,0.28128l0.2,-4.50053l22.4,0.09376z" fill="#CDCCCB"/>
            <path stroke="null" id="svg_11" d="m77.5,79.90322c0,5.34438 -4.1,8.06345 -12.3,8.06345c-2.8,0 -5.4,-0.28128 -7.8,-0.93761l1.1,-4.59429c2.4,0.75009 4.6,1.12513 6.7,1.12513c2.3,0 4,-0.18752 5,-0.65633s1.5,-1.12513 1.5,-2.1565s-0.5,-1.87522 -1.5,-2.62531c-0.8,-0.65633 -2.5,-1.40642 -5.1,-2.43779c-2.3,-0.93761 -4,-1.96898 -5.2,-3.00035c-1.4,-1.40642 -2.1,-3.09411 -2.1,-5.15686c0,-2.34403 0.9,-4.21925 2.8,-5.5319c1.9,-1.31265 4.6,-1.96898 8.1,-1.96898c2.9,0 5.3,0.18752 7.2,0.65633l-0.7,4.50053c-2,-0.65633 -4.1,-1.03137 -6.4,-1.03137c-3.5,0 -5.2,0.84385 -5.2,2.62531c0,0.93761 0.4,1.6877 1.2,2.25027c0.7,0.46881 2.2,1.21889 4.6,2.06274c2.5,0.93761 4.4,1.96898 5.6,3.09411c1.7,1.59394 2.5,3.46916 2.5,5.71942z" fill="#CCCCCB"/>
        </g>
    </g>
</svg>
