<?xml version="1.0" encoding="utf-8"?>
<!-- Generator: Adobe Illustrator 15.1.0, SVG Export Plug-In . SVG Version: 6.00 Build 0)  -->
<!DOCTYPE svg PUBLIC "-//W3C//DTD SVG 1.1//EN" "http://www.w3.org/Graphics/SVG/1.1/DTD/svg11.dtd">
<svg version="1.1" id="Calque_1" xmlns="http://www.w3.org/2000/svg" xmlns:xlink="http://www.w3.org/1999/xlink" x="0px" y="0px"
	 width="872px" height="432.3px" viewBox="0 0 872 432.3" enable-background="new 0 0 872 432.3" xml:space="preserve">
<path fill="#D0CCDF" d="M0,0.1h872v71.3H0V0.1z"/>
<path opacity="0.13" fill="#3D3D3C" stroke="#010202" stroke-width="2" enable-background="new    " d="M312.843,16.018
	l-2.899-0.014l0.014-3l2.9,0.014L312.843,16.018z M292.922,66.1l-2.9-0.012l0.014-3l2.9,0.013L292.922,66.1z M299.66,7.84
	l-2.9-0.012l0.014-3l2.9,0.013L299.66,7.84z M389.427,64.237l-2.899-0.014l0.014-3l2.9,0.014L389.427,64.237z M403.45,20.964
	l-3-0.016l0.015-3l3,0.016L403.45,20.964z M422.908,10.88l-3-0.014l0.016-3l3,0.015L422.908,10.88z M485.453,10.72l-3-0.016l0.015-3
	l3,0.015L485.453,10.72z M507.454,14.6l-3-0.016l0.016-3l3,0.016L507.454,14.6z M534.878,40.215l-3-0.016l0.016-3l3,0.015
	L534.878,40.215z M484.032,38.782l-3-0.016l0.016-3l3,0.016L484.032,38.782z M455.072,64.262l-2.9-0.015l0.016-3l2.9,0.015
	L455.072,64.262z M493.454,61.22l-3-0.015l0.016-3l3,0.016L493.454,61.22z M506.036,55.962l-3-0.015l0.016-3l3,0.015L506.036,55.962
	z M560.532,49.97l-3-0.015l0.014-3l3,0.014L560.532,49.97z M216.178,48.347l-3-0.013l0.013-3l3,0.013L216.178,48.347z M276.64,31.62
	l-2.9-0.012l0.013-3l2.9,0.013L276.64,31.62z M251.943,54.602l-2.9-0.013l0.015-3l2.9,0.012L251.943,54.602z M368.386,14.576
	l-2.899-0.01l0.012-3l2.9,0.01L368.386,14.576z M209.936,33.425l-3-0.014l0.014-3l3,0.015L209.936,33.425z M103.895,36.453l-3-0.014
	l0.014-3l3,0.013L103.895,36.453z M75.676,9.232l-2.9-0.013l0.013-3l2.9,0.012L75.676,9.232z M68.493,62.752l-2.9-0.013l0.013-3
	l2.9,0.012L68.493,62.752z M15.514,12.646l-3-0.013l0.013-3l3,0.013L15.514,12.646z M35.477,56.866l-2.9-0.013l0.014-3l2.9,0.013
	L35.477,56.866z M54.475,40.246l-2.9-0.014l0.014-3l2.9,0.014L54.475,40.246z M77.11,53.076l-3-0.013l0.015-3l3,0.013L77.11,53.076z
	 M362.663,41.616l-2.9-0.014l0.015-3l2.899,0.014L362.663,41.616z M93.918,16.024l-2.9-0.014l0.015-3l2.9,0.014L93.918,16.024z
	 M159.033,62.76l-3-0.013l0.014-3l3,0.014L159.033,62.76z"/>
<path opacity="0.13" fill="none" stroke="#010202" stroke-width="2" enable-background="new    " d="M0.5,39.2l15,15.3L26,22.9
	l41,9.4l34.5-9.4l12-22.8 M67,71.4l31.5-6l23.8-18.8l-3-25.7l47.2,11.4l10.9,25.2l25.7-54.4"/>
<path opacity="0.13" fill="none" stroke="#010202" stroke-width="0.75" enable-background="new    " d="M228.6,2.2"/>
<path opacity="0.13" fill="#3D3D3C" stroke="#010202" stroke-width="2" enable-background="new    " d="M137.96,42.606l-2.9-0.014
	l0.014-3l2.9,0.014L137.96,42.606z M236.48,20.217l-2.9-0.012l0.014-3l2.9,0.012L236.48,20.217z"/>
<path opacity="0.13" fill="none" stroke="#010202" stroke-width="2" enable-background="new    " d="M225.1,0.7l61.1,22.9l-9.7,33
	L334.1,22l34.2,50 M397,71.5l39-7.9l29.7-38.1l7.8,30.7l31-16.8l34,17.8L559,13.6 M373.1,1.1L410.4,54.5L421.6,23.4L447.7,0.1"/>
<path fill="#E9EAF2" d="M596.5,53.8c0,0-30,2.8-63.2-53.8H871.4v71.3H567.7C567.7,71.3,580.8,57,596.5,53.8z"/>
<path opacity="0.3" fill="#A198C1" enable-background="new    " d="M593.7,53.7c15.399,1.1,18.3-10.5,34.2-27.4
	c7.8-8.3,19.899-7.5,19.899-7.5l11.4,23.5C659.2,42.3,644.7,80.3,593.7,53.7L593.7,53.7z M698.6,0.4C690.4,4.3,682.7,8,679.7,9.4
	c-7.601,3.6-25.8,5.8-25.8,5.8L665.3,38.7c0,0,12.5-13.9,20.101-17.5c6.5-3.1,35.3-16.9,43.399-20.8H698.6z"/>
<path fill="#4E4E4E" d="M0,217.201h872V288.5H0V217.201z"/>
<path opacity="0.13" fill="#3D3D3C" stroke="#010202" stroke-width="2" enable-background="new    " d="M312.845,233.201
	l-2.899-0.016l0.014-3l2.9,0.014L312.845,233.201z M292.924,283.283l-2.9-0.015l0.014-3l2.9,0.015L292.924,283.283z M299.656,225.02
	l-2.9-0.015l0.014-3l2.9,0.014L299.656,225.02z M389.43,281.317l-2.899-0.015l0.013-3l2.9,0.015L389.43,281.317z M403.45,238.143
	l-3-0.017l0.017-3l3,0.017L403.45,238.143z M422.91,227.962l-3-0.017l0.015-3l3,0.017L422.91,227.962z M485.454,227.902l-3-0.016
	l0.016-3l3,0.016L485.454,227.902z M507.454,231.78l-3-0.014l0.015-3l3,0.015L507.454,231.78z M534.783,257.393l-3-0.017l0.017-3
	l3,0.017L534.783,257.393z M484.035,255.86l-3-0.015l0.015-3l3,0.015L484.035,255.86z M455.07,281.341l-2.9-0.014l0.015-3l2.9,0.014
	L455.07,281.341z M493.454,278.4l-3-0.016l0.016-3l3,0.017L493.454,278.4z M506.037,273.14l-3-0.016l0.016-3l3,0.017L506.037,273.14
	z M560.53,267.048l-3-0.016l0.015-3l3,0.016L560.53,267.048z M216.17,265.525l-3-0.013l0.015-3l3,0.013L216.17,265.525z
	 M276.637,248.8l-2.9-0.014l0.013-3l2.9,0.012L276.637,248.8z M251.945,271.783l-2.9-0.014l0.014-3l2.9,0.012L251.945,271.783z
	 M368.292,231.757l-2.9-0.012l0.013-3l2.899,0.012L368.292,231.757z M209.93,250.604l-3-0.015l0.014-3l3,0.015L209.93,250.604z
	 M103.893,253.53l-3-0.013l0.013-3l3,0.014L103.893,253.53z M75.672,226.41l-2.9-0.013l0.014-3l2.9,0.015L75.672,226.41z
	 M68.49,279.83l-2.9-0.012l0.013-3l2.9,0.012L68.49,279.83z M15.52,229.727l-3-0.013l0.012-3l3,0.013L15.52,229.727z M35.48,274.046
	l-2.9-0.014l0.013-3l2.9,0.014L35.48,274.046z M54.477,257.328l-2.9-0.015l0.014-3l2.9,0.015L54.477,257.328z M77.105,270.255
	l-3-0.014l0.014-3l3,0.014L77.105,270.255z M362.665,258.796l-2.9-0.014l0.016-3l2.899,0.014L362.665,258.796z M93.92,233.205
	l-2.9-0.014l0.014-3l2.9,0.014L93.92,233.205z M159.027,279.839l-3-0.014l0.014-3l3,0.014L159.027,279.839z"/>
<path opacity="0.13" fill="none" stroke="#010202" stroke-width="2" enable-background="new    " d="M0.5,256.3l15,15.3L26,240
	l41,9.4l34.5-9.4l12-22.799 M67,288.5l31.5-6l23.8-18.799l-3-25.701l47.2,11.4l10.9,25.2l25.7-54.399"/>
<path opacity="0.13" fill="none" stroke="#010202" stroke-width="0.75" enable-background="new    " d="M228.6,218.201"/>
<path opacity="0.13" fill="#3D3D3C" stroke="#010202" stroke-width="2" enable-background="new    " d="M137.962,259.787l-2.9-0.014
	l0.014-3l2.9,0.014L137.962,259.787z M236.476,237.398l-2.9-0.014l0.015-3l2.9,0.014L236.476,237.398z"/>
<path opacity="0.13" fill="none" stroke="#010202" stroke-width="2" enable-background="new    " d="M225.1,217.8l61.1,22.9l-9.7,33
	l57.6-34.601l34.2,50 M397,288.6l39-7.899l29.7-38.101l7.8,30.7l31-16.801l34,17.801l20.5-43.6 M373.1,218.201L410.4,271.6
	L421.6,240.5l26.101-23.299"/>
<path fill="#7D7D7E" d="M596.5,270.9c0,0-30,2.801-63.2-53.8H871.4v71.3H567.7C567.7,288.4,580.8,274.1,596.5,270.9z"/>
<path opacity="0.5" fill="#4E4E4E" enable-background="new    " d="M593.7,270.8c15.399,1.1,18.3-10.5,34.2-27.4
	c7.8-8.3,19.899-7.5,19.899-7.5l11.4,23.5C659.2,259.4,644.7,297.4,593.7,270.8L593.7,270.8z M698.6,217.5
	c-8.199,3.9-15.899,7.601-18.899,9c-7.601,3.601-25.8,5.801-25.8,5.801l11.399,23.5c0,0,12.5-13.9,20.101-17.5
	c6.5-3.1,35.3-16.9,43.399-20.801H698.6z"/>
<path fill="#D0CCDF" d="M0,289h872v72H0V289z"/>
<path opacity="0.1" fill="#3D3D3C" enable-background="new    " d="M0.8,290.3h7.5V298H0.8V290.3z M8.3,298h7.5v7.701H8.3V298z
	 M15.9,305.701h7.5v7.699h-7.5V305.701z M8.3,313.4h7.5v7.7H8.3V313.4z M15.9,321.1h7.5v7.7h-7.5V321.1z M8.3,328.9h7.5v7.7H8.3
	V328.9z M15.9,336.6h7.5v7.7h-7.5V336.6z M0.8,305.701h7.5v7.699H0.8V305.701z M0.8,321.1h7.5v7.7H0.8V321.1z M0.8,336.6h7.5v7.7
	H0.8V336.6z M22.4,328.9h7.5v7.7h-7.5V328.9z M30.9,336.6h7.5v7.7h-7.5V336.6z M23.4,313.4h7.5v7.7h-7.5V313.4z M30.9,321.1h7.5v7.7
	h-7.5V321.1z M38.4,328.9h7.5v7.7h-7.5V328.9z M8.3,344.3h7.5V352H8.3V344.3z M23.4,344.3h7.5V352h-7.5V344.3z M38.4,344.3h7.5V352
	h-7.5V344.3z M45.9,336.6h7.5v7.7h-7.5V336.6z M53.5,344.3H61V352h-7.5V344.3z M53.5,328.9H61v7.7h-7.5V328.9z M45.9,321.1h7.5v7.7
	h-7.5V321.1z M38.4,313.4h7.5v7.7h-7.5V313.4z M30.9,305.701h7.5v7.699h-7.5V305.701z M23.4,298h7.5v7.701h-7.5V298z M15.9,290.3
	h7.5V298h-7.5V290.3z M30.9,290.3h7.5V298h-7.5V290.3z M38.4,298h7.5v7.701h-7.5V298z M45.9,290.3h7.5V298h-7.5V290.3z M53.5,298H61
	v7.701h-7.5V298z M45.9,305.701h7.5v7.699h-7.5V305.701z M53.5,313.4H61v7.7h-7.5V313.4z M61,290.3h7.5V298H61V290.3z M68.5,298H76
	v7.701h-7.5V298z M76,305.701h7.5v7.699H76V305.701z M68.5,313.4H76v7.7h-7.5V313.4z M76,321.1h7.5v7.7H76V321.1z M68.5,328.9H76
	v7.7h-7.5V328.9z M76,336.6h7.5v7.7H76V336.6z M61,305.701h7.5v7.699H61V305.701z M61,321.1h7.5v7.7H61V321.1z M61,336.6h7.5v7.7H61
	V336.6z M83.6,328.9h7.5v7.7h-7.5V328.9z M91.1,336.6h7.5v7.7h-7.5V336.6z M83.6,313.4h7.5v7.7h-7.5V313.4z M91.1,321.1h7.5v7.7
	h-7.5V321.1z M98.6,328.9h7.5v7.7h-7.5V328.9z M68.5,344.3H76V352h-7.5V344.3z M15.9,352h7.5v7.701h-7.5V352z M0.8,352h7.5v7.701
	H0.8V352z M30.9,352h7.5v7.701h-7.5V352z M45.9,352h7.5v7.701h-7.5V352z M61,352h7.5v7.701H61V352z M83.6,344.3h7.5V352h-7.5V344.3z
	 M98.6,344.3h7.5V352h-7.5V344.3z M106.1,336.6h7.5v7.7h-7.5V336.6z M113.6,344.3h7.5V352h-7.5V344.3z M113.6,328.9h7.5v7.7h-7.5
	V328.9z M106.1,321.1h7.5v7.7h-7.5V321.1z M98.6,313.4h7.5v7.7h-7.5V313.4z M91.1,305.701h7.5v7.699h-7.5V305.701z M83.6,298h7.5
	v7.701h-7.5V298z M76,290.3h7.5V298H76V290.3z M91.1,290.3h7.5V298h-7.5V290.3z M98.6,298h7.5v7.701h-7.5V298z M106.1,290.3h7.5V298
	h-7.5V290.3z M113.6,298h7.5v7.701h-7.5V298z M106.1,305.701h7.5v7.699h-7.5V305.701z M113.6,313.4h7.5v7.7h-7.5V313.4z
	 M121.2,290.3h7.5V298h-7.5V290.3z M128.7,298h7.5v7.701h-7.5V298z M136.2,305.701h7.5v7.699h-7.5V305.701z M128.7,313.4h7.5v7.7
	h-7.5V313.4z M136.2,321.1h7.5v7.7h-7.5V321.1z M128.7,328.9h7.5v7.7h-7.5V328.9z M136.2,336.6h7.5v7.7h-7.5V336.6z M121.2,305.701
	h7.5v7.699h-7.5V305.701z M121.2,321.1h7.5v7.7h-7.5V321.1z M121.2,336.6h7.5v7.7h-7.5V336.6z M143.7,328.9h7.5v7.7h-7.5V328.9z
	 M151.2,336.6h7.5v7.7h-7.5V336.6z M143.7,313.4h7.5v7.7h-7.5V313.4z M151.2,321.1h7.5v7.7h-7.5V321.1z M158.8,328.9h7.5v7.7h-7.5
	V328.9z M128.7,344.3h7.5V352h-7.5V344.3z M143.7,344.3h7.5V352h-7.5V344.3z M158.8,344.3h7.5V352h-7.5V344.3z M166.3,336.6h7.5v7.7
	h-7.5V336.6z M173.8,344.3h7.5V352h-7.5V344.3z M173.8,328.9h7.5v7.7h-7.5V328.9z M166.3,321.1h7.5v7.7h-7.5V321.1z M158.8,313.4
	h7.5v7.7h-7.5V313.4z M151.2,305.701h7.5v7.699h-7.5V305.701z M143.7,298h7.5v7.701h-7.5V298z M136.2,290.3h7.5V298h-7.5V290.3z
	 M151.2,290.3h7.5V298h-7.5V290.3z M158.8,298h7.5v7.701h-7.5V298z M166.3,290.3h7.5V298h-7.5V290.3z M173.8,298h7.5v7.701h-7.5V298
	z M166.3,305.701h7.5v7.699h-7.5V305.701z M173.8,313.4h7.5v7.7h-7.5V313.4z M181.3,290.3h7.5V298h-7.5V290.3z M188.8,298h7.5v7.701
	h-7.5V298z M196.4,305.701h7.5v7.699h-7.5V305.701z M188.8,313.4h7.5v7.7h-7.5V313.4z M196.4,321.1h7.5v7.7h-7.5V321.1z
	 M188.8,328.9h7.5v7.7h-7.5V328.9z M196.4,336.6h7.5v7.7h-7.5V336.6z M181.3,305.701h7.5v7.699h-7.5V305.701z M181.3,321.1h7.5v7.7
	h-7.5V321.1z M181.3,336.6h7.5v7.7h-7.5V336.6z M203.9,328.9h7.5v7.7h-7.5V328.9z M211.4,336.6h7.5v7.7h-7.5V336.6z M203.9,313.4
	h7.5v7.7h-7.5V313.4z M211.4,321.1h7.5v7.7h-7.5V321.1z M218.9,328.9h7.5v7.7h-7.5V328.9z M188.8,344.3h7.5V352h-7.5V344.3z
	 M203.9,344.3h7.5V352h-7.5V344.3z M218.9,344.3h7.5V352h-7.5V344.3z M226.4,336.6h7.5v7.7h-7.5V336.6z M234,344.3h7.5V352H234
	V344.3z M234,328.9h7.5v7.7H234V328.9z M226.4,321.1h7.5v7.7h-7.5V321.1z M218.9,313.4h7.5v7.7h-7.5V313.4z M211.4,305.701h7.5
	v7.699h-7.5V305.701z M203.9,298h7.5v7.701h-7.5V298z M196.4,290.3h7.5V298h-7.5V290.3z M211.4,290.3h7.5V298h-7.5V290.3z
	 M218.9,298h7.5v7.701h-7.5V298z M226.4,290.3h7.5V298h-7.5V290.3z M234,298h7.5v7.701H234V298z M226.4,305.701h7.5v7.699h-7.5
	V305.701z M234,313.4h7.5v7.7H234V313.4z M241.5,290.3h7.5V298h-7.5V290.3z M249,298h7.5v7.701H249V298z M256.5,305.701h7.5v7.699
	h-7.5V305.701z M249,313.4h7.5v7.7H249V313.4z M256.5,321.1h7.5v7.7h-7.5V321.1z M249,328.9h7.5v7.7H249V328.9z M256.5,336.6h7.5
	v7.7h-7.5V336.6z M241.5,305.701h7.5v7.699h-7.5V305.701z M241.5,321.1h7.5v7.7h-7.5V321.1z M241.5,336.6h7.5v7.7h-7.5V336.6z
	 M264,328.9h7.5v7.7H264V328.9z M271.6,336.6h7.5v7.7h-7.5V336.6z M264,313.4h7.5v7.7H264V313.4z M271.6,321.1h7.5v7.7h-7.5V321.1z
	 M279.1,328.9h7.5v7.7h-7.5V328.9z M249,344.3h7.5V352H249V344.3z M264,344.3h7.5V352H264V344.3z M279.1,344.3h7.5V352h-7.5V344.3z
	 M286.6,336.6h7.5v7.7h-7.5V336.6z M294.1,344.3h7.5V352h-7.5V344.3z M294.1,328.9h7.5v7.7h-7.5V328.9z M286.6,321.1h7.5v7.7h-7.5
	V321.1z M279.1,313.4h7.5v7.7h-7.5V313.4z M271.6,305.701h7.5v7.699h-7.5V305.701z M264,298h7.5v7.701H264V298z M256.5,290.3h7.5
	V298h-7.5V290.3z M271.6,290.3h7.5V298h-7.5V290.3z M279.1,298h7.5v7.701h-7.5V298z M286.6,290.3h7.5V298h-7.5V290.3z M294.1,298
	h7.5v7.701h-7.5V298z M286.6,305.701h7.5v7.699h-7.5V305.701z M294.1,313.4h7.5v7.7h-7.5V313.4z M301.6,290.3h7.5V298h-7.5V290.3z
	 M309.2,298h7.5v7.701h-7.5V298z M316.7,305.701h7.5v7.699h-7.5V305.701z M309.2,313.4h7.5v7.7h-7.5V313.4z M316.7,321.1h7.5v7.7
	h-7.5V321.1z M309.2,328.9h7.5v7.7h-7.5V328.9z M316.7,336.6h7.5v7.7h-7.5V336.6z M301.6,305.701h7.5v7.699h-7.5V305.701z
	 M301.6,321.1h7.5v7.7h-7.5V321.1z M301.6,336.6h7.5v7.7h-7.5V336.6z M324.2,328.9h7.5v7.7h-7.5V328.9z M331.7,336.6h7.5v7.7h-7.5
	V336.6z M324.2,313.4h7.5v7.7h-7.5V313.4z M331.7,321.1h7.5v7.7h-7.5V321.1z M339.2,328.9h7.5v7.7h-7.5V328.9z M309.2,344.3h7.5V352
	h-7.5V344.3z M324.2,344.3h7.5V352h-7.5V344.3z M339.2,344.3h7.5V352h-7.5V344.3z M346.8,336.6h7.5v7.7h-7.5V336.6z M354.3,344.3
	h7.5V352h-7.5V344.3z M354.3,328.9h7.5v7.7h-7.5V328.9z M346.8,321.1h7.5v7.7h-7.5V321.1z M339.2,313.4h7.5v7.7h-7.5V313.4z
	 M331.7,305.701h7.5v7.699h-7.5V305.701z M324.2,298h7.5v7.701h-7.5V298z M316.7,290.3h7.5V298h-7.5V290.3z M331.7,290.3h7.5V298
	h-7.5V290.3z M339.2,298h7.5v7.701h-7.5V298z M346.8,290.3h7.5V298h-7.5V290.3z M354.3,298h7.5v7.701h-7.5V298z M346.8,305.701h7.5
	v7.699h-7.5V305.701z M354.3,313.4h7.5v7.7h-7.5V313.4z M361.8,305.701h7.5v7.699h-7.5V305.701z M361.8,321.1h7.5v7.7h-7.5V321.1z
	 M361.8,336.6h7.5v7.7h-7.5V336.6z M369.3,328.9h7.5v7.7h-7.5V328.9z M376.8,336.6h7.5v7.7h-7.5V336.6z M369.3,313.4h7.5v7.7h-7.5
	V313.4z M376.8,321.1h7.5v7.7h-7.5V321.1z M384.4,328.9h7.5v7.7h-7.5V328.9z M369.3,344.3h7.5V352h-7.5V344.3z M384.4,344.3h7.5V352
	h-7.5V344.3z M391.9,336.6h7.5v7.7h-7.5V336.6z M391.9,321.1h7.5v7.7h-7.5V321.1z M384.4,313.4h7.5v7.7h-7.5V313.4z M376.8,305.701
	h7.5v7.699h-7.5V305.701z M369.3,298h7.5v7.701h-7.5V298z M361.8,290.3h7.5V298h-7.5V290.3z M376.8,290.3h7.5V298h-7.5V290.3z
	 M384.4,298h7.5v7.701h-7.5V298z M391.9,290.3h7.5V298h-7.5V290.3z M391.9,305.701h7.5v7.699h-7.5V305.701z M76,352h7.5v7.701H76
	V352z M91.1,352h7.5v7.701h-7.5V352z M106.1,352h7.5v7.701h-7.5V352z M136.2,352h7.5v7.701h-7.5V352z M121.2,352h7.5v7.701h-7.5V352
	z M151.2,352h7.5v7.701h-7.5V352z M166.3,352h7.5v7.701h-7.5V352z M196.4,352h7.5v7.701h-7.5V352z M181.3,352h7.5v7.701h-7.5V352z
	 M211.4,352h7.5v7.701h-7.5V352z M226.4,352h7.5v7.701h-7.5V352z M256.5,352h7.5v7.701h-7.5V352z M241.5,352h7.5v7.701h-7.5V352z
	 M271.6,352h7.5v7.701h-7.5V352z M286.6,352h7.5v7.701h-7.5V352z M316.7,352h7.5v7.701h-7.5V352z M301.6,352h7.5v7.701h-7.5V352z
	 M331.7,352h7.5v7.701h-7.5V352z M346.8,352h7.5v7.701h-7.5V352z M361.8,352h7.5v7.701h-7.5V352z M376.8,352h7.5v7.701h-7.5V352z
	 M391.9,352h7.5v7.701h-7.5V352z M399.4,298h7.5v7.701h-7.5V298z M406.9,305.701h7.5v7.699h-7.5V305.701z M399.4,313.4h7.5v7.7h-7.5
	V313.4z M406.9,321.1h7.5v7.7h-7.5V321.1z M399.4,328.9h7.5v7.7h-7.5V328.9z M406.9,336.6h7.5v7.7h-7.5V336.6z M414.5,328.9h7.5v7.7
	h-7.5V328.9z M422,336.6h7.5v7.7H422V336.6z M414.5,313.4h7.5v7.7h-7.5V313.4z M422,321.1h7.5v7.7H422V321.1z M429.5,328.9h7.5v7.7
	h-7.5V328.9z M399.4,344.3h7.5V352h-7.5V344.3z M414.5,344.3h7.5V352h-7.5V344.3z M429.5,344.3h7.5V352h-7.5V344.3z M437,336.6h7.5
	v7.7H437V336.6z M444.5,344.3h7.5V352h-7.5V344.3z M444.5,328.9h7.5v7.7h-7.5V328.9z M437,321.1h7.5v7.7H437V321.1z M429.5,313.4
	h7.5v7.7h-7.5V313.4z M422,305.701h7.5v7.699H422V305.701z M414.5,298h7.5v7.701h-7.5V298z M406.9,290.3h7.5V298h-7.5V290.3z
	 M422,290.3h7.5V298H422V290.3z M429.5,298h7.5v7.701h-7.5V298z M437,290.3h7.5V298H437V290.3z M444.5,298h7.5v7.701h-7.5V298z
	 M437,305.701h7.5v7.699H437V305.701z M444.5,313.4h7.5v7.7h-7.5V313.4z M452,290.3h7.5V298H452V290.3z M459.6,298h7.5v7.701h-7.5
	V298z M467.1,305.701h7.5v7.699h-7.5V305.701z M459.6,313.4h7.5v7.7h-7.5V313.4z M467.1,321.1h7.5v7.7h-7.5V321.1z M459.6,328.9h7.5
	v7.7h-7.5V328.9z M467.1,336.6h7.5v7.7h-7.5V336.6z M452,305.701h7.5v7.699H452V305.701z M452,321.1h7.5v7.7H452V321.1z M452,336.6
	h7.5v7.7H452V336.6z M474.6,328.9h7.5v7.7h-7.5V328.9z M482.1,336.6h7.5v7.7h-7.5V336.6z M474.6,313.4h7.5v7.7h-7.5V313.4z
	 M482.1,321.1h7.5v7.7h-7.5V321.1z M489.6,328.9h7.5v7.7h-7.5V328.9z M459.6,344.3h7.5V352h-7.5V344.3z M474.6,344.3h7.5V352h-7.5
	V344.3z M489.6,344.3h7.5V352h-7.5V344.3z M497.2,336.6h7.5v7.7h-7.5V336.6z M504.7,344.3h7.5V352h-7.5V344.3z M504.7,328.9h7.5v7.7
	h-7.5V328.9z M497.2,321.1h7.5v7.7h-7.5V321.1z M489.6,313.4h7.5v7.7h-7.5V313.4z M482.1,305.701h7.5v7.699h-7.5V305.701z
	 M474.6,298h7.5v7.701h-7.5V298z M467.1,290.3h7.5V298h-7.5V290.3z M482.1,290.3h7.5V298h-7.5V290.3z M489.6,298h7.5v7.701h-7.5V298
	z M497.2,290.3h7.5V298h-7.5V290.3z M504.7,298h7.5v7.701h-7.5V298z M497.2,305.701h7.5v7.699h-7.5V305.701z M504.7,313.4h7.5v7.7
	h-7.5V313.4z M512.2,305.701h7.5v7.699h-7.5V305.701z M512.2,321.1h7.5v7.7h-7.5V321.1z M512.2,336.6h7.5v7.7h-7.5V336.6z
	 M519.7,328.9h7.5v7.7h-7.5V328.9z M527.3,336.6h7.5v7.7h-7.5V336.6z M519.7,313.4h7.5v7.7h-7.5V313.4z M527.3,321.1h7.5v7.7h-7.5
	V321.1z M534.8,328.9h7.5v7.7h-7.5V328.9z M519.7,344.3h7.5V352h-7.5V344.3z M534.8,344.3h7.5V352h-7.5V344.3z M542.3,336.6h7.5v7.7
	h-7.5V336.6z M542.3,321.1h7.5v7.7h-7.5V321.1z M534.8,313.4h7.5v7.7h-7.5V313.4z M527.3,305.701h7.5v7.699h-7.5V305.701z
	 M519.7,298h7.5v7.701h-7.5V298z M512.2,290.3h7.5V298h-7.5V290.3z M527.3,290.3h7.5V298h-7.5V290.3z M534.8,298h7.5v7.701h-7.5V298
	z M542.3,305.701h7.5v7.699h-7.5V305.701z M406.9,352h7.5v7.701h-7.5V352z M422,352h7.5v7.701H422V352z M437,352h7.5v7.701H437V352z
	 M467.1,352h7.5v7.701h-7.5V352z M452,352h7.5v7.701H452V352z M482.1,352h7.5v7.701h-7.5V352z M497.2,352h7.5v7.701h-7.5V352z
	 M512.2,352h7.5v7.701h-7.5V352z M527.3,352h7.5v7.701h-7.5V352z M542.3,352h7.5v7.701h-7.5V352z M549.8,313.4h7.5v7.7h-7.5V313.4z
	 M557.3,321.1h7.5v7.7h-7.5V321.1z M549.8,328.9h7.5v7.7h-7.5V328.9z M557.3,336.6h7.5v7.7h-7.5V336.6z M564.8,328.9h7.5v7.7h-7.5
	V328.9z M572.4,336.6h7.5v7.7h-7.5V336.6z M549.8,344.3h7.5V352h-7.5V344.3z M564.8,344.3h7.5V352h-7.5V344.3z M579.9,344.3h7.5V352
	h-7.5V344.3z M587.4,336.6h7.5v7.7h-7.5V336.6z M557.3,352h7.5v7.701h-7.5V352z M572.4,352h7.5v7.701h-7.5V352z"/>
<path fill="#E9EAF2" d="M597,343.3c0,0-30,2.9-63.2-54.301H871.9v72H568.3C568.3,361,581.4,346.5,597,343.3L597,343.3z"/>
<path opacity="0.3" fill="#A198C1" enable-background="new    " d="M594.3,343.3c15.4,1.1,18.3-10.6,34.2-27.7
	c7.8-8.399,19.9-7.601,19.9-7.601l11.399,23.701C659.8,331.701,645.2,370.1,594.3,343.3L594.3,343.3z M699.1,289.4
	c-8.199,4-15.899,7.7-18.899,9.1c-7.601,3.701-25.8,5.9-25.8,5.9l11.399,23.7c0,0,12.5-14,20.101-17.7c6.5-3.1,35.3-17.1,43.399-21
	H699.1z"/>
<path fill="#4E4E4E" d="M1,361h872v72H1V361z"/>
<path fill="#585858" d="M1.9,362.9h7.5v7.7H1.9V362.9z M9.4,370.6h7.5v7.7H9.4V370.6z M16.9,378.3h7.5V386h-7.5V378.3z M9.4,386h7.5
	v7.701H9.4V386z M16.9,393.701h7.5v7.699h-7.5V393.701z M9.4,401.4h7.5v7.7H9.4V401.4z M16.9,409.1h7.5v7.7h-7.5V409.1z M1.9,378.3
	h7.5V386H1.9V378.3z M1.9,393.701h7.5v7.699H1.9V393.701z M1.9,409.1h7.5v7.7H1.9V409.1z M23.4,401.4h7.5v7.7h-7.5V401.4z
	 M31.9,409.1h7.5v7.7h-7.5V409.1z M24.4,386h7.5v7.701h-7.5V386z M31.9,393.701h7.5v7.699h-7.5V393.701z M39.5,401.4H47v7.7h-7.5
	V401.4z M9.4,416.8h7.5v7.699H9.4V416.8z M24.4,416.8h7.5v7.699h-7.5V416.8z M39.5,416.8H47v7.699h-7.5V416.8z M47,409.1h7.5v7.7H47
	V409.1z M54.5,416.8H62v7.699h-7.5V416.8z M54.5,401.4H62v7.7h-7.5V401.4z M47,393.701h7.5v7.699H47V393.701z M39.5,386H47v7.701
	h-7.5V386z M31.9,378.3h7.5V386h-7.5V378.3z M24.4,370.6h7.5v7.7h-7.5V370.6z M16.9,362.9h7.5v7.7h-7.5V362.9z M31.9,362.9h7.5v7.7
	h-7.5V362.9z M39.5,370.6H47v7.7h-7.5V370.6z M47,362.9h7.5v7.7H47V362.9z M54.5,370.6H62v7.7h-7.5V370.6z M47,378.3h7.5V386H47
	V378.3z M54.5,386H62v7.701h-7.5V386z M62,362.9h7.5v7.7H62V362.9z M69.5,370.6H77v7.7h-7.5V370.6z M77.1,378.3h7.5V386h-7.5V378.3z
	 M69.5,386H77v7.701h-7.5V386z M77.1,393.701h7.5v7.699h-7.5V393.701z M69.5,401.4H77v7.7h-7.5V401.4z M77.1,409.1h7.5v7.7h-7.5
	V409.1z M62,378.3h7.5V386H62V378.3z M62,393.701h7.5v7.699H62V393.701z M62,409.1h7.5v7.7H62V409.1z M84.6,401.4h7.5v7.7h-7.5
	V401.4z M92.1,409.1h7.5v7.7h-7.5V409.1z M84.6,386h7.5v7.701h-7.5V386z M92.1,393.701h7.5v7.699h-7.5V393.701z M99.6,401.4h7.5v7.7
	h-7.5V401.4z M69.5,416.8H77v7.699h-7.5V416.8z M16.9,424.601h7.5v7.699h-7.5V424.601z M1.9,424.601h7.5v7.699H1.9V424.601z
	 M31.9,424.601h7.5v7.699h-7.5V424.601z M47,424.601h7.5v7.699H47V424.601z M62,424.601h7.5v7.699H62V424.601z M84.6,416.8h7.5
	v7.699h-7.5V416.8z M99.6,416.8h7.5v7.699h-7.5V416.8z M107.1,409.1h7.5v7.7h-7.5V409.1z M114.7,416.8h7.5v7.699h-7.5V416.8z
	 M114.7,401.4h7.5v7.7h-7.5V401.4z M107.1,393.701h7.5v7.699h-7.5V393.701z M99.6,386h7.5v7.701h-7.5V386z M92.1,378.3h7.5V386h-7.5
	V378.3z M84.6,370.6h7.5v7.7h-7.5V370.6z M77.1,362.9h7.5v7.7h-7.5V362.9z M92.1,362.9h7.5v7.7h-7.5V362.9z M99.6,370.6h7.5v7.7
	h-7.5V370.6z M107.1,362.9h7.5v7.7h-7.5V362.9z M114.7,370.6h7.5v7.7h-7.5V370.6z M107.1,378.3h7.5V386h-7.5V378.3z M114.7,386h7.5
	v7.701h-7.5V386z M122.2,362.9h7.5v7.7h-7.5V362.9z M129.7,370.6h7.5v7.7h-7.5V370.6z M137.2,378.3h7.5V386h-7.5V378.3z M129.7,386
	h7.5v7.701h-7.5V386z M137.2,393.701h7.5v7.699h-7.5V393.701z M129.7,401.4h7.5v7.7h-7.5V401.4z M137.2,409.1h7.5v7.7h-7.5V409.1z
	 M122.2,378.3h7.5V386h-7.5V378.3z M122.2,393.701h7.5v7.699h-7.5V393.701z M122.2,409.1h7.5v7.7h-7.5V409.1z M144.7,401.4h7.5v7.7
	h-7.5V401.4z M152.3,409.1h7.5v7.7h-7.5V409.1z M144.7,386h7.5v7.701h-7.5V386z M152.3,393.701h7.5v7.699h-7.5V393.701z
	 M159.8,401.4h7.5v7.7h-7.5V401.4z M129.7,416.8h7.5v7.699h-7.5V416.8z M144.7,416.8h7.5v7.699h-7.5V416.8z M159.8,416.8h7.5v7.699
	h-7.5V416.8z M167.3,409.1h7.5v7.7h-7.5V409.1z M174.8,416.8h7.5v7.699h-7.5V416.8z M174.8,401.4h7.5v7.7h-7.5V401.4z
	 M167.3,393.701h7.5v7.699h-7.5V393.701z M159.8,386h7.5v7.701h-7.5V386z M152.3,378.3h7.5V386h-7.5V378.3z M144.7,370.6h7.5v7.7
	h-7.5V370.6z M137.2,362.9h7.5v7.7h-7.5V362.9z M152.3,362.9h7.5v7.7h-7.5V362.9z M159.8,370.6h7.5v7.7h-7.5V370.6z M167.3,362.9
	h7.5v7.7h-7.5V362.9z M174.8,370.6h7.5v7.7h-7.5V370.6z M167.3,378.3h7.5V386h-7.5V378.3z M174.8,386h7.5v7.701h-7.5V386z
	 M182.3,362.9h7.5v7.7h-7.5V362.9z M189.9,370.6h7.5v7.7h-7.5V370.6z M197.4,378.3h7.5V386h-7.5V378.3z M189.9,386h7.5v7.701h-7.5
	V386z M197.4,393.701h7.5v7.699h-7.5V393.701z M189.9,401.4h7.5v7.7h-7.5V401.4z M197.4,409.1h7.5v7.7h-7.5V409.1z M182.3,378.3h7.5
	v7.7h-7.5V378.3z M182.3,393.701h7.5v7.699h-7.5V393.701z M182.3,409.1h7.5v7.7h-7.5V409.1z M204.9,401.4h7.5v7.7h-7.5V401.4z
	 M212.4,409.1h7.5v7.7h-7.5V409.1z M204.9,386h7.5v7.701h-7.5V386z M212.4,393.701h7.5v7.699h-7.5V393.701z M219.9,401.4h7.5v7.7
	h-7.5V401.4z M189.9,416.8h7.5v7.699h-7.5V416.8z M204.9,416.8h7.5v7.699h-7.5V416.8z M219.9,416.8h7.5v7.699h-7.5V416.8z
	 M227.5,409.1h7.5v7.7h-7.5V409.1z M235,416.8h7.5v7.699H235V416.8z M235,401.4h7.5v7.7H235V401.4z M227.5,393.701h7.5v7.699h-7.5
	V393.701z M219.9,386h7.5v7.701h-7.5V386z M212.4,378.3h7.5V386h-7.5V378.3z M204.9,370.6h7.5v7.7h-7.5V370.6z M197.4,362.9h7.5v7.7
	h-7.5V362.9z M212.4,362.9h7.5v7.7h-7.5V362.9z M219.9,370.6h7.5v7.7h-7.5V370.6z M227.5,362.9h7.5v7.7h-7.5V362.9z M235,370.6h7.5
	v7.7H235V370.6z M227.5,378.3h7.5V386h-7.5V378.3z M235,386h7.5v7.701H235V386z M242.5,362.9h7.5v7.7h-7.5V362.9z M250,370.6h7.5
	v7.7H250V370.6z M257.5,378.3h7.5v7.7h-7.5V378.3z M250,386h7.5v7.7H250V386z M257.5,393.701h7.5v7.699h-7.5V393.701z M250,401.4
	h7.5v7.7H250V401.4z M257.5,409.1h7.5v7.7h-7.5V409.1z M242.5,378.3h7.5v7.7h-7.5V378.3z M242.5,393.701h7.5v7.699h-7.5V393.701z
	 M242.5,409.1h7.5v7.7h-7.5V409.1z M265.1,401.4h7.5v7.7h-7.5V401.4z M272.6,409.1h7.5v7.7h-7.5V409.1z M265.1,386h7.5v7.7h-7.5V386
	z M272.6,393.701h7.5v7.699h-7.5V393.701z M280.1,401.4h7.5v7.701h-7.5V401.4z M250,416.8h7.5v7.699H250V416.8z M265.1,416.8h7.5
	v7.699h-7.5V416.8z M280.1,416.8h7.5v7.699h-7.5V416.8z M287.6,409.1h7.5v7.7h-7.5V409.1z M295.1,416.8h7.5v7.699h-7.5V416.8z
	 M295.1,401.4h7.5v7.701h-7.5V401.4z M287.6,393.701h7.5v7.699h-7.5V393.701z M280.1,386h7.5v7.7h-7.5V386z M272.6,378.3h7.5v7.7
	h-7.5V378.3z M265.1,370.6h7.5v7.7h-7.5V370.6z M257.5,362.9h7.5v7.7h-7.5V362.9z M272.6,362.9h7.5v7.7h-7.5V362.9z M280.1,370.6
	h7.5v7.7h-7.5V370.6z M287.6,362.9h7.5v7.7h-7.5V362.9z M295.1,370.6h7.5v7.7h-7.5V370.6z M287.6,378.3h7.5v7.7h-7.5V378.3z
	 M295.1,386h7.5v7.7h-7.5V386z M302.7,362.9h7.5v7.7h-7.5V362.9z M310.2,370.6h7.5v7.7h-7.5V370.6z M317.7,378.3h7.5v7.7h-7.5V378.3
	z M310.2,386h7.5v7.7h-7.5V386z M317.7,393.701h7.5v7.699h-7.5V393.701z M310.2,401.4h7.5v7.701h-7.5V401.4z M317.7,409.101h7.5
	v7.699h-7.5V409.101z M302.7,378.3h7.5v7.7h-7.5V378.3z M302.7,393.701h7.5v7.699h-7.5V393.701z M302.7,409.101h7.5v7.699h-7.5
	V409.101z M325.2,401.4h7.5v7.701h-7.5V401.4z M332.8,409.101h7.5v7.699h-7.5V409.101z M325.2,386h7.5v7.7h-7.5V386z M332.8,393.701
	h7.5v7.699h-7.5V393.701z M340.3,401.4h7.5v7.701h-7.5V401.4z M310.2,416.8h7.5v7.699h-7.5V416.8z M325.2,416.8h7.5v7.699h-7.5
	V416.8z M340.3,416.8h7.5v7.699h-7.5V416.8z M347.8,409.101h7.5v7.699h-7.5V409.101z M355.3,416.8h7.5v7.699h-7.5V416.8z
	 M355.3,401.4h7.5v7.701h-7.5V401.4z M347.8,393.701h7.5v7.699h-7.5V393.701z M340.3,386h7.5v7.7h-7.5V386z M332.8,378.3h7.5v7.7
	h-7.5V378.3z M325.2,370.601h7.5v7.699h-7.5V370.601z M317.7,362.9h7.5v7.701h-7.5V362.9z M332.8,362.9h7.5v7.701h-7.5V362.9z
	 M340.3,370.601h7.5v7.699h-7.5V370.601z M347.8,362.9h7.5v7.701h-7.5V362.9z M355.3,370.601h7.5v7.699h-7.5V370.601z M347.8,378.3
	h7.5v7.7h-7.5V378.3z M355.3,386h7.5v7.7h-7.5V386z M362.8,378.3h7.5v7.7h-7.5V378.3z M362.8,393.701h7.5v7.699h-7.5V393.701z
	 M362.8,409.101h7.5v7.699h-7.5V409.101z M370.3,401.4h7.5v7.701h-7.5V401.4z M377.9,409.101h7.5v7.699h-7.5V409.101z M370.3,386
	h7.5v7.7h-7.5V386z M377.9,393.701h7.5v7.699h-7.5V393.701z M385.4,401.4h7.5v7.701h-7.5V401.4z M370.3,416.8h7.5v7.699h-7.5V416.8z
	 M385.4,416.8h7.5v7.699h-7.5V416.8z M392.9,409.101h7.5v7.699h-7.5V409.101z M392.9,393.701h7.5v7.699h-7.5V393.701z M385.4,386
	h7.5v7.7h-7.5V386z M377.9,378.3h7.5v7.7h-7.5V378.3z M370.3,370.6h7.5v7.7h-7.5V370.6z M362.8,362.9h7.5v7.7h-7.5V362.9z
	 M377.9,362.9h7.5v7.7h-7.5V362.9z M385.4,370.6h7.5v7.7h-7.5V370.6z M392.9,362.9h7.5v7.7h-7.5V362.9z M392.9,378.3h7.5v7.7h-7.5
	V378.3z M77.1,424.601h7.5v7.699h-7.5V424.601z M92.1,424.601h7.5v7.699h-7.5V424.601z M107.1,424.601h7.5v7.699h-7.5V424.601z
	 M137.2,424.601h7.5v7.699h-7.5V424.601z M122.2,424.601h7.5v7.699h-7.5V424.601z M152.3,424.601h7.5v7.699h-7.5V424.601z
	 M167.3,424.601h7.5v7.699h-7.5V424.601z M197.4,424.601h7.5v7.699h-7.5V424.601z M182.3,424.601h7.5v7.699h-7.5V424.601z
	 M212.4,424.601h7.5v7.699h-7.5V424.601z M227.5,424.601h7.5v7.699h-7.5V424.601z M257.5,424.601h7.5v7.699h-7.5V424.601z
	 M242.5,424.601h7.5v7.699h-7.5V424.601z M272.6,424.601h7.5v7.699h-7.5V424.601z M287.6,424.601h7.5v7.699h-7.5V424.601z
	 M317.7,424.601h7.5v7.699h-7.5V424.601z M302.7,424.601h7.5v7.699h-7.5V424.601z M332.8,424.601h7.5v7.699h-7.5V424.601z
	 M347.8,424.601h7.5v7.699h-7.5V424.601z M362.8,424.601h7.5v7.699h-7.5V424.601z M377.9,424.601h7.5v7.699h-7.5V424.601z
	 M392.9,424.601h7.5v7.699h-7.5V424.601z M400.4,370.6h7.5v7.7h-7.5V370.6z M408,378.3h7.5v7.7H408V378.3z M400.4,386h7.5v7.7h-7.5
	V386z M408,393.701h7.5v7.699H408V393.701z M400.4,401.4h7.5v7.701h-7.5V401.4z M408,409.101h7.5v7.699H408V409.101z M415.5,401.4
	h7.5v7.701h-7.5V401.4z M423,409.101h7.5v7.699H423V409.101z M415.5,386h7.5v7.7h-7.5V386z M423,393.701h7.5v7.699H423V393.701z
	 M430.5,401.4h7.5v7.701h-7.5V401.4z M400.4,416.8h7.5v7.699h-7.5V416.8z M415.5,416.8h7.5v7.699h-7.5V416.8z M430.5,416.8h7.5
	v7.699h-7.5V416.8z M438,409.101h7.5v7.699H438V409.101z M445.5,416.8h7.5v7.699h-7.5V416.8z M445.5,401.4h7.5v7.701h-7.5V401.4z
	 M438,393.701h7.5v7.699H438V393.701z M430.5,386h7.5v7.7h-7.5V386z M423,378.3h7.5v7.7H423V378.3z M415.5,370.6h7.5v7.7h-7.5V370.6
	z M408,362.9h7.5v7.7H408V362.9z M423,362.9h7.5v7.7H423V362.9z M430.5,370.6h7.5v7.7h-7.5V370.6z M438,362.9h7.5v7.7H438V362.9z
	 M445.5,370.6h7.5v7.7h-7.5V370.6z M438,378.3h7.5v7.7H438V378.3z M445.5,386h7.5v7.7h-7.5V386z M453.1,362.9h7.5v7.701h-7.5V362.9z
	 M460.6,370.601h7.5v7.699h-7.5V370.601z M468.1,378.3h7.5v7.7h-7.5V378.3z M460.6,386h7.5v7.7h-7.5V386z M468.1,393.701h7.5v7.699
	h-7.5V393.701z M460.6,401.4h7.5v7.701h-7.5V401.4z M468.1,409.101h7.5v7.699h-7.5V409.101z M453.1,378.3h7.5v7.7h-7.5V378.3z
	 M453.1,393.701h7.5v7.699h-7.5V393.701z M453.1,409.101h7.5v7.699h-7.5V409.101z M475.6,401.4h7.5v7.701h-7.5V401.4z
	 M483.2,409.101h7.5v7.699h-7.5V409.101z M475.6,386h7.5v7.7h-7.5V386z M483.2,393.701h7.5v7.699h-7.5V393.701z M490.7,401.4h7.5
	v7.701h-7.5V401.4z M460.6,416.8h7.5v7.699h-7.5V416.8z M475.6,416.8h7.5v7.699h-7.5V416.8z M490.7,416.8h7.5v7.699h-7.5V416.8z
	 M498.2,409.101h7.5v7.699h-7.5V409.101z M505.7,416.8h7.5v7.699h-7.5V416.8z M505.7,401.4h7.5v7.701h-7.5V401.4z M498.2,393.701
	h7.5v7.699h-7.5V393.701z M490.7,386h7.5v7.7h-7.5V386z M483.2,378.3h7.5v7.7h-7.5V378.3z M475.6,370.601h7.5v7.699h-7.5V370.601z
	 M468.1,362.9h7.5v7.701h-7.5V362.9z M483.2,362.9h7.5v7.701h-7.5V362.9z M490.7,370.601h7.5v7.699h-7.5V370.601z M498.2,362.9h7.5
	v7.701h-7.5V362.9z M505.7,370.601h7.5v7.699h-7.5V370.601z M498.2,378.3h7.5v7.7h-7.5V378.3z M505.7,386h7.5v7.7h-7.5V386z
	 M513.2,378.3h7.5v7.7h-7.5V378.3z M513.2,393.701h7.5v7.699h-7.5V393.701z M513.2,409.101h7.5v7.699h-7.5V409.101z M520.8,401.4
	h7.5v7.701h-7.5V401.4z M528.3,409.101h7.5v7.699h-7.5V409.101z M520.8,386h7.5v7.7h-7.5V386z M528.3,393.701h7.5v7.699h-7.5
	V393.701z M535.8,401.4h7.5v7.701h-7.5V401.4z M520.8,416.8h7.5v7.699h-7.5V416.8z M535.8,416.8h7.5v7.699h-7.5V416.8z
	 M543.3,409.101h7.5v7.699h-7.5V409.101z M543.3,393.701h7.5v7.699h-7.5V393.701z M535.8,386h7.5v7.7h-7.5V386z M528.3,378.3h7.5
	v7.7h-7.5V378.3z M520.8,370.601h7.5v7.699h-7.5V370.601z M513.2,362.9h7.5v7.701h-7.5V362.9z M528.3,362.9h7.5v7.701h-7.5V362.9z
	 M535.8,370.601h7.5v7.699h-7.5V370.601z M543.3,378.3h7.5v7.7h-7.5V378.3z M408,424.601h7.5v7.699H408V424.601z M423,424.601h7.5
	v7.699H423V424.601z M438,424.601h7.5v7.699H438V424.601z M468.1,424.601h7.5v7.699h-7.5V424.601z M453.1,424.601h7.5v7.699h-7.5
	V424.601z M483.2,424.601h7.5v7.699h-7.5V424.601z M498.2,424.601h7.5v7.699h-7.5V424.601z M513.2,424.601h7.5v7.699h-7.5V424.601z
	 M528.3,424.601h7.5v7.699h-7.5V424.601z M543.3,424.601h7.5v7.699h-7.5V424.601z M550.8,386h7.5v7.7h-7.5V386z M558.3,393.701h7.5
	v7.699h-7.5V393.701z M550.8,401.4h7.5v7.701h-7.5V401.4z M558.3,409.101h7.5v7.699h-7.5V409.101z M565.9,401.4h7.5v7.701h-7.5
	V401.4z M573.4,409.101h7.5v7.699h-7.5V409.101z M550.8,416.8h7.5v7.699h-7.5V416.8z M565.9,416.8h7.5v7.699h-7.5V416.8z
	 M580.9,416.8h7.5v7.699h-7.5V416.8z M588.4,409.101h7.5v7.699h-7.5V409.101z M558.3,424.601h7.5v7.699h-7.5V424.601z
	 M573.4,424.601h7.5v7.699h-7.5V424.601z"/>
<path fill="#7D7D7E" d="M597.9,415.4c0,0-30,2.9-63.2-54.3h338.1v71.999H569.1C569.1,433,582.2,418.6,597.9,415.4z"/>
<path opacity="0.5" fill="#4E4E4E" enable-background="new    " d="M595.1,415.1c15.4,1.101,18.301-10.5,34.2-27.399
	c7.8-8.301,19.9-7.5,19.9-7.5l11.399,23.5C660.6,403.701,646.1,441.701,595.1,415.1L595.1,415.1z M700,361.8
	c-8.2,3.9-15.9,7.6-18.9,9c-7.6,3.6-25.8,5.8-25.8,5.8l11.4,23.5c0,0,12.5-13.899,20.1-17.5c6.5-3.101,35.3-16.899,43.4-20.8H700z"
	/>
<path fill="#D0CCDF" d="M0.2,72.7h872v72H0.2V72.7z"/>
<g opacity="0.75">
	<path opacity="0.13" fill="#3D3D3C" stroke="#000000" stroke-width="2" enable-background="new    " d="M557.198,115.205l-2.9-0.01
		l0.012-3l2.9,0.01L557.198,115.205z M550.1,99.906l-2.899-0.013l0.013-3l2.9,0.013L550.1,99.906z M474.597,127.507l-3-0.015
		l0.016-3l3,0.015L474.597,127.507z M512.1,113.708l-2.899-0.014l0.013-3l2.9,0.014L512.1,113.708z M494.4,105.706l-3-0.013l0.012-3
		l3,0.013L494.4,105.706z M524.098,80.306l-2.899-0.013l0.014-3l2.9,0.013L524.098,80.306z M455.2,137.208l-3-0.014l0.012-3l3,0.014
		L455.2,137.208z"/>
	<path opacity="0.13" fill="none" stroke="#010202" stroke-width="2" enable-background="new    " d="M401.9,112.3l88.899,2.9
		l19.3,13.6l31.4-45.3 M573.3,115.2l-6,16l-39.1-2.4L517.1,144.2"/>
	<path opacity="0.13" fill="none" stroke="#000000" stroke-width="0.75" enable-background="new    " d="M479.2,74.6"/>
</g>
<path fill="#D0CCDF" d="M490.6,72.9L444.4,144.5L0.2,143.7V72.2L490.6,72.9z"/>
<path opacity="0.1" fill="#3D3D3C" enable-background="new    " d="M316.5,104.5h7.5v7.7h-7.5V104.5z M316.5,89.2h7.5v7.7h-7.5V89.2
	z M316.5,73.7h7.5v7.7h-7.5V73.7z M316.5,119.9h7.5v7.7h-7.5V119.9z M308.8,112.3h7.5v7.7h-7.5V112.3z M308.8,96.8h7.5v7.7h-7.5
	V96.8z M308.8,81.4h7.5v7.7h-7.5V81.4z M324,112.2h7.5v7.7H324V112.2z M331.5,119.9h7.5v7.7h-7.5V119.9z M324,96.8h7.5v7.7H324V96.8
	z M324,81.4h7.5v7.7H324V81.4z M331.5,104.5h7.5v7.7h-7.5V104.5z M339,112.2h7.5v7.7H339V112.2z M308.9,127.7h7.5v7.7h-7.5V127.7z
	 M301.3,120h7.5v7.7h-7.5V120z M301.3,104.8h7.5v7.7h-7.5V104.8z M301.3,89.1h7.5v7.7h-7.5V89.1z M301.3,73.7h7.5v7.7h-7.5V73.7z
	 M301.4,136h7.5v7.7h-7.5V136z M324,127.7h7.5v7.7H324V127.7z M339,127.7h7.5v7.7H339V127.7z M346.5,119.9h7.5v7.7h-7.5V119.9z
	 M354,127.7h7.5v7.7H354V127.7z M354,112.2h7.5v7.7H354V112.2z M346.5,104.5h7.5v7.7h-7.5V104.5z M339,96.8h7.5v7.7H339V96.8z
	 M331.5,89.1h7.5v7.7h-7.5V89.1z M339,81.4h7.5v7.7H339V81.4z M331.5,73.7h7.5v7.7h-7.5V73.7z M346.5,73.7h7.5v7.7h-7.5V73.7z
	 M354,81.4h7.5v7.7H354V81.4z M346.5,89.1h7.5v7.7h-7.5V89.1z M354,96.8h7.5v7.7H354V96.8z M361.6,73.7h7.5v7.7h-7.5V73.7z
	 M369.1,81.4h7.5v7.7h-7.5V81.4z M376.6,89.1h7.5v7.7h-7.5V89.1z M369.1,96.8h7.5v7.7h-7.5V96.8z M376.6,104.5h7.5v7.7h-7.5V104.5z
	 M369.1,112.2h7.5v7.7h-7.5V112.2z M376.6,119.9h7.5v7.7h-7.5V119.9z M361.6,89.1h7.5v7.7h-7.5V89.1z M361.6,104.5h7.5v7.7h-7.5
	V104.5z M361.6,119.9h7.5v7.7h-7.5V119.9z M384.1,112.2h7.5v7.7h-7.5V112.2z M391.7,119.9h7.5v7.7h-7.5V119.9z M384.1,96.8h7.5v7.7
	h-7.5V96.8z M391.7,104.5h7.5v7.7h-7.5V104.5z M399.2,112.2h7.5v7.7h-7.5V112.2z M369.1,127.7h7.5v7.7h-7.5V127.7z M384.1,127.7h7.5
	v7.7h-7.5V127.7z M399.2,127.7h7.5v7.7h-7.5V127.7z M406.7,119.9h7.5v7.7h-7.5V119.9z M414.2,127.7h7.5v7.7h-7.5V127.7z
	 M414.2,112.2h7.5v7.7h-7.5V112.2z M406.7,104.5h7.5v7.7h-7.5V104.5z M399.2,96.8h7.5v7.7h-7.5V96.8z M391.7,89.1h7.5v7.7h-7.5V89.1
	z M384.1,81.4h7.5v7.7h-7.5V81.4z M376.6,73.7h7.5v7.7h-7.5V73.7z M391.7,73.7h7.5v7.7h-7.5V73.7z M399.2,81.4h7.5v7.7h-7.5V81.4z
	 M406.7,73.7h7.5v7.7h-7.5V73.7z M414.2,81.4h7.5v7.7h-7.5V81.4z M406.7,89.1h7.5v7.7h-7.5V89.1z M414.2,96.8h7.5v7.7h-7.5V96.8z
	 M421.7,73.7h7.5v7.7h-7.5V73.7z M429.2,81.4h7.5v7.7h-7.5V81.4z M436.8,89.1h7.5v7.7h-7.5V89.1z M429.2,96.8h7.5v7.7h-7.5V96.8z
	 M436.8,104.5h7.5v7.7h-7.5V104.5z M429.2,112.2h7.5v7.7h-7.5V112.2z M436.8,119.9h7.5v7.7h-7.5V119.9z M421.7,89.1h7.5v7.7h-7.5
	V89.1z M421.7,104.5h7.5v7.7h-7.5V104.5z M421.7,119.9h7.5v7.7h-7.5V119.9z M444.3,112.2h7.5v7.7h-7.5V112.2z M444.3,96.8h7.5v7.7
	h-7.5V96.8z M451.8,104.5h7.5v7.7h-7.5V104.5z M429.2,127.7h7.5v7.7h-7.5V127.7z M444.3,127.7h7.5v7.7h-7.5V127.7z M459.3,96.8h7.5
	v7.7h-7.5V96.8z M451.8,89.1h7.5v7.7h-7.5V89.1z M444.3,81.4h7.5v7.7h-7.5V81.4z M436.8,73.7h7.5v7.7h-7.5V73.7z M451.8,73.7h7.5
	v7.7h-7.5V73.7z M459.3,81.4h7.5v7.7h-7.5V81.4z M466.9,73.7h7.5v7.7h-7.5V73.7z M466.9,89.1h7.5v7.7h-7.5V89.1z M316.5,136h7.5v7.7
	h-7.5V136z M331.5,136h7.5v7.7h-7.5V136z M271.3,104.5h7.5v7.7h-7.5V104.5z M271.3,89.2h7.5v7.7h-7.5V89.2z M271.3,73.7h7.5v7.7
	h-7.5V73.7z M271.3,119.9h7.5v7.7h-7.5V119.9z M263.7,112.3h7.5v7.7h-7.5V112.3z M263.7,96.8h7.5v7.7h-7.5V96.8z M263.7,81.4h7.5
	v7.7h-7.5V81.4z M278.8,112.2h7.5v7.7h-7.5V112.2z M286.4,119.9h7.5v7.7h-7.5V119.9z M278.9,96.8h7.5v7.7h-7.5V96.8z M278.9,81.4
	h7.5v7.7h-7.5V81.4z M286.4,104.5h7.5v7.7h-7.5V104.5z M293.9,112.2h7.5v7.7h-7.5V112.2z M263.8,127.7h7.5v7.7h-7.5V127.7z
	 M256.2,120h7.5v7.7h-7.5V120z M256.2,104.8h7.5v7.7h-7.5V104.8z M256.2,89.1h7.5v7.7h-7.5V89.1z M256.2,73.7h7.5v7.7h-7.5V73.7z
	 M256.3,136h7.5v7.7h-7.5V136z M278.9,127.7h7.5v7.7h-7.5V127.7z M293.9,127.7h7.5v7.7h-7.5V127.7z M293.9,96.8h7.5v7.7h-7.5V96.8z
	 M286.4,89.1h7.5v7.7h-7.5V89.1z M293.9,81.4h7.5v7.7h-7.5V81.4z M286.4,73.7h7.5v7.7h-7.5V73.7z M271.3,136h7.5v7.7h-7.5V136z
	 M286.4,136h7.5v7.7h-7.5V136z M226.1,104.5h7.5v7.7h-7.5V104.5z M226.1,89.2h7.5v7.7h-7.5V89.2z M226.1,73.7h7.5v7.7h-7.5V73.7z
	 M226.1,119.9h7.5v7.7h-7.5V119.9z M218.5,112.3h7.5v7.7h-7.5V112.3z M218.5,96.8h7.5v7.7h-7.5V96.8z M218.5,81.4h7.5v7.7h-7.5V81.4
	z M233.6,112.2h7.5v7.7h-7.5V112.2z M241.1,119.9h7.5v7.7h-7.5V119.9z M233.6,96.8h7.5v7.7h-7.5V96.8z M233.6,81.4h7.5v7.7h-7.5
	V81.4z M241.1,104.5h7.5v7.7h-7.5V104.5z M248.7,112.2h7.5v7.7h-7.5V112.2z M218.6,127.7h7.5v7.7h-7.5V127.7z M211,120h7.5v7.7H211
	V120z M211,104.8h7.5v7.7H211V104.8z M211,89.1h7.5v7.7H211V89.1z M211,73.7h7.5v7.7H211V73.7z M211.1,136h7.5v7.7h-7.5V136z
	 M233.6,127.7h7.5v7.7h-7.5V127.7z M248.7,127.7h7.5v7.7h-7.5V127.7z M248.7,96.8h7.5v7.7h-7.5V96.8z M241.1,89.1h7.5v7.7h-7.5V89.1
	z M248.7,81.4h7.5v7.7h-7.5V81.4z M241.1,73.7h7.5v7.7h-7.5V73.7z M226.1,136h7.5v7.7h-7.5V136z M241.1,136h7.5v7.7h-7.5V136z
	 M181,104.5h7.5v7.7H181V104.5z M181,89.2h7.5v7.7H181V89.2z M181,73.7h7.5v7.7H181V73.7z M181,119.9h7.5v7.7H181V119.9z
	 M173.4,112.3h7.5v7.7h-7.5V112.3z M173.4,96.8h7.5v7.7h-7.5V96.8z M173.4,81.4h7.5v7.7h-7.5V81.4z M188.5,112.2h7.5v7.7h-7.5V112.2
	z M196,119.9h7.5v7.7H196V119.9z M188.5,96.8h7.5v7.7h-7.5V96.8z M188.5,81.4h7.5v7.7h-7.5V81.4z M196,104.5h7.5v7.7H196V104.5z
	 M203.5,112.2h7.5v7.7h-7.5V112.2z M173.5,127.7h7.5v7.7h-7.5V127.7z M165.9,120h7.5v7.7h-7.5V120z M165.9,104.8h7.5v7.7h-7.5V104.8
	z M165.9,89.1h7.5v7.7h-7.5V89.1z M165.9,73.7h7.5v7.7h-7.5V73.7z M165.9,136h7.5v7.7h-7.5V136z M188.5,127.7h7.5v7.7h-7.5V127.7z
	 M203.5,127.7h7.5v7.7h-7.5V127.7z M203.5,96.8h7.5v7.7h-7.5V96.8z M196,89.1h7.5v7.7H196V89.1z M203.5,81.4h7.5v7.7h-7.5V81.4z
	 M196,73.7h7.5v7.7H196V73.7z M181,136h7.5v7.7H181V136z M196,136h7.5v7.7H196V136z M135.8,104.5h7.5v7.7h-7.5V104.5z M135.8,89.2
	h7.5v7.7h-7.5V89.2z M135.8,73.7h7.5v7.7h-7.5V73.7z M135.8,119.9h7.5v7.7h-7.5V119.9z M128.1,112.3h7.5v7.7h-7.5V112.3z
	 M128.1,96.8h7.5v7.7h-7.5V96.8z M128.1,81.4h7.5v7.7h-7.5V81.4z M143.3,112.2h7.5v7.7h-7.5V112.2z M150.8,119.9h7.5v7.7h-7.5V119.9
	z M143.3,96.8h7.5v7.7h-7.5V96.8z M143.3,81.4h7.5v7.7h-7.5V81.4z M150.8,104.5h7.5v7.7h-7.5V104.5z M158.3,112.2h7.5v7.7h-7.5
	V112.2z M128.2,127.7h7.5v7.7h-7.5V127.7z M120.6,120h7.5v7.7h-7.5V120z M120.6,104.8h7.5v7.7h-7.5V104.8z M120.6,89.1h7.5v7.7h-7.5
	V89.1z M120.6,73.7h7.5v7.7h-7.5V73.7z M120.7,136h7.5v7.7h-7.5V136z M143.3,127.7h7.5v7.7h-7.5V127.7z M158.3,127.7h7.5v7.7h-7.5
	V127.7z M158.3,96.8h7.5v7.7h-7.5V96.8z M150.8,89.1h7.5v7.7h-7.5V89.1z M158.3,81.4h7.5v7.7h-7.5V81.4z M150.8,73.7h7.5v7.7h-7.5
	V73.7z M135.8,136h7.5v7.7h-7.5V136z M150.8,136h7.5v7.7h-7.5V136z M90.6,104.5h7.5v7.7h-7.5V104.5z M90.6,89.2h7.5v7.7h-7.5V89.2z
	 M90.6,73.7h7.5v7.7h-7.5V73.7z M90.6,119.9h7.5v7.7h-7.5V119.9z M98.2,112.2h7.5v7.7h-7.5V112.2z M105.7,119.9h7.5v7.7h-7.5V119.9z
	 M98.2,96.8h7.5v7.7h-7.5V96.8z M98.2,81.4h7.5v7.7h-7.5V81.4z M105.7,104.5h7.5v7.7h-7.5V104.5z M113.2,112.2h7.5v7.7h-7.5V112.2z
	 M98.2,127.7h7.5v7.7h-7.5V127.7z M113.2,127.7h7.5v7.7h-7.5V127.7z M113.2,96.8h7.5v7.7h-7.5V96.8z M105.7,89.1h7.5v7.7h-7.5V89.1z
	 M113.2,81.4h7.5v7.7h-7.5V81.4z M105.7,73.7h7.5v7.7h-7.5V73.7z M90.6,136h7.5v7.7h-7.5V136z M105.7,136h7.5v7.7h-7.5V136z
	 M82.7,112.3h7.5v7.7h-7.5V112.3z M82.7,96.8h7.5v7.7h-7.5V96.8z M82.7,81.4h7.5v7.7h-7.5V81.4z M82.8,127.7h7.5v7.7h-7.5V127.7z
	 M75.2,120h7.5v7.7h-7.5V120z M75.2,104.8h7.5v7.7h-7.5V104.8z M75.2,89.1h7.5v7.7h-7.5V89.1z M75.2,73.7h7.5v7.7h-7.5V73.7z
	 M75.3,136h7.5v7.7h-7.5V136z M45.1,104.5h7.5v7.7h-7.5V104.5z M45.1,89.2h7.5v7.7h-7.5V89.2z M45.1,73.7h7.5v7.7h-7.5V73.7z
	 M45.1,119.9h7.5v7.7h-7.5V119.9z M37.5,112.3H45v7.7h-7.5V112.3z M37.5,96.8H45v7.7h-7.5V96.8z M37.5,81.4H45v7.7h-7.5V81.4z
	 M52.6,112.2h7.5v7.7h-7.5V112.2z M60.2,119.9h7.5v7.7h-7.5V119.9z M52.6,96.8h7.5v7.7h-7.5V96.8z M52.6,81.4h7.5v7.7h-7.5V81.4z
	 M60.2,104.5h7.5v7.7h-7.5V104.5z M67.7,112.2h7.5v7.7h-7.5V112.2z M37.6,127.7h7.5v7.7h-7.5V127.7z M30,120h7.5v7.7H30V120z
	 M30,104.8h7.5v7.7H30V104.8z M30,89.1h7.5v7.7H30V89.1z M30,73.7h7.5v7.7H30V73.7z M30.1,136h7.5v7.7h-7.5V136z M52.6,127.7h7.5
	v7.7h-7.5V127.7z M67.7,127.7h7.5v7.7h-7.5V127.7z M67.7,96.8h7.5v7.7h-7.5V96.8z M60.2,89.1h7.5v7.7h-7.5V89.1z M67.7,81.4h7.5v7.7
	h-7.5V81.4z M60.2,73.7h7.5v7.7h-7.5V73.7z M45.1,136h7.5v7.7h-7.5V136z M60.2,136h7.5v7.7h-7.5V136z M0,104.5h7.5v7.7H0V104.5z
	 M0,89.2h7.5v7.7H0V89.2z M0,73.7h7.5v7.7H0V73.7z M0,119.9h7.5v7.7H0V119.9z M7.5,112.2H15v7.7H7.5V112.2z M15,119.9h7.5v7.7H15
	V119.9z M7.5,96.8H15v7.7H7.5V96.8z M7.5,81.4H15v7.7H7.5V81.4z M15,104.5h7.5v7.7H15V104.5z M22.6,112.2h7.5v7.7h-7.5V112.2z
	 M7.5,127.7H15v7.7H7.5V127.7z M22.6,127.7h7.5v7.7h-7.5V127.7z M22.6,96.8h7.5v7.7h-7.5V96.8z M15,89.1h7.5v7.7H15V89.1z
	 M22.6,81.4h7.5v7.7h-7.5V81.4z M15,73.7h7.5v7.7H15V73.7z M0,136h7.5v7.7H0V136z M15,136h7.5v7.7H15V136z M346.5,136h7.5v7.7h-7.5
	V136z M376.6,136h7.5v7.7h-7.5V136z M361.6,136h7.5v7.7h-7.5V136z M391.7,136h7.5v7.7h-7.5V136z M406.7,136h7.5v7.7h-7.5V136z
	 M436.8,136h7.5v7.7h-7.5V136z M421.7,136h7.5v7.7h-7.5V136z M451.8,119.7v7.8h5.8l1.7-3.4v-4.4H451.8z M459.3,112.2v7.7h2.2
	l3.9-7.7H459.3z M474.1,81.4v7.7h3.2l4-7.7H474.1z M481.3,73.7v6.9l3.5-6.9H481.3z"/>
<g opacity="0.1" enable-background="new    ">
	<path opacity="0.03" fill="#3D3D3C" enable-background="new    " d="M468.6,104.4H466.9v3.3L468.6,104.4z"/>
	<path fill="#3D3D3C" d="M466.9,104.5h2l-2,3.3V104.5z"/>
</g>
<g opacity="0.1" enable-background="new    ">
	<path opacity="0.03" fill="#3D3D3C" enable-background="new    " d="M453.3,135.4h-1.7v3.3L453.3,135.4z"/>
	<path fill="#3D3D3C" d="M451.6,135.5h2l-2,3.3V135.5z"/>
</g>
<path fill="#E9E9F1" d="M597.2,127c0,0-30,2.9-63.2-54.3h338.1v72H568.5C568.5,144.7,581.6,130.2,597.2,127z"/>
<path opacity="0.3" fill="#A198C0" enable-background="new    " d="M594.5,127c15.4,1.1,18.3-10.6,34.2-27.7
	c7.8-8.4,19.899-7.6,19.899-7.6l11.4,23.7C660,115.4,645.4,153.8,594.5,127L594.5,127z M699.3,73.1c-8.2,4-15.899,7.7-18.899,9.1
	c-7.601,3.7-25.801,5.9-25.801,5.9l11.4,23.7c0,0,12.5-14,20.1-17.7c6.5-3.1,35.301-17.1,43.4-21H699.3z"/>
<path fill="#4D4D4D" d="M0.2,145.2h872v72H0.2V145.2z"/>
<g opacity="0.75">
	<path opacity="0.13" fill="#3D3D3C" stroke="#000000" stroke-width="2" enable-background="new    " d="M557.198,187.707
		l-2.9-0.012l0.012-3l2.9,0.012L557.198,187.707z M550.098,172.406l-2.899-0.014l0.015-3l2.9,0.014L550.098,172.406z
		 M474.597,200.007l-3-0.014l0.015-3l3,0.014L474.597,200.007z M512.1,186.205l-2.899-0.014l0.013-3l2.9,0.015L512.1,186.205z
		 M494.4,178.205l-3-0.013l0.012-3l3,0.013L494.4,178.205z M524.1,152.806l-2.899-0.013l0.012-3l2.9,0.013L524.1,152.806z
		 M455.2,209.71l-3-0.015l0.012-3l3,0.014L455.2,209.71z"/>
	<path opacity="0.13" fill="none" stroke="#010202" stroke-width="2" enable-background="new    " d="M401.9,184.8l88.899,2.9
		l19.3,13.6l31.4-45.3 M572.8,189.2l-5.5,14.5l-39.1-2.4L517.1,216.701"/>
	<path opacity="0.13" fill="none" stroke="#000000" stroke-width="0.75" enable-background="new    " d="M479.2,147.1"/>
</g>
<path fill="#4D4D4D" d="M486.1,145.4L448.8,217L90.7,216.2v-71.5L486.1,145.4z"/>
<path fill="#585858" d="M314.9,177h7.5v7.7h-7.5V177z M314.9,161.7h7.5v7.7h-7.5V161.7z M314.9,146.1h7.5v7.7h-7.5V146.1z
	 M314.9,192.4h7.5v7.7h-7.5V192.4z M307.3,184.8h7.5v7.7h-7.5V184.8z M307.3,169.3h7.5v7.7h-7.5V169.3z M307.3,153.9h7.5v7.7h-7.5
	V153.9z M322.4,184.7h7.5v7.7h-7.5V184.7z M329.9,192.4h7.5v7.7h-7.5V192.4z M322.4,169.3h7.5v7.7h-7.5V169.3z M322.4,153.9h7.5v7.7
	h-7.5V153.9z M329.9,177h7.5v7.7h-7.5V177z M337.5,184.7h7.5v7.7h-7.5V184.7z M307.4,200.1h7.5v7.7h-7.5V200.1z M299.8,192.5h7.5
	v7.7h-7.5V192.5z M299.8,177.3h7.5v7.7h-7.5V177.3z M299.8,161.6h7.5v7.7h-7.5V161.6z M299.8,146.1h7.5v7.7h-7.5V146.1z
	 M299.8,208.5h7.5v7.7h-7.5V208.5z M322.4,200.1h7.5v7.7h-7.5V200.1z M337.5,200.1h7.5v7.7h-7.5V200.1z M345,192.4h7.5v7.7H345
	V192.4z M352.5,200.1h7.5v7.7h-7.5V200.1z M352.5,184.7h7.5v7.7h-7.5V184.7z M345,177h7.5v7.7H345V177z M337.5,169.3h7.5v7.7h-7.5
	V169.3z M329.9,161.6h7.5v7.7h-7.5V161.6z M337.5,153.9h7.5v7.7h-7.5V153.9z M329.9,146.1h7.5v7.7h-7.5V146.1z M345,146.1h7.5v7.7
	H345V146.1z M352.5,153.9h7.5v7.7h-7.5V153.9z M345,161.6h7.5v7.7H345V161.6z M352.5,169.3h7.5v7.7h-7.5V169.3z M360,146.1h7.5v7.7
	H360V146.1z M367.5,153.9h7.5v7.7h-7.5V153.9z M375.1,161.6h7.5v7.7h-7.5V161.6z M367.5,169.3h7.5v7.7h-7.5V169.3z M375.1,177h7.5
	v7.7h-7.5V177z M367.5,184.7h7.5v7.7h-7.5V184.7z M375.1,192.4h7.5v7.7h-7.5V192.4z M360,161.6h7.5v7.7H360V161.6z M360,177h7.5v7.7
	H360V177z M360,192.4h7.5v7.7H360V192.4z M382.6,184.7h7.5v7.7h-7.5V184.7z M390.1,192.4h7.5v7.7h-7.5V192.4z M382.6,169.3h7.5v7.7
	h-7.5V169.3z M390.1,177h7.5v7.7h-7.5V177z M397.6,184.7h7.5v7.7h-7.5V184.7z M367.5,200.1h7.5v7.7h-7.5V200.1z M382.6,200.1h7.5
	v7.7h-7.5V200.1z M397.6,200.1h7.5v7.7h-7.5V200.1z M405.1,192.4h7.5v7.7h-7.5V192.4z M412.7,200.1h7.5v7.7h-7.5V200.1z
	 M412.7,184.7h7.5v7.7h-7.5V184.7z M405.1,177h7.5v7.7h-7.5V177z M397.6,169.3h7.5v7.7h-7.5V169.3z M390.1,161.6h7.5v7.7h-7.5V161.6
	z M382.6,153.9h7.5v7.7h-7.5V153.9z M375.1,146.1h7.5v7.7h-7.5V146.1z M390.1,146.1h7.5v7.7h-7.5V146.1z M397.6,153.9h7.5v7.7h-7.5
	V153.9z M405.1,146.1h7.5v7.7h-7.5V146.1z M412.7,153.9h7.5v7.7h-7.5V153.9z M405.1,161.6h7.5v7.7h-7.5V161.6z M412.7,169.3h7.5v7.7
	h-7.5V169.3z M420.2,146.1h7.5v7.7h-7.5V146.1z M427.7,153.9h7.5v7.7h-7.5V153.9z M435.2,161.6h7.5v7.7h-7.5V161.6z M427.7,169.3
	h7.5v7.7h-7.5V169.3z M435.2,177h7.5v7.7h-7.5V177z M427.7,184.7h7.5v7.7h-7.5V184.7z M435.2,192.4h7.5v7.7h-7.5V192.4z
	 M420.2,161.6h7.5v7.7h-7.5V161.6z M420.2,177h7.5v7.7h-7.5V177z M420.2,192.4h7.5v7.7h-7.5V192.4z M442.7,184.7h7.5v7.7h-7.5V184.7
	z M442.7,169.3h7.5v7.7h-7.5V169.3z M450.3,177h7.5v7.7h-7.5V177z M427.7,200.1h7.5v7.7h-7.5V200.1z M442.7,200.1h7.5v7.7h-7.5
	V200.1z M457.8,169.3h7.5v7.7h-7.5V169.3z M450.3,161.6h7.5v7.7h-7.5V161.6z M442.7,153.9h7.5v7.7h-7.5V153.9z M435.2,146.1h7.5v7.7
	h-7.5V146.1z M450.3,146.1h7.5v7.7h-7.5V146.1z M457.8,153.9h7.5v7.7h-7.5V153.9z M465.3,146.1h7.5v7.7h-7.5V146.1z M465.3,161.6
	h7.5v7.7h-7.5V161.6z M314.9,208.5h7.5v7.7h-7.5V208.5z M329.9,208.5h7.5v7.7h-7.5V208.5z M269.8,177h7.5v7.7h-7.5V177z
	 M269.8,161.7h7.5v7.7h-7.5V161.7z M269.8,146.1h7.5v7.7h-7.5V146.1z M269.8,192.4h7.5v7.7h-7.5V192.4z M262.1,184.8h7.5v7.7h-7.5
	V184.8z M262.1,169.3h7.5v7.7h-7.5V169.3z M262.1,153.9h7.5v7.7h-7.5V153.9z M277.3,184.7h7.5v7.7h-7.5V184.7z M284.8,192.4h7.5v7.7
	h-7.5V192.4z M277.3,169.3h7.5v7.7h-7.5V169.3z M277.3,153.9h7.5v7.7h-7.5V153.9z M284.8,177h7.5v7.7h-7.5V177z M292.3,184.7h7.5
	v7.7h-7.5V184.7z M262.2,200.1h7.5v7.7h-7.5V200.1z M254.6,192.5h7.5v7.7h-7.5V192.5z M254.6,177.3h7.5v7.7h-7.5V177.3z
	 M254.6,161.6h7.5v7.7h-7.5V161.6z M254.6,146.1h7.5v7.7h-7.5V146.1z M254.7,208.5h7.5v7.7h-7.5V208.5z M277.3,200.1h7.5v7.7h-7.5
	V200.1z M292.3,200.1h7.5v7.7h-7.5V200.1z M292.3,169.3h7.5v7.7h-7.5V169.3z M284.8,161.6h7.5v7.7h-7.5V161.6z M292.3,153.9h7.5v7.7
	h-7.5V153.9z M284.8,146.1h7.5v7.7h-7.5V146.1z M269.8,208.5h7.5v7.7h-7.5V208.5z M284.8,208.5h7.5v7.7h-7.5V208.5z M224.5,177h7.5
	v7.7h-7.5V177z M224.5,161.7h7.5v7.7h-7.5V161.7z M224.5,146.1h7.5v7.7h-7.5V146.1z M224.5,192.4h7.5v7.7h-7.5V192.4z M216.9,184.8
	h7.5v7.7h-7.5V184.8z M216.9,169.3h7.5v7.7h-7.5V169.3z M216.9,153.9h7.5v7.7h-7.5V153.9z M232.1,184.7h7.5v7.7h-7.5V184.7z
	 M239.6,192.4h7.5v7.7h-7.5V192.4z M232.1,169.3h7.5v7.7h-7.5V169.3z M232.1,153.9h7.5v7.7h-7.5V153.9z M239.6,177h7.5v7.7h-7.5V177
	z M247.1,184.7h7.5v7.7h-7.5V184.7z M217,200.1h7.5v7.7H217V200.1z M209.4,192.5h7.5v7.7h-7.5V192.5z M209.4,177.3h7.5v7.7h-7.5
	V177.3z M209.4,161.6h7.5v7.7h-7.5V161.6z M209.4,146.1h7.5v7.7h-7.5V146.1z M209.5,208.5h7.5v7.7h-7.5V208.5z M232.1,200.1h7.5v7.7
	h-7.5V200.1z M247.1,200.1h7.5v7.7h-7.5V200.1z M247.1,169.3h7.5v7.7h-7.5V169.3z M239.6,161.6h7.5v7.7h-7.5V161.6z M247.1,153.9
	h7.5v7.7h-7.5V153.9z M239.6,146.1h7.5v7.7h-7.5V146.1z M224.5,208.5h7.5v7.7h-7.5V208.5z M239.6,208.5h7.5v7.7h-7.5V208.5z
	 M179.4,177h7.5v7.7h-7.5V177z M179.4,161.7h7.5v7.7h-7.5V161.7z M179.4,146.1h7.5v7.7h-7.5V146.1z M179.4,192.4h7.5v7.7h-7.5V192.4
	z M171.8,184.8h7.5v7.7h-7.5V184.8z M171.8,169.3h7.5v7.7h-7.5V169.3z M171.8,153.9h7.5v7.7h-7.5V153.9z M187,184.7h7.5v7.7H187
	V184.7z M194.5,192.4h7.5v7.7h-7.5V192.4z M187,169.3h7.5v7.7H187V169.3z M187,153.9h7.5v7.7H187V153.9z M194.5,177h7.5v7.7h-7.5
	V177z M202,184.7h7.5v7.7H202V184.7z M171.9,200.1h7.5v7.7h-7.5V200.1z M164.3,192.5h7.5v7.7h-7.5V192.5z M164.3,177.3h7.5v7.7h-7.5
	V177.3z M164.3,161.6h7.5v7.7h-7.5V161.6z M164.3,146.1h7.5v7.7h-7.5V146.1z M164.4,208.5h7.5v7.7h-7.5V208.5z M187,200.1h7.5v7.7
	H187V200.1z M202,200.1h7.5v7.7H202V200.1z M202,169.3h7.5v7.7H202V169.3z M194.5,161.6h7.5v7.7h-7.5V161.6z M202,153.9h7.5v7.7H202
	V153.9z M194.5,146.1h7.5v7.7h-7.5V146.1z M179.4,208.5h7.5v7.7h-7.5V208.5z M194.5,208.5h7.5v7.7h-7.5V208.5z M134.2,177h7.5v7.7
	h-7.5V177z M134.2,161.7h7.5v7.7h-7.5V161.7z M134.2,146.1h7.5v7.7h-7.5V146.1z M134.2,192.4h7.5v7.7h-7.5V192.4z M126.6,184.8h7.5
	v7.7h-7.5V184.8z M126.6,169.3h7.5v7.7h-7.5V169.3z M126.6,153.9h7.5v7.7h-7.5V153.9z M141.7,184.7h7.5v7.7h-7.5V184.7z
	 M149.2,192.4h7.5v7.7h-7.5V192.4z M141.7,169.3h7.5v7.7h-7.5V169.3z M141.7,153.9h7.5v7.7h-7.5V153.9z M149.2,177h7.5v7.7h-7.5V177
	z M156.8,184.7h7.5v7.7h-7.5V184.7z M126.7,200.1h7.5v7.7h-7.5V200.1z M119.1,192.5h7.5v7.7h-7.5V192.5z M119.1,177.3h7.5v7.7h-7.5
	V177.3z M119.1,161.6h7.5v7.7h-7.5V161.6z M119.1,146.1h7.5v7.7h-7.5V146.1z M119.2,208.5h7.5v7.7h-7.5V208.5z M141.7,200.1h7.5v7.7
	h-7.5V200.1z M156.8,200.1h7.5v7.7h-7.5V200.1z M156.8,169.3h7.5v7.7h-7.5V169.3z M149.2,161.6h7.5v7.7h-7.5V161.6z M156.8,153.9
	h7.5v7.7h-7.5V153.9z M149.2,146.1h7.5v7.7h-7.5V146.1z M134.2,208.5h7.5v7.7h-7.5V208.5z M149.2,208.5h7.5v7.7h-7.5V208.5z
	 M89.1,177h7.5v7.7h-7.5V177z M89.1,161.7h7.5v7.7h-7.5V161.7z M89.1,146.1h7.5v7.7h-7.5V146.1z M89.1,192.4h7.5v7.7h-7.5V192.4z
	 M96.6,184.7h7.5v7.7h-7.5V184.7z M104.1,192.4h7.5v7.7h-7.5V192.4z M96.6,169.3h7.5v7.7h-7.5V169.3z M96.6,153.9h7.5v7.7h-7.5
	V153.9z M104.1,177h7.5v7.7h-7.5V177z M111.6,184.7h7.5v7.7h-7.5V184.7z M96.6,200.1h7.5v7.7h-7.5V200.1z M111.6,200.1h7.5v7.7h-7.5
	V200.1z M111.6,169.3h7.5v7.7h-7.5V169.3z M104.1,161.6h7.5v7.7h-7.5V161.6z M111.6,153.9h7.5v7.7h-7.5V153.9z M104.1,146.1h7.5v7.7
	h-7.5V146.1z M89.1,208.5h7.5v7.7h-7.5V208.5z M104.1,208.5h7.5v7.7h-7.5V208.5z M59,177h7.5v7.7H59V177z M59,161.7h7.5v7.7H59
	V161.7z M59,146.1h7.5v7.7H59V146.1z M59,192.4h7.5v7.7H59V192.4z M51.4,184.8h7.5v7.7h-7.5V184.8z M51.4,169.3h7.5v7.7h-7.5V169.3z
	 M51.4,153.9h7.5v7.7h-7.5V153.9z M66.5,184.7H74v7.7h-7.5V184.7z M74,192.4h7.5v7.7H74V192.4z M66.5,169.3H74v7.7h-7.5V169.3z
	 M66.5,153.9H74v7.7h-7.5V153.9z M74,177h7.5v7.7H74V177z M81.6,184.7h7.5v7.7h-7.5V184.7z M51.5,200.1H59v7.7h-7.5V200.1z
	 M43.9,192.5h7.5v7.7h-7.5V192.5z M43.9,177.3h7.5v7.7h-7.5V177.3z M43.9,161.6h7.5v7.7h-7.5V161.6z M43.9,146.1h7.5v7.7h-7.5V146.1
	z M44,208.5h7.5v7.7H44V208.5z M66.5,200.1H74v7.7h-7.5V200.1z M81.6,200.1h7.5v7.7h-7.5V200.1z M81.6,169.3h7.5v7.7h-7.5V169.3z
	 M74,161.6h7.5v7.7H74V161.6z M81.6,153.9h7.5v7.7h-7.5V153.9z M74,146.1h7.5v7.7H74V146.1z M59,208.5h7.5v7.7H59V208.5z M74,208.5
	h7.5v7.7H74V208.5z M13.9,177h7.5v7.7h-7.5V177z M13.9,161.7h7.5v7.7h-7.5V161.7z M13.9,146.1h7.5v7.7h-7.5V146.1z M13.9,192.4h7.5
	v7.7h-7.5V192.4z M21.4,184.7h7.5v7.7h-7.5V184.7z M28.9,192.4h7.5v7.7h-7.5V192.4z M21.4,169.3h7.5v7.7h-7.5V169.3z M21.4,153.9
	h7.5v7.7h-7.5V153.9z M28.9,177h7.5v7.7h-7.5V177z M36.4,184.7h7.5v7.7h-7.5V184.7z M21.4,200.1h7.5v7.7h-7.5V200.1z M36.4,200.1
	h7.5v7.7h-7.5V200.1z M36.4,169.3h7.5v7.7h-7.5V169.3z M28.9,161.6h7.5v7.7h-7.5V161.6z M36.4,153.9h7.5v7.7h-7.5V153.9z
	 M28.9,146.1h7.5v7.7h-7.5V146.1z M13.9,208.5h7.5v7.7h-7.5V208.5z M0.2,177h7.5v7.7H0.2V177z M0.2,161.7h7.5v7.7H0.2V161.7z
	 M0.2,146.1h7.5v7.7H0.2V146.1z M0.2,192.4h7.5v7.7H0.2V192.4z M7.7,184.7h7.5v7.7H7.7V184.7z M7.7,169.3h7.5v7.7H7.7V169.3z
	 M7.7,153.9h7.5v7.7H7.7V153.9z M7.7,200.1h7.5v7.7H7.7V200.1z M0.2,208.5h7.5v7.7H0.2V208.5z M28.9,208.5h7.5v7.7h-7.5V208.5z
	 M345,208.5h7.5v7.7H345V208.5z M375.1,208.5h7.5v7.7h-7.5V208.5z M360,208.5h7.5v7.7H360V208.5z M390.1,208.5h7.5v7.7h-7.5V208.5z
	 M405.1,208.5h7.5v7.7h-7.5V208.5z M435.2,208.5h7.5v7.7h-7.5V208.5z M420.2,208.5h7.5v7.7h-7.5V208.5z M450.3,192.2v7.8h5.7
	l1.8-3.5v-4.3H450.3z M457.8,184.7v7.7h2.101l4-7.7H457.8z M472.6,153.9v7.7h3.101l4-7.7H472.6z M479.7,146.2v6.9l3.6-6.9H479.7z"/>
<path opacity="0.03" fill="#585858" enable-background="new    " d="M467.1,176.9H465.4v3.3L467.1,176.9z"/>
<path fill="#585858" d="M465.3,177h2.101l-2,3.3L465.3,177z"/>
<path opacity="0.03" fill="#585858" enable-background="new    " d="M451.8,207.9H450v3.3L451.8,207.9z"/>
<path fill="#585858" d="M450,208h2.1l-2.1,3.3V208z"/>
<path fill="#7D7D7D" d="M597.2,199.5c0,0-30,2.9-63.2-54.4h338.1v72H568.5C568.5,217.201,581.6,202.8,597.2,199.5z"/>
<path opacity="0.5" fill="#4D4D4D" enable-background="new    " d="M594.5,199.5c15.4,1.1,18.3-10.6,34.2-27.7
	c7.8-8.4,19.899-7.6,19.899-7.6l11.4,23.7C660,187.9,645.4,226.3,594.5,199.5L594.5,199.5z M699.3,145.6
	c-8.2,4-15.899,7.7-18.899,9.1c-7.601,3.7-25.801,5.9-25.801,5.9l11.5,23.7c0,0,12.5-14,20.101-17.7c6.5-3.1,35.3-17.1,43.399-21
	H699.3z"/>
</svg>
