<?xml version="1.0" encoding="utf-8"?>
<!-- Generator: Adobe Illustrator 15.1.0, SVG Export Plug-In . SVG Version: 6.00 Build 0)  -->
<!DOCTYPE svg PUBLIC "-//W3C//DTD SVG 1.1//EN" "http://www.w3.org/Graphics/SVG/1.1/DTD/svg11.dtd">
<svg version="1.1" id="Calque_1" xmlns="http://www.w3.org/2000/svg" xmlns:xlink="http://www.w3.org/1999/xlink" x="0px" y="0px"
	 width="150px" height="48.67px" viewBox="0 0 150 48.67" enable-background="new 0 0 150 48.67" xml:space="preserve">
<g id="LOGO_white">
	<path fill="#FFFFFF" d="M50.61,20.36c0.17-0.03,0.22-0.06,0.22-0.06l0.07-0.04h5.82l1.27-2.5h-8.14c-2.16,0-3.36,0.75-3.69,2.28
		c-0.05,0.22-0.07,0.42-0.07,0.59v8.48c0,1.85,1.43,2.75,4.37,2.75h6.27l1.27-2.54h-6.91c-1.24-0.09-1.42-0.86-1.42-1.31v-1.97h6.42
		l1.27-2.54h-7.69v-1.96C49.67,20.95,50,20.54,50.61,20.36z M68.37,17.76h-4.99c-2.3,0-3.61,0.7-4.03,2.14
		c-0.06,0.24-0.1,0.47-0.1,0.69l0.03,8.44c0,0.19,0.03,0.41,0.1,0.66c0.2,0.79,0.57,1.34,1.16,1.66c0.6,0.34,1.56,0.51,2.84,0.51
		h4.97c2.76,0,4.1-0.94,4.1-2.87v-8.4C72.45,18.69,71.11,17.76,68.37,17.76z M68.89,28.09c0,0.46-0.22,1.23-1.72,1.23h-2.59
		c-1.49,0-1.71-0.85-1.71-1.35l-0.03-6.35c0-0.51,0.23-1.35,1.75-1.35h2.59c1.49,0,1.72,0.85,1.72,1.35V28.09z M129.67,23.49
		l-3.87-5.72h-15.67l-1.21,2.41l4.87,0.09v11.59h3.58V20.26h6.24l4.44,6.08v5.51h3.58v-5.52l6.29-8.58h-4.03L129.67,23.49z
		 M93.03,18.21c-0.61-0.47-1.43-0.71-2.45-0.71c-0.36,0-0.74,0.03-1.1,0.08c-1.18,0.2-1.9,0.73-2.19,1.62l-3.06,9.54l-2.75-9.55
		c-0.26-0.89-0.98-1.42-2.22-1.61c-0.36-0.05-0.72-0.08-1.07-0.08c-1.03,0-1.86,0.24-2.48,0.71c-0.59,0.46-0.88,1.03-0.88,1.75
		v11.84h3.39V19.6l3.66,10.74c0.41,1.2,1.22,1.79,2.48,1.79c1,0,1.69-0.32,2.1-0.96c0.17-0.23,0.3-0.5,0.4-0.82l3.69-10.73v12.18
		h3.36V19.96C93.92,19.24,93.63,18.66,93.03,18.21z M148.63,24c-0.66-0.34-1.41-0.5-2.26-0.5h-3.33c-0.96-0.08-1.27-0.51-1.37-0.87
		c-0.04-0.09-0.04-0.19-0.04-0.32v-0.98c0-0.36,0.16-0.97,1.24-1.02l5.63-0.04l1.26-2.5h-8.02c-1.98,0-3.15,0.64-3.6,1.95
		c-0.06,0.2-0.09,0.42-0.09,0.63v3.11c0,0.5,0.19,0.95,0.58,1.38c0.72,0.81,1.72,1.2,3.06,1.2h3.52c1.07,0.1,1.23,0.68,1.23,1.02
		v1.06c0,0.4-0.22,0.92-1.23,1.18l-0.08,0.01l-5.54,0.02l-1.25,2.53h7.78c0.96,0,1.8-0.17,2.48-0.5c0.96-0.49,1.43-1.23,1.43-2.29
		v-2.99C150,25.12,149.55,24.43,148.63,24z M103.44,17.68c-1.55,0-2.54,0.58-3.03,1.76l-5.24,12.49h3.72l1.34-3.19h6.41l1.34,3.19
		h3.72l-5.24-12.49C105.94,18.26,104.96,17.68,103.44,17.68z M101.25,26.4l1.87-6.07l2.52,6.07H101.25z M39.77,23.51h-2.84
		l-1.27,2.41h4.11v2.73c-0.06,0.42-0.44,0.63-1.13,0.63h-4.12c-0.42-0.05-0.67-0.25-0.76-0.59v-7.9c0.06-0.34,0.28-0.54,0.65-0.59
		h7.25l1.27-2.38h-8.66c-1.53,0-3.23,0.25-3.83,0.76c-0.6,0.51-0.9,1.42-0.9,2.72v6.63c0,0.89,0.03,1.49,0.09,1.8
		c0.11,0.47,0.36,0.89,0.77,1.25c0.69,0.63,2.42,0.94,3.9,0.94h5.39c1.62,0,3.38-0.56,3.99-1.69c0.22-0.36,0.33-0.61,0.33-1.52
		v-5.22L39.77,23.51L39.77,23.51z"/>
	<g>
		<polygon fill="#CE1417" points="23.47,14.22 15.02,9.33 15.02,15.8 17.89,17.46 		"/>
		<polygon fill="#44AF63" points="18.22,20.91 18.22,28.17 11.95,31.79 11.95,31.84 17.53,35.03 23.82,31.4 23.82,17.67 		"/>
		<polygon fill="#038B9B" points="11.95,31.84 11.95,31.79 11.91,31.81 5.6,28.17 5.6,20.88 11.91,17.24 11.92,17.24 11.92,10.77 
			11.91,10.77 0,17.65 0,31.4 11.91,38.28 17.53,35.03 		"/>
	</g>
</g>
</svg>
